SplineFontDB: 3.0
FontName: Asap-Bold
FullName: Asap Bold
FamilyName: Asap
Weight: Bold
Copyright: Copyright (c) 2011-2014, Omnibus-Type (www.omnibus-type.com omnibus.type@gmail.com) with Reserved Font Name 'Asap'
Version: 001.006
ItalicAngle: 0
UnderlinePosition: -50
UnderlineWidth: 50
Ascent: 800
Descent: 200
sfntRevision: 0x00010189
LayerCount: 2
Layer: 0 1 "Back"  1
Layer: 1 1 "Fore"  0
XUID: [1021 191 1600663927 7403238]
FSType: 8
OS2Version: 3
OS2_WeightWidthSlopeOnly: 0
OS2_UseTypoMetrics: 1
CreationTime: 1410960463
ModificationTime: 1410988208
PfmFamily: 17
TTFWeight: 700
TTFWidth: 5
LineGap: 0
VLineGap: 0
Panose: 2 15 8 4 3 1 2 6 2 3
OS2TypoAscent: 1015
OS2TypoAOffset: 0
OS2TypoDescent: -240
OS2TypoDOffset: 0
OS2TypoLinegap: 0
OS2WinAscent: 1015
OS2WinAOffset: 0
OS2WinDescent: 240
OS2WinDOffset: 0
HheadAscent: 1015
HheadAOffset: 0
HheadDescent: -240
HheadDOffset: 0
OS2SubXSize: 650
OS2SubYSize: 600
OS2SubXOff: 0
OS2SubYOff: 75
OS2SupXSize: 650
OS2SupYSize: 600
OS2SupXOff: 0
OS2SupYOff: 350
OS2StrikeYSize: 50
OS2StrikeYPos: 313
OS2Vendor: 'OMNI'
OS2CodePages: 20000193.00000000
OS2UnicodeRanges: 20000007.00000000.00000000.00000000
Lookup: 1 0 0 "'aalt' Access All Alternates lookup 0"  {"'aalt' Access All Alternates lookup 0 subtable"  } ['aalt' ('DFLT' <'dflt' > 'grek' <'dflt' > 'latn' <'AZE ' 'CAT ' 'CRT ' 'ESP ' 'KAZ ' 'MOL ' 'NLD ' 'PLK ' 'ROM ' 'TAT ' 'TRK ' 'dflt' > ) ]
Lookup: 6 0 0 "'locl' Localized Forms in Latin lookup 1"  {"'locl' Localized Forms in Latin lookup 1 contextual 0"  "'locl' Localized Forms in Latin lookup 1 contextual 1"  } ['locl' ('latn' <'AZE ' 'CAT ' 'CRT ' 'ESP ' 'KAZ ' 'MOL ' 'PLK ' 'ROM ' 'TAT ' 'TRK ' 'dflt' > ) ]
Lookup: 1 0 0 "'locl' Localized Forms in Latin lookup 2"  {"'locl' Localized Forms in Latin lookup 2 subtable"  } ['locl' ('latn' <'TRK ' > ) ]
Lookup: 1 0 0 "'locl' Localized Forms in Latin lookup 3"  {"'locl' Localized Forms in Latin lookup 3 subtable"  } ['locl' ('latn' <'AZE ' > ) ]

StartChar: .notdef
Encoding: 65536 -1 0
Width: 514
Flags: MW
HStem: 0 50<87 427 87 507> 650 50<86 426 86 86>
VStem: 7 49<95 95 95 605> 456 51<95 605 605 605>
LayerCount: 2
Fore
SplineSet
7 700 m 1,0,-1
 507 700 l 1,1,-1
 507 0 l 1,2,-1
 7 0 l 1,3,-1
 7 700 l 1,0,-1
426 650 m 1,4,-1
 86 650 l 1,5,-1
 257 395 l 1,6,-1
 426 650 l 1,4,-1
56 95 m 1,7,-1
 227 350 l 1,8,-1
 56 605 l 1,9,-1
 56 95 l 1,7,-1
456 95 m 1,10,-1
 456 605 l 1,11,-1
 287 350 l 1,12,-1
 456 95 l 1,10,-1
427 50 m 1,13,-1
 256 305 l 1,14,-1
 87 50 l 1,15,-1
 427 50 l 1,13,-1
EndSplineSet
EndChar

StartChar: A
Encoding: 65 65 1
Width: 613
GlyphClass: 2
Flags: MW
HStem: 141 132<230 380 230 423 187 380> 682 20G<281 333 333 347.5>
VStem: 0 613<13 22.5>
AnchorPoint: "Anchor-1" 307 700 basechar 0
AnchorPoint: "Anchor-0" 310 0 basechar 0
LayerCount: 2
Fore
SplineSet
281 702 m 2,0,-1
 333 702 l 2,1,2
 382 702 382 702 390 681 c 2,3,-1
 610 38 l 2,4,5
 613 27.5 613 27.5 613 20 c 0,6,7
 613 -2 613 -2 563 -2 c 2,8,-1
 519 -2 l 2,9,10
 470 -2 470 -2 463 19 c 2,11,-1
 423 141 l 1,12,-1
 187 141 l 1,13,-1
 147 19 l 2,14,15
 140 -2 140 -2 101 -2 c 2,16,-1
 61 -2 l 2,17,18
 0 -2 0 -2 0 20 c 0,19,20
 0 24 0 24 4 38 c 2,21,-1
 224 681 l 2,22,23
 232 702 232 702 281 702 c 2,0,-1
308 515 m 1,24,-1
 304 515 l 1,25,26
 295 466 295 466 289 451 c 2,27,-1
 230 273 l 1,28,-1
 380 273 l 1,29,-1
 323 451 l 2,30,31
 316 471 316 471 308 515 c 1,24,-1
EndSplineSet
Substitution2: "Single Substitution lookup 20 subtable" ordfeminine
Substitution2: "'aalt' Access All Alternates lookup 0 subtable" ordfeminine
Position2: "'cpsp' Capital Spacing lookup 0 subtable" dx=5 dy=0 dh=10 dv=0
EndChar

StartChar: Aacute
Encoding: 193 193 2
Width: 613
GlyphClass: 2
Flags: MW
HStem: 141 132<230 380 230 423 187 380> 682 20G<281 333 333 347.5> 752 159<256 407>
VStem: 0 613<13 22.5>
AnchorPoint: "Anchor-1" 313 877 basechar 0
AnchorPoint: "Anchor-0" 310 0 basechar 0
LayerCount: 2
Fore
SplineSet
302 884 m 0,0,1
 317 911 317 911 382 911 c 128,-1,2
 447 911 447 911 447 897 c 0,3,4
 447 891 447 891 441 883 c 128,-1,5
 435 875 435 875 417 856.5 c 128,-1,6
 399 838 399 838 392 830.5 c 128,-1,7
 385 823 385 823 371 807.5 c 128,-1,8
 357 792 357 792 343 777 c 0,9,10
 320 752 320 752 268 752 c 0,11,12
 237 752 237 752 237 767 c 0,13,14
 237 777.5 237 777.5 251.5 799.25 c 128,-1,15
 266 821 266 821 278 842 c 128,-1,16
 290 863 290 863 302 884 c 0,0,1
281 702 m 2,17,-1
 333 702 l 2,18,19
 382 702 382 702 390 681 c 2,20,-1
 610 38 l 2,21,22
 613 27.5 613 27.5 613 20 c 0,23,24
 613 -2 613 -2 563 -2 c 2,25,-1
 519 -2 l 2,26,27
 470 -2 470 -2 463 19 c 2,28,-1
 423 141 l 1,29,-1
 187 141 l 1,30,-1
 147 19 l 2,31,32
 140 -2 140 -2 101 -2 c 2,33,-1
 61 -2 l 2,34,35
 0 -2 0 -2 0 20 c 0,36,37
 0 24 0 24 4 38 c 2,38,-1
 224 681 l 2,39,40
 232 702 232 702 281 702 c 2,17,-1
308 515 m 1,41,-1
 304 515 l 1,42,43
 295 466 295 466 289 451 c 2,44,-1
 230 273 l 1,45,-1
 380 273 l 1,46,-1
 323 451 l 2,47,48
 316 471 316 471 308 515 c 1,41,-1
EndSplineSet
Position2: "'cpsp' Capital Spacing lookup 0 subtable" dx=5 dy=0 dh=10 dv=0
EndChar

StartChar: Abreve
Encoding: 258 258 3
Width: 613
GlyphClass: 2
Flags: MW
HStem: 141 132<230 380 230 423 187 380> 682 20G<281 333 333 347.5> 752 91<281.5 334 281.5 350.5>
VStem: 0 613<13 22.5>
AnchorPoint: "Anchor-1" 307 863 basechar 0
AnchorPoint: "Anchor-0" 310 0 basechar 0
LayerCount: 2
Fore
SplineSet
419 892 m 0,0,1
 454 892 454 892 454 864 c 0,2,3
 454 820 454 820 412 786 c 128,-1,4
 370 752 370 752 307 752 c 128,-1,5
 244 752 244 752 202 786 c 128,-1,6
 160 820 160 820 160 864 c 0,7,8
 160 892 160 892 195 892 c 0,9,10
 212 892 212 892 224.5 878 c 128,-1,11
 237 864 237 864 243 859 c 0,12,13
 262.2 843 262.2 843 297.1 843 c 128,-1,14
 332 843 332 843 350 849.5 c 128,-1,15
 368 856 368 856 373 860.5 c 128,-1,16
 378 865 378 865 390 878.5 c 128,-1,17
 402 892 402 892 419 892 c 0,0,1
281 702 m 2,18,-1
 333 702 l 2,19,20
 382 702 382 702 390 681 c 2,21,-1
 610 38 l 2,22,23
 613 27.5 613 27.5 613 20 c 0,24,25
 613 -2 613 -2 563 -2 c 2,26,-1
 519 -2 l 2,27,28
 470 -2 470 -2 463 19 c 2,29,-1
 423 141 l 1,30,-1
 187 141 l 1,31,-1
 147 19 l 2,32,33
 140 -2 140 -2 101 -2 c 2,34,-1
 61 -2 l 2,35,36
 0 -2 0 -2 0 20 c 0,37,38
 0 24 0 24 4 38 c 2,39,-1
 224 681 l 2,40,41
 232 702 232 702 281 702 c 2,18,-1
308 515 m 1,42,-1
 304 515 l 1,43,44
 295 466 295 466 289 451 c 2,45,-1
 230 273 l 1,46,-1
 380 273 l 1,47,-1
 323 451 l 2,48,49
 316 471 316 471 308 515 c 1,42,-1
EndSplineSet
Position2: "'cpsp' Capital Spacing lookup 0 subtable" dx=5 dy=0 dh=10 dv=0
EndChar

StartChar: Abreveacute
Encoding: 7854 7854 4
Width: 613
GlyphClass: 2
Flags: MW
HStem: 141 132<230 380 230 423 187 380> 682 20G<281 333 333 347.5> 752 81<281.5 334 281.5 350.5> 883 124<358.5 430>
VStem: 0 613<13 22.5>
AnchorPoint: "Anchor-1" 307 872 basechar 0
AnchorPoint: "Anchor-0" 310 0 basechar 0
LayerCount: 2
Fore
SplineSet
376 1007 m 0,0,1
 416 1007 416 1007 416 983 c 0,2,3
 416 976 416 976 403.5 959 c 128,-1,4
 391 942 391 942 342 883 c 0,5,6
 327 868 327 868 287 868 c 0,7,8
 266 868 266 868 266 883 c 0,9,10
 266 886 266 886 301 980 c 0,11,12
 315 1007 315 1007 376 1007 c 0,0,1
419 883 m 0,13,14
 454 883 454 883 454 855 c 0,15,16
 454 815 454 815 412 783.5 c 128,-1,17
 370 752 370 752 307 752 c 128,-1,18
 244 752 244 752 202 783.5 c 128,-1,19
 160 815 160 815 160 855 c 0,20,21
 160 883 160 883 195 883 c 0,22,23
 212 883 212 883 228 865 c 0,24,25
 254 833 254 833 307 833 c 0,26,27
 353.166666667 833 353.166666667 833 373 850 c 0,28,29
 380 856 380 856 388 867 c 0,30,31
 402 883 402 883 419 883 c 0,13,14
281 702 m 2,32,-1
 333 702 l 2,33,34
 382 702 382 702 390 681 c 2,35,-1
 610 38 l 2,36,37
 613 27.5 613 27.5 613 20 c 0,38,39
 613 -2 613 -2 563 -2 c 2,40,-1
 519 -2 l 2,41,42
 470 -2 470 -2 463 19 c 2,43,-1
 423 141 l 1,44,-1
 187 141 l 1,45,-1
 147 19 l 2,46,47
 140 -2 140 -2 101 -2 c 2,48,-1
 61 -2 l 2,49,50
 0 -2 0 -2 0 20 c 0,51,52
 0 24 0 24 4 38 c 2,53,-1
 224 681 l 2,54,55
 232 702 232 702 281 702 c 2,32,-1
308 515 m 1,56,-1
 304 515 l 1,57,58
 295 466 295 466 289 451 c 2,59,-1
 230 273 l 1,60,-1
 380 273 l 1,61,-1
 323 451 l 2,62,63
 316 471 316 471 308 515 c 1,56,-1
EndSplineSet
Position2: "'cpsp' Capital Spacing lookup 0 subtable" dx=5 dy=0 dh=10 dv=0
EndChar

StartChar: Abrevedotbelow
Encoding: 7862 7862 5
Width: 613
GlyphClass: 2
Flags: MW
HStem: -204 124<291 333> 141 132<230 380 230 423 187 380> 682 20G<281 333 333 347.5> 752 91<281.5 334 281.5 350.5>
VStem: 252 120<-172 -112 -182.5 -101.5>
AnchorPoint: "Anchor-1" 314 -82 basechar 0
AnchorPoint: "Anchor-0" 313 -203 basechar 0
LayerCount: 2
Fore
SplineSet
419 892 m 0,0,1
 454 892 454 892 454 864 c 0,2,3
 454 820 454 820 412 786 c 128,-1,4
 370 752 370 752 307 752 c 128,-1,5
 244 752 244 752 202 786 c 128,-1,6
 160 820 160 820 160 864 c 0,7,8
 160 892 160 892 195 892 c 0,9,10
 212 892 212 892 224.5 878 c 128,-1,11
 237 864 237 864 243 859 c 0,12,13
 262.2 843 262.2 843 297.1 843 c 128,-1,14
 332 843 332 843 350 849.5 c 128,-1,15
 368 856 368 856 373 860.5 c 128,-1,16
 378 865 378 865 390 878.5 c 128,-1,17
 402 892 402 892 419 892 c 0,0,1
281 702 m 2,18,-1
 333 702 l 2,19,20
 382 702 382 702 390 681 c 2,21,-1
 610 38 l 2,22,23
 613 27.5 613 27.5 613 20 c 0,24,25
 613 -2 613 -2 563 -2 c 2,26,-1
 519 -2 l 2,27,28
 470 -2 470 -2 463 19 c 2,29,-1
 423 141 l 1,30,-1
 187 141 l 1,31,-1
 147 19 l 2,32,33
 140 -2 140 -2 101 -2 c 2,34,-1
 61 -2 l 2,35,36
 0 -2 0 -2 0 20 c 0,37,38
 0 24 0 24 4 38 c 2,39,-1
 224 681 l 2,40,41
 232 702 232 702 281 702 c 2,18,-1
308 515 m 1,42,-1
 304 515 l 1,43,44
 295 466 295 466 289 451 c 2,45,-1
 230 273 l 1,46,-1
 380 273 l 1,47,-1
 323 451 l 2,48,49
 316 471 316 471 308 515 c 1,42,-1
312 -80 m 128,-1,51
 372 -80 372 -80 372 -112 c 2,52,-1
 372 -172 l 2,53,54
 372 -204 372 -204 312 -204 c 128,-1,55
 252 -204 252 -204 252 -172 c 2,56,-1
 252 -112 l 2,57,50
 252 -80 252 -80 312 -80 c 128,-1,51
EndSplineSet
Position2: "'cpsp' Capital Spacing lookup 0 subtable" dx=5 dy=0 dh=10 dv=0
EndChar

StartChar: Abrevegrave
Encoding: 7856 7856 6
Width: 613
GlyphClass: 2
Flags: MW
HStem: 141 132<230 380 230 423 187 380> 682 20G<281 333 333 347.5> 752 81<281.5 334 281.5 350.5> 867 139<225 339>
VStem: 0 613<13 22.5>
AnchorPoint: "Anchor-1" 307 872 basechar 0
AnchorPoint: "Anchor-0" 310 0 basechar 0
LayerCount: 2
Fore
SplineSet
240 1006 m 0,0,1
 313 1006 313 1006 325 979 c 0,2,3
 358 896 358 896 358 881.5 c 128,-1,4
 358 867 358 867 322 867 c 128,-1,5
 286 867 286 867 267.5 890 c 128,-1,6
 249 913 249 913 226 942.5 c 128,-1,7
 203 972 203 972 198 979 c 128,-1,8
 193 986 193 986 193 992 c 0,9,10
 193 1006 193 1006 240 1006 c 0,0,1
419 883 m 0,11,12
 454 883 454 883 454 855 c 0,13,14
 454 815 454 815 412 783.5 c 128,-1,15
 370 752 370 752 307 752 c 128,-1,16
 244 752 244 752 202 783.5 c 128,-1,17
 160 815 160 815 160 855 c 0,18,19
 160 883 160 883 195 883 c 0,20,21
 212 883 212 883 228 865 c 0,22,23
 254 833 254 833 307 833 c 0,24,25
 353.166666667 833 353.166666667 833 373 850 c 0,26,27
 380 856 380 856 388 867 c 0,28,29
 402 883 402 883 419 883 c 0,11,12
281 702 m 2,30,-1
 333 702 l 2,31,32
 382 702 382 702 390 681 c 2,33,-1
 610 38 l 2,34,35
 613 27.5 613 27.5 613 20 c 0,36,37
 613 -2 613 -2 563 -2 c 2,38,-1
 519 -2 l 2,39,40
 470 -2 470 -2 463 19 c 2,41,-1
 423 141 l 1,42,-1
 187 141 l 1,43,-1
 147 19 l 2,44,45
 140 -2 140 -2 101 -2 c 2,46,-1
 61 -2 l 2,47,48
 0 -2 0 -2 0 20 c 0,49,50
 0 24 0 24 4 38 c 2,51,-1
 224 681 l 2,52,53
 232 702 232 702 281 702 c 2,30,-1
308 515 m 1,54,-1
 304 515 l 1,55,56
 295 466 295 466 289 451 c 2,57,-1
 230 273 l 1,58,-1
 380 273 l 1,59,-1
 323 451 l 2,60,61
 316 471 316 471 308 515 c 1,54,-1
EndSplineSet
Position2: "'cpsp' Capital Spacing lookup 0 subtable" dx=5 dy=0 dh=10 dv=0
EndChar

StartChar: Abrevehookabove
Encoding: 7858 7858 7
Width: 613
GlyphClass: 2
Flags: MW
HStem: 141 132<230 380 230 423 187 380> 682 20G<281 333 333 347.5> 752 81<281.5 334 281.5 350.5> 938 70<239 322>
VStem: 317 69<934 943.5>
AnchorPoint: "Anchor-1" 307 872 basechar 0
AnchorPoint: "Anchor-0" 310 0 basechar 0
LayerCount: 2
Fore
SplineSet
317 938 m 0,0,1
 317 955 317 955 296.5 955 c 128,-1,2
 276 955 276 955 260 946.5 c 128,-1,3
 244 938 244 938 243 938 c 0,4,5
 237 938 237 938 225 953.5 c 128,-1,6
 213 969 213 969 213 979.5 c 128,-1,7
 213 990 213 990 239.5 999 c 128,-1,8
 266 1008 266 1008 301 1008 c 128,-1,9
 336 1008 336 1008 361 990 c 128,-1,10
 386 972 386 972 386 944 c 128,-1,11
 386 916 386 916 359 894.5 c 128,-1,12
 332 873 332 873 311.5 873 c 128,-1,13
 291 873 291 873 279 879 c 128,-1,14
 267 885 267 885 267 894 c 0,15,16
 267 902.571428571 267 902.571428571 299.5 916.5 c 0,17,18
 317 924 317 924 317 938 c 0,0,1
419 883 m 0,19,20
 454 883 454 883 454 855 c 0,21,22
 454 815 454 815 412 783.5 c 128,-1,23
 370 752 370 752 307 752 c 128,-1,24
 244 752 244 752 202 783.5 c 128,-1,25
 160 815 160 815 160 855 c 0,26,27
 160 883 160 883 195 883 c 0,28,29
 212 883 212 883 228 865 c 0,30,31
 254 833 254 833 307 833 c 0,32,33
 353.166666667 833 353.166666667 833 373 850 c 0,34,35
 380 856 380 856 388 867 c 0,36,37
 402 883 402 883 419 883 c 0,19,20
281 702 m 2,38,-1
 333 702 l 2,39,40
 382 702 382 702 390 681 c 2,41,-1
 610 38 l 2,42,43
 613 27.5 613 27.5 613 20 c 0,44,45
 613 -2 613 -2 563 -2 c 2,46,-1
 519 -2 l 2,47,48
 470 -2 470 -2 463 19 c 2,49,-1
 423 141 l 1,50,-1
 187 141 l 1,51,-1
 147 19 l 2,52,53
 140 -2 140 -2 101 -2 c 2,54,-1
 61 -2 l 2,55,56
 0 -2 0 -2 0 20 c 0,57,58
 0 24 0 24 4 38 c 2,59,-1
 224 681 l 2,60,61
 232 702 232 702 281 702 c 2,38,-1
308 515 m 1,62,-1
 304 515 l 1,63,64
 295 466 295 466 289 451 c 2,65,-1
 230 273 l 1,66,-1
 380 273 l 1,67,-1
 323 451 l 2,68,69
 316 471 316 471 308 515 c 1,62,-1
EndSplineSet
Position2: "'cpsp' Capital Spacing lookup 0 subtable" dx=5 dy=0 dh=10 dv=0
EndChar

StartChar: Abrevetilde
Encoding: 7860 7860 8
Width: 613
GlyphClass: 2
Flags: MW
HStem: 141 132<230 380 230 423 187 380> 682 20G<281 333 333 347.5> 752 81<281.5 334 281.5 350.5> 902 86<366.5 379.5> 929 86<244.5 259>
VStem: 0 613<13 22.5>
AnchorPoint: "Anchor-1" 307 872 basechar 0
AnchorPoint: "Anchor-0" 310 0 basechar 0
LayerCount: 2
Fore
SplineSet
424 1003 m 128,-1,1
 447 1018 447 1018 464 996.5 c 128,-1,2
 481 975 481 975 457 943 c 1,3,4
 419 902 419 902 361 902 c 0,5,6
 329 902 329 902 300 915.5 c 128,-1,7
 271 929 271 929 250 929 c 128,-1,8
 229 929 229 929 206.5 916 c 128,-1,9
 184 903 184 903 166.5 927 c 128,-1,10
 149 951 149 951 170 974 c 0,11,12
 216 1015 216 1015 263 1015 c 0,13,14
 295 1015 295 1015 326.5 1001.5 c 128,-1,15
 358 988 358 988 379.5 988 c 128,-1,0
 401 988 401 988 424 1003 c 128,-1,1
419 883 m 0,16,17
 454 883 454 883 454 855 c 0,18,19
 454 815 454 815 412 783.5 c 128,-1,20
 370 752 370 752 307 752 c 128,-1,21
 244 752 244 752 202 783.5 c 128,-1,22
 160 815 160 815 160 855 c 0,23,24
 160 883 160 883 195 883 c 0,25,26
 212 883 212 883 228 865 c 0,27,28
 254 833 254 833 307 833 c 0,29,30
 353.166666667 833 353.166666667 833 373 850 c 0,31,32
 380 856 380 856 388 867 c 0,33,34
 402 883 402 883 419 883 c 0,16,17
281 702 m 2,35,-1
 333 702 l 2,36,37
 382 702 382 702 390 681 c 2,38,-1
 610 38 l 2,39,40
 613 27.5 613 27.5 613 20 c 0,41,42
 613 -2 613 -2 563 -2 c 2,43,-1
 519 -2 l 2,44,45
 470 -2 470 -2 463 19 c 2,46,-1
 423 141 l 1,47,-1
 187 141 l 1,48,-1
 147 19 l 2,49,50
 140 -2 140 -2 101 -2 c 2,51,-1
 61 -2 l 2,52,53
 0 -2 0 -2 0 20 c 0,54,55
 0 24 0 24 4 38 c 2,56,-1
 224 681 l 2,57,58
 232 702 232 702 281 702 c 2,35,-1
308 515 m 1,59,-1
 304 515 l 1,60,61
 295 466 295 466 289 451 c 2,62,-1
 230 273 l 1,63,-1
 380 273 l 1,64,-1
 323 451 l 2,65,66
 316 471 316 471 308 515 c 1,59,-1
EndSplineSet
Position2: "'cpsp' Capital Spacing lookup 0 subtable" dx=5 dy=0 dh=10 dv=0
EndChar

StartChar: Acircumflex
Encoding: 194 194 9
Width: 613
GlyphClass: 2
Flags: MW
HStem: 141 132<230 380 230 423 187 380> 682 20G<281 333 333 347.5> 749 146<183 313 190 313 302 403 302 425>
VStem: 0 613<13 22.5>
AnchorPoint: "Anchor-1" 457 793 basechar 0
AnchorPoint: "Anchor-0" 310 0 basechar 0
LayerCount: 2
Fore
SplineSet
302 895 m 2,0,-1
 313 895 l 2,1,2
 362 895 362 895 374 876 c 2,3,-1
 439 774 l 2,4,5
 445 765 445 765 445 759 c 0,6,7
 445 749 445 749 425 749 c 2,8,-1
 403 749 l 2,9,10
 351 749 351 749 335 773 c 2,11,-1
 307 813 l 1,12,-1
 279 774 l 2,13,14
 261 749 261 749 212 749 c 2,15,-1
 190 749 l 2,16,17
 170 749 170 749 170 759 c 0,18,19
 170 765 170 765 176 774 c 2,20,-1
 241 876 l 2,21,22
 253 895 253 895 302 895 c 2,0,-1
281 702 m 2,23,-1
 333 702 l 2,24,25
 382 702 382 702 390 681 c 2,26,-1
 610 38 l 2,27,28
 613 27.5 613 27.5 613 20 c 0,29,30
 613 -2 613 -2 563 -2 c 2,31,-1
 519 -2 l 2,32,33
 470 -2 470 -2 463 19 c 2,34,-1
 423 141 l 1,35,-1
 187 141 l 1,36,-1
 147 19 l 2,37,38
 140 -2 140 -2 101 -2 c 2,39,-1
 61 -2 l 2,40,41
 0 -2 0 -2 0 20 c 0,42,43
 0 24 0 24 4 38 c 2,44,-1
 224 681 l 2,45,46
 232 702 232 702 281 702 c 2,23,-1
308 515 m 1,47,-1
 304 515 l 1,48,49
 295 466 295 466 289 451 c 2,50,-1
 230 273 l 1,51,-1
 380 273 l 1,52,-1
 323 451 l 2,53,54
 316 471 316 471 308 515 c 1,47,-1
EndSplineSet
Position2: "'cpsp' Capital Spacing lookup 0 subtable" dx=5 dy=0 dh=10 dv=0
EndChar

StartChar: Acircumflexacute
Encoding: 7844 7844 10
Width: 613
GlyphClass: 2
Flags: MW
HStem: 141 132<230 380 230 423 187 380> 682 20G<281 333 333 347.5> 840 55
VStem: 0 613<13 22.5>
AnchorPoint: "Anchor-1" 441 829 basechar 0
AnchorPoint: "Anchor-0" 310 0 basechar 0
LayerCount: 2
Fore
SplineSet
510 964 m 0,0,1
 550 964 550 964 550 940 c 0,2,3
 550 933 550 933 537.5 916 c 128,-1,4
 525 899 525 899 476 840 c 0,5,6
 461 825 461 825 421 825 c 0,7,8
 400 825 400 825 400 840 c 0,9,10
 400 843 400 843 435 937 c 0,11,12
 449 964 449 964 510 964 c 0,0,1
302 895 m 2,13,-1
 313 895 l 2,14,15
 353 895 353 895 364 876 c 2,16,-1
 424 774 l 2,17,18
 430 765 430 765 430 759 c 0,19,20
 430 749 430 749 410 749 c 2,21,-1
 388 749 l 2,22,23
 328 749 328 749 320 773 c 2,24,-1
 307 813 l 1,25,-1
 279 774 l 2,26,27
 261 749 261 749 212 749 c 2,28,-1
 190 749 l 2,29,30
 170 749 170 749 170 759 c 0,31,32
 170 765 170 765 176 774 c 2,33,-1
 241 876 l 2,34,35
 253 895 253 895 302 895 c 2,13,-1
281 702 m 2,36,-1
 333 702 l 2,37,38
 382 702 382 702 390 681 c 2,39,-1
 610 38 l 2,40,41
 613 27.5 613 27.5 613 20 c 0,42,43
 613 -2 613 -2 563 -2 c 2,44,-1
 519 -2 l 2,45,46
 470 -2 470 -2 463 19 c 2,47,-1
 423 141 l 1,48,-1
 187 141 l 1,49,-1
 147 19 l 2,50,51
 140 -2 140 -2 101 -2 c 2,52,-1
 61 -2 l 2,53,54
 0 -2 0 -2 0 20 c 0,55,56
 0 24 0 24 4 38 c 2,57,-1
 224 681 l 2,58,59
 232 702 232 702 281 702 c 2,36,-1
308 515 m 1,60,-1
 304 515 l 1,61,62
 295 466 295 466 289 451 c 2,63,-1
 230 273 l 1,64,-1
 380 273 l 1,65,-1
 323 451 l 2,66,67
 316 471 316 471 308 515 c 1,60,-1
EndSplineSet
Position2: "'cpsp' Capital Spacing lookup 0 subtable" dx=5 dy=0 dh=10 dv=0
EndChar

StartChar: Acircumflexdotbelow
Encoding: 7852 7852 11
Width: 613
GlyphClass: 2
Flags: MW
HStem: -204 124<291 333> 141 132<230 380 230 423 187 380> 682 20G<281 333 333 347.5> 749 146<183 313 190 313 302 403 302 425>
VStem: 252 120<-172 -112 -182.5 -101.5>
AnchorPoint: "Anchor-1" 314 -82 basechar 0
AnchorPoint: "Anchor-0" 313 -203 basechar 0
LayerCount: 2
Fore
SplineSet
302 895 m 2,0,-1
 313 895 l 2,1,2
 362 895 362 895 374 876 c 2,3,-1
 439 774 l 2,4,5
 445 765 445 765 445 759 c 0,6,7
 445 749 445 749 425 749 c 2,8,-1
 403 749 l 2,9,10
 351 749 351 749 335 773 c 2,11,-1
 307 813 l 1,12,-1
 279 774 l 2,13,14
 261 749 261 749 212 749 c 2,15,-1
 190 749 l 2,16,17
 170 749 170 749 170 759 c 0,18,19
 170 765 170 765 176 774 c 2,20,-1
 241 876 l 2,21,22
 253 895 253 895 302 895 c 2,0,-1
281 702 m 2,23,-1
 333 702 l 2,24,25
 382 702 382 702 390 681 c 2,26,-1
 610 38 l 2,27,28
 613 27.5 613 27.5 613 20 c 0,29,30
 613 -2 613 -2 563 -2 c 2,31,-1
 519 -2 l 2,32,33
 470 -2 470 -2 463 19 c 2,34,-1
 423 141 l 1,35,-1
 187 141 l 1,36,-1
 147 19 l 2,37,38
 140 -2 140 -2 101 -2 c 2,39,-1
 61 -2 l 2,40,41
 0 -2 0 -2 0 20 c 0,42,43
 0 24 0 24 4 38 c 2,44,-1
 224 681 l 2,45,46
 232 702 232 702 281 702 c 2,23,-1
308 515 m 1,47,-1
 304 515 l 1,48,49
 295 466 295 466 289 451 c 2,50,-1
 230 273 l 1,51,-1
 380 273 l 1,52,-1
 323 451 l 2,53,54
 316 471 316 471 308 515 c 1,47,-1
312 -80 m 128,-1,56
 372 -80 372 -80 372 -112 c 2,57,-1
 372 -172 l 2,58,59
 372 -204 372 -204 312 -204 c 128,-1,60
 252 -204 252 -204 252 -172 c 2,61,-1
 252 -112 l 2,62,55
 252 -80 252 -80 312 -80 c 128,-1,56
EndSplineSet
Position2: "'cpsp' Capital Spacing lookup 0 subtable" dx=5 dy=0 dh=10 dv=0
EndChar

StartChar: Acircumflexgrave
Encoding: 7846 7846 12
Width: 613
GlyphClass: 2
Flags: MW
HStem: 141 132<230 380 230 423 187 380> 682 20G<281 333 333 347.5> 749 146<183 313 190 313 302 388 302 410> 824 139<359 473>
VStem: 0 613<13 22.5>
AnchorPoint: "Anchor-1" 441 829 basechar 0
AnchorPoint: "Anchor-0" 310 0 basechar 0
LayerCount: 2
Fore
SplineSet
374 963 m 0,0,1
 447 963 447 963 459 936 c 0,2,3
 492 854 492 854 492 839 c 128,-1,4
 492 824 492 824 456 824 c 0,5,6
 420 824 420 824 401.5 847 c 0,7,8
 383 870 383 870 360 899.5 c 0,9,10
 337 929 337 929 332 936 c 128,-1,11
 327 943 327 943 327 949 c 0,12,13
 327 963 327 963 374 963 c 0,0,1
302 895 m 2,14,-1
 313 895 l 2,15,16
 353 895 353 895 364 876 c 2,17,-1
 424 774 l 2,18,19
 430 765 430 765 430 759 c 0,20,21
 430 749 430 749 410 749 c 2,22,-1
 388 749 l 2,23,24
 328 749 328 749 320 773 c 2,25,-1
 307 813 l 1,26,-1
 279 774 l 2,27,28
 261 749 261 749 212 749 c 2,29,-1
 190 749 l 2,30,31
 170 749 170 749 170 759 c 0,32,33
 170 765 170 765 176 774 c 2,34,-1
 241 876 l 2,35,36
 253 895 253 895 302 895 c 2,14,-1
281 702 m 2,37,-1
 333 702 l 2,38,39
 382 702 382 702 390 681 c 2,40,-1
 610 38 l 2,41,42
 613 27.5 613 27.5 613 20 c 0,43,44
 613 -2 613 -2 563 -2 c 2,45,-1
 519 -2 l 2,46,47
 470 -2 470 -2 463 19 c 2,48,-1
 423 141 l 1,49,-1
 187 141 l 1,50,-1
 147 19 l 2,51,52
 140 -2 140 -2 101 -2 c 2,53,-1
 61 -2 l 2,54,55
 0 -2 0 -2 0 20 c 0,56,57
 0 24 0 24 4 38 c 2,58,-1
 224 681 l 2,59,60
 232 702 232 702 281 702 c 2,37,-1
308 515 m 1,61,-1
 304 515 l 1,62,63
 295 466 295 466 289 451 c 2,64,-1
 230 273 l 1,65,-1
 380 273 l 1,66,-1
 323 451 l 2,67,68
 316 471 316 471 308 515 c 1,61,-1
EndSplineSet
Position2: "'cpsp' Capital Spacing lookup 0 subtable" dx=5 dy=0 dh=10 dv=0
EndChar

StartChar: Acircumflexhookabove
Encoding: 7848 7848 13
Width: 613
GlyphClass: 2
Flags: MW
HStem: 141 132<230 380 230 423 187 380> 682 20G<281 333 333 347.5> 749 146<183 313 190 313 373.5 381.5 302 388 302 410> 895 70<373 456>
VStem: 451 69<891 900.5>
AnchorPoint: "Anchor-1" 441 829 basechar 0
AnchorPoint: "Anchor-0" 310 0 basechar 0
LayerCount: 2
Fore
SplineSet
451 895 m 0,0,1
 451 912 451 912 430.5 912 c 128,-1,2
 410 912 410 912 394 903.5 c 128,-1,3
 378 895 378 895 377 895 c 0,4,5
 371 895 371 895 359 910.5 c 128,-1,6
 347 926 347 926 347 936.5 c 128,-1,7
 347 947 347 947 373.5 956 c 128,-1,8
 400 965 400 965 435 965 c 128,-1,9
 470 965 470 965 495 947 c 128,-1,10
 520 929 520 929 520 901 c 128,-1,11
 520 873 520 873 493.5 851.5 c 128,-1,12
 467 830 467 830 446 830 c 128,-1,13
 425 830 425 830 413 836 c 128,-1,14
 401 842 401 842 401 851 c 0,15,16
 401 859.571428571 401 859.571428571 433.5 873.5 c 0,17,18
 451 881 451 881 451 895 c 0,0,1
302 895 m 2,19,-1
 313 895 l 2,20,21
 353 895 353 895 364 876 c 2,22,-1
 424 774 l 2,23,24
 430 765 430 765 430 759 c 0,25,26
 430 749 430 749 410 749 c 2,27,-1
 388 749 l 2,28,29
 328 749 328 749 320 773 c 2,30,-1
 307 813 l 1,31,-1
 279 774 l 2,32,33
 261 749 261 749 212 749 c 2,34,-1
 190 749 l 2,35,36
 170 749 170 749 170 759 c 0,37,38
 170 765 170 765 176 774 c 2,39,-1
 241 876 l 2,40,41
 253 895 253 895 302 895 c 2,19,-1
281 702 m 2,42,-1
 333 702 l 2,43,44
 382 702 382 702 390 681 c 2,45,-1
 610 38 l 2,46,47
 613 27.5 613 27.5 613 20 c 0,48,49
 613 -2 613 -2 563 -2 c 2,50,-1
 519 -2 l 2,51,52
 470 -2 470 -2 463 19 c 2,53,-1
 423 141 l 1,54,-1
 187 141 l 1,55,-1
 147 19 l 2,56,57
 140 -2 140 -2 101 -2 c 2,58,-1
 61 -2 l 2,59,60
 0 -2 0 -2 0 20 c 0,61,62
 0 24 0 24 4 38 c 2,63,-1
 224 681 l 2,64,65
 232 702 232 702 281 702 c 2,42,-1
308 515 m 1,66,-1
 304 515 l 1,67,68
 295 466 295 466 289 451 c 2,69,-1
 230 273 l 1,70,-1
 380 273 l 1,71,-1
 323 451 l 2,72,73
 316 471 316 471 308 515 c 1,66,-1
EndSplineSet
Position2: "'cpsp' Capital Spacing lookup 0 subtable" dx=5 dy=0 dh=10 dv=0
EndChar

StartChar: Acircumflextilde
Encoding: 7850 7850 14
Width: 613
GlyphClass: 2
Flags: MW
HStem: 141 132<230 380 230 423 187 380> 682 20G<281 333 333 347.5> 749 122<183 313 190 313 302 403 302 425> 902 86<362.5 375.5> 929 86<240.5 255>
VStem: 0 613<13 22.5>
AnchorPoint: "Anchor-1" 438 837 basechar 0
AnchorPoint: "Anchor-0" 310 0 basechar 0
LayerCount: 2
Fore
SplineSet
259 1015 m 0,0,1
 291 1015 291 1015 322.5 1001.5 c 128,-1,2
 354 988 354 988 376 988 c 128,-1,3
 398 988 398 988 420.5 1003 c 128,-1,4
 443 1018 443 1018 460 996.5 c 128,-1,5
 477 975 477 975 453 943 c 1,6,7
 415 902 415 902 357 902 c 0,8,9
 325 902 325 902 296 915.5 c 128,-1,10
 267 929 267 929 246 929 c 128,-1,11
 225 929 225 929 202.5 916 c 128,-1,12
 180 903 180 903 162.5 927 c 128,-1,13
 145 951 145 951 166 974 c 0,14,15
 212 1015 212 1015 259 1015 c 0,0,1
302 871 m 2,16,-1
 313 871 l 2,17,18
 356 871 356 871 374 852 c 1,19,-1
 439 774 l 1,20,21
 445 765 445 765 445 759 c 0,22,23
 445 749 445 749 425 749 c 2,24,-1
 403 749 l 2,25,26
 374 749 374 749 335 773 c 1,27,-1
 307 800 l 1,28,-1
 279 774 l 2,29,30
 277 773 277 773 268.5 767.5 c 128,-1,31
 260 762 260 762 257.5 761 c 128,-1,32
 255 760 255 760 248 756.5 c 128,-1,33
 241 753 241 753 236.5 752 c 0,34,35
 223 749 223 749 212 749 c 2,36,-1
 190 749 l 2,37,38
 170 749 170 749 170 759 c 0,39,40
 170 765 170 765 176 774 c 1,41,-1
 241 852 l 1,42,43
 259 871 259 871 302 871 c 2,16,-1
281 702 m 2,44,-1
 333 702 l 2,45,46
 382 702 382 702 390 681 c 2,47,-1
 610 38 l 2,48,49
 613 27.5 613 27.5 613 20 c 0,50,51
 613 -2 613 -2 563 -2 c 2,52,-1
 519 -2 l 2,53,54
 470 -2 470 -2 463 19 c 2,55,-1
 423 141 l 1,56,-1
 187 141 l 1,57,-1
 147 19 l 2,58,59
 140 -2 140 -2 101 -2 c 2,60,-1
 61 -2 l 2,61,62
 0 -2 0 -2 0 20 c 0,63,64
 0 24 0 24 4 38 c 2,65,-1
 224 681 l 2,66,67
 232 702 232 702 281 702 c 2,44,-1
308 515 m 1,68,-1
 304 515 l 1,69,70
 295 466 295 466 289 451 c 2,71,-1
 230 273 l 1,72,-1
 380 273 l 1,73,-1
 323 451 l 2,74,75
 316 471 316 471 308 515 c 1,68,-1
EndSplineSet
Position2: "'cpsp' Capital Spacing lookup 0 subtable" dx=5 dy=0 dh=10 dv=0
EndChar

StartChar: Adieresis
Encoding: 196 196 15
Width: 613
GlyphClass: 2
Flags: MW
HStem: 141 132<230 380 230 423 187 380> 682 20G<281 333 333 347.5> 755 124<196 238 376 418>
VStem: 157 120<787 847 776.5 857.5> 337 120<787 847 776.5 857.5>
AnchorPoint: "Anchor-1" 313 877 basechar 0
AnchorPoint: "Anchor-0" 310 0 basechar 0
LayerCount: 2
Fore
SplineSet
217 879 m 128,-1,1
 277 879 277 879 277 847 c 2,2,-1
 277 787 l 2,3,4
 277 755 277 755 217 755 c 128,-1,5
 157 755 157 755 157 787 c 2,6,-1
 157 847 l 2,7,0
 157 879 157 879 217 879 c 128,-1,1
397 879 m 128,-1,9
 457 879 457 879 457 847 c 2,10,-1
 457 787 l 2,11,12
 457 755 457 755 397 755 c 128,-1,13
 337 755 337 755 337 787 c 2,14,-1
 337 847 l 2,15,8
 337 879 337 879 397 879 c 128,-1,9
281 702 m 2,16,-1
 333 702 l 2,17,18
 382 702 382 702 390 681 c 2,19,-1
 610 38 l 2,20,21
 613 27.5 613 27.5 613 20 c 0,22,23
 613 -2 613 -2 563 -2 c 2,24,-1
 519 -2 l 2,25,26
 470 -2 470 -2 463 19 c 2,27,-1
 423 141 l 1,28,-1
 187 141 l 1,29,-1
 147 19 l 2,30,31
 140 -2 140 -2 101 -2 c 2,32,-1
 61 -2 l 2,33,34
 0 -2 0 -2 0 20 c 0,35,36
 0 24 0 24 4 38 c 2,37,-1
 224 681 l 2,38,39
 232 702 232 702 281 702 c 2,16,-1
308 515 m 1,40,-1
 304 515 l 1,41,42
 295 466 295 466 289 451 c 2,43,-1
 230 273 l 1,44,-1
 380 273 l 1,45,-1
 323 451 l 2,46,47
 316 471 316 471 308 515 c 1,40,-1
EndSplineSet
Position2: "'cpsp' Capital Spacing lookup 0 subtable" dx=5 dy=0 dh=10 dv=0
EndChar

StartChar: Adotbelow
Encoding: 7840 7840 16
Width: 613
GlyphClass: 2
Flags: MW
HStem: -204 124<291 333> 141 132<230 380 230 423 187 380> 682 20G<281 333 333 347.5>
VStem: 252 120<-172 -112 -182.5 -101.5>
AnchorPoint: "Anchor-1" 314 -82 basechar 0
AnchorPoint: "Anchor-0" 313 -203 basechar 0
LayerCount: 2
Fore
SplineSet
281 702 m 2,0,-1
 333 702 l 2,1,2
 382 702 382 702 390 681 c 2,3,-1
 610 38 l 2,4,5
 613 27.5 613 27.5 613 20 c 0,6,7
 613 -2 613 -2 563 -2 c 2,8,-1
 519 -2 l 2,9,10
 470 -2 470 -2 463 19 c 2,11,-1
 423 141 l 1,12,-1
 187 141 l 1,13,-1
 147 19 l 2,14,15
 140 -2 140 -2 101 -2 c 2,16,-1
 61 -2 l 2,17,18
 0 -2 0 -2 0 20 c 0,19,20
 0 24 0 24 4 38 c 2,21,-1
 224 681 l 2,22,23
 232 702 232 702 281 702 c 2,0,-1
308 515 m 1,24,-1
 304 515 l 1,25,26
 295 466 295 466 289 451 c 2,27,-1
 230 273 l 1,28,-1
 380 273 l 1,29,-1
 323 451 l 2,30,31
 316 471 316 471 308 515 c 1,24,-1
312 -80 m 128,-1,33
 372 -80 372 -80 372 -112 c 2,34,-1
 372 -172 l 2,35,36
 372 -204 372 -204 312 -204 c 128,-1,37
 252 -204 252 -204 252 -172 c 2,38,-1
 252 -112 l 2,39,32
 252 -80 252 -80 312 -80 c 128,-1,33
EndSplineSet
Position2: "'cpsp' Capital Spacing lookup 0 subtable" dx=5 dy=0 dh=10 dv=0
EndChar

StartChar: Agrave
Encoding: 192 192 17
Width: 613
GlyphClass: 2
Flags: MW
HStem: 141 132<230 380 230 423 187 380> 682 20G<281 333 333 347.5> 752 159<213 364>
VStem: 0 613<13 22.5>
AnchorPoint: "Anchor-1" 304 877 basechar 0
AnchorPoint: "Anchor-0" 310 0 basechar 0
LayerCount: 2
Fore
SplineSet
173 897 m 0,0,1
 173 911 173 911 238 911 c 128,-1,2
 303 911 303 911 318 884 c 0,3,4
 330 863 330 863 342 842 c 128,-1,5
 354 821 354 821 361 810.5 c 128,-1,6
 368 800 368 800 373.5 790 c 0,7,8
 383 772.727272727 383 772.727272727 383 767 c 0,9,10
 383 752 383 752 352 752 c 0,11,12
 300 752 300 752 273.5 781 c 128,-1,13
 247 810 247 810 215.5 843.5 c 128,-1,14
 184 877 184 877 178.5 884 c 128,-1,15
 173 891 173 891 173 897 c 0,0,1
281 702 m 2,16,-1
 333 702 l 2,17,18
 382 702 382 702 390 681 c 2,19,-1
 610 38 l 2,20,21
 613 27.5 613 27.5 613 20 c 0,22,23
 613 -2 613 -2 563 -2 c 2,24,-1
 519 -2 l 2,25,26
 470 -2 470 -2 463 19 c 2,27,-1
 423 141 l 1,28,-1
 187 141 l 1,29,-1
 147 19 l 2,30,31
 140 -2 140 -2 101 -2 c 2,32,-1
 61 -2 l 2,33,34
 0 -2 0 -2 0 20 c 0,35,36
 0 24 0 24 4 38 c 2,37,-1
 224 681 l 2,38,39
 232 702 232 702 281 702 c 2,16,-1
308 515 m 1,40,-1
 304 515 l 1,41,42
 295 466 295 466 289 451 c 2,43,-1
 230 273 l 1,44,-1
 380 273 l 1,45,-1
 323 451 l 2,46,47
 316 471 316 471 308 515 c 1,40,-1
EndSplineSet
Position2: "'cpsp' Capital Spacing lookup 0 subtable" dx=5 dy=0 dh=10 dv=0
EndChar

StartChar: Ahookabove
Encoding: 7842 7842 18
Width: 613
GlyphClass: 2
Flags: MW
HStem: 141 132<230 380 230 423 187 380> 682 20G<281 333 333 347.5> 867 61<302.5 320>
VStem: 344 87<830 852>
AnchorPoint: "Anchor-1" 308 877 basechar 0
AnchorPoint: "Anchor-0" 310 0 basechar 0
LayerCount: 2
Fore
SplineSet
310.5 802.5 m 128,-1,1
 344 828 344 828 344 841.5 c 128,-1,2
 344 855 344 855 334.5 861 c 128,-1,3
 325 867 325 867 312 867 c 128,-1,4
 299 867 299 867 286 861 c 128,-1,5
 273 855 273 855 268.5 855 c 128,-1,6
 264 855 264 855 252 870.5 c 128,-1,7
 240 886 240 886 240 896.5 c 128,-1,8
 240 907 240 907 267 917.5 c 128,-1,9
 294 928 294 928 320 928 c 0,10,11
 373 928 373 928 402 907 c 128,-1,12
 431 886 431 886 431 850 c 128,-1,13
 431 814 431 814 390.5 780.5 c 128,-1,14
 350 747 350 747 332 747 c 128,-1,15
 314 747 314 747 295.5 755.5 c 128,-1,16
 277 764 277 764 277 770.5 c 128,-1,0
 277 777 277 777 310.5 802.5 c 128,-1,1
281 702 m 2,17,-1
 333 702 l 2,18,19
 382 702 382 702 390 681 c 2,20,-1
 610 38 l 2,21,22
 613 27.5 613 27.5 613 20 c 0,23,24
 613 -2 613 -2 563 -2 c 2,25,-1
 519 -2 l 2,26,27
 470 -2 470 -2 463 19 c 2,28,-1
 423 141 l 1,29,-1
 187 141 l 1,30,-1
 147 19 l 2,31,32
 140 -2 140 -2 101 -2 c 2,33,-1
 61 -2 l 2,34,35
 0 -2 0 -2 0 20 c 0,36,37
 0 24 0 24 4 38 c 2,38,-1
 224 681 l 2,39,40
 232 702 232 702 281 702 c 2,17,-1
308 515 m 1,41,-1
 304 515 l 1,42,43
 295 466 295 466 289 451 c 2,44,-1
 230 273 l 1,45,-1
 380 273 l 1,46,-1
 323 451 l 2,47,48
 316 471 316 471 308 515 c 1,41,-1
EndSplineSet
Position2: "'cpsp' Capital Spacing lookup 0 subtable" dx=5 dy=0 dh=10 dv=0
EndChar

StartChar: Amacron
Encoding: 256 256 19
Width: 613
GlyphClass: 2
Flags: MW
HStem: 141 132<230 380 230 423 187 380> 682 20G<281 333 333 347.5> 774 95<189.5 415 200 415>
VStem: 0 613<13 22.5>
AnchorPoint: "Anchor-1" 306 877 basechar 0
AnchorPoint: "Anchor-0" 310 0 basechar 0
LayerCount: 2
Fore
SplineSet
200 869 m 2,0,-1
 415 869 l 2,1,2
 445 869 445 869 445 829 c 2,3,-1
 445 814 l 2,4,5
 445 774 445 774 415 774 c 2,6,-1
 200 774 l 2,7,8
 170 774 170 774 170 814 c 2,9,-1
 170 829 l 2,10,11
 170 869 170 869 200 869 c 2,0,-1
281 702 m 2,12,-1
 333 702 l 2,13,14
 382 702 382 702 390 681 c 2,15,-1
 610 38 l 2,16,17
 613 27.5 613 27.5 613 20 c 0,18,19
 613 -2 613 -2 563 -2 c 2,20,-1
 519 -2 l 2,21,22
 470 -2 470 -2 463 19 c 2,23,-1
 423 141 l 1,24,-1
 187 141 l 1,25,-1
 147 19 l 2,26,27
 140 -2 140 -2 101 -2 c 2,28,-1
 61 -2 l 2,29,30
 0 -2 0 -2 0 20 c 0,31,32
 0 24 0 24 4 38 c 2,33,-1
 224 681 l 2,34,35
 232 702 232 702 281 702 c 2,12,-1
308 515 m 1,36,-1
 304 515 l 1,37,38
 295 466 295 466 289 451 c 2,39,-1
 230 273 l 1,40,-1
 380 273 l 1,41,-1
 323 451 l 2,42,43
 316 471 316 471 308 515 c 1,36,-1
EndSplineSet
Position2: "'cpsp' Capital Spacing lookup 0 subtable" dx=5 dy=0 dh=10 dv=0
EndChar

StartChar: Aogonek
Encoding: 260 260 20
Width: 613
GlyphClass: 2
Flags: MW
HStem: -183 70<591.5 611> 141 132<230 380 230 423 187 380> 682 20G<281 333 333 347.5>
VStem: 474 67<-86 -73>
AnchorPoint: "Anchor-1" 307 700 basechar 0
AnchorPoint: "Anchor-0" 486 -203 basechar 0
LayerCount: 2
Fore
SplineSet
652 -105 m 0,0,1
 674 -105 674 -105 674 -133 c 0,2,3
 674 -183 674 -183 592 -183 c 0,4,5
 555 -183 555 -183 529 -171.5 c 128,-1,6
 503 -160 503 -160 492.5 -142 c 0,7,8
 474 -110.285714286 474 -110.285714286 474 -81 c 0,9,10
 474 -27 474 -27 498 -1 c 1,11,12
 469 2 469 2 463 19 c 2,13,-1
 423 141 l 1,14,-1
 187 141 l 1,15,-1
 147 19 l 2,16,17
 140 -2 140 -2 101 -2 c 2,18,-1
 61 -2 l 2,19,20
 0 -2 0 -2 0 20 c 0,21,22
 0 24 0 24 4 38 c 2,23,-1
 224 681 l 2,24,25
 232 702 232 702 281 702 c 2,26,-1
 333 702 l 2,27,28
 382 702 382 702 390 681 c 2,29,-1
 610 38 l 2,30,31
 613 27.5 613 27.5 613 20 c 0,32,33
 613 -2 613 -2 563 -2 c 2,34,-1
 552 -2 l 1,35,-1
 552 -5 l 2,36,37
 552 -11 552 -11 546.5 -28.5 c 128,-1,38
 541 -46 541 -46 541 -62 c 0,39,40
 541 -113 541 -113 603 -113 c 0,41,42
 616 -113 616 -113 630 -109 c 128,-1,43
 644 -105 644 -105 652 -105 c 0,0,1
380 273 m 1,44,-1
 323 451 l 2,45,46
 316 471 316 471 308 515 c 1,47,-1
 304 515 l 1,48,49
 295 466 295 466 289 451 c 2,50,-1
 230 273 l 1,51,-1
 380 273 l 1,44,-1
EndSplineSet
Position2: "'cpsp' Capital Spacing lookup 0 subtable" dx=5 dy=0 dh=10 dv=0
EndChar

StartChar: Aring
Encoding: 197 197 21
Width: 613
GlyphClass: 2
Flags: MW
HStem: 141 132<230 380 230 423 187 380> 682 20G<281 333 333 347.5> 727 62<297 317 297 335> 862 64<297 317>
VStem: 208 63<815 835 815 854> 344 63<815 835>
AnchorPoint: "Anchor-1" 308 877 basechar 0
AnchorPoint: "Anchor-0" 310 0 basechar 0
LayerCount: 2
Fore
SplineSet
307 926 m 128,-1,1
 349 926 349 926 378 897 c 128,-1,2
 407 868 407 868 407 826 c 128,-1,3
 407 784 407 784 378 755.5 c 128,-1,4
 349 727 349 727 307 727 c 128,-1,5
 265 727 265 727 236.5 755.5 c 128,-1,6
 208 784 208 784 208 826 c 128,-1,7
 208 868 208 868 236.5 897 c 128,-1,0
 265 926 265 926 307 926 c 128,-1,1
307 862 m 128,-1,9
 292 862 292 862 281.5 851 c 128,-1,10
 271 840 271 840 271 825 c 128,-1,11
 271 810 271 810 281.5 799.5 c 128,-1,12
 292 789 292 789 307 789 c 128,-1,13
 322 789 322 789 333 799.5 c 128,-1,14
 344 810 344 810 344 825 c 128,-1,15
 344 840 344 840 333 851 c 128,-1,8
 322 862 322 862 307 862 c 128,-1,9
281 702 m 2,16,-1
 333 702 l 2,17,18
 382 702 382 702 390 681 c 2,19,-1
 610 38 l 2,20,21
 613 27.5 613 27.5 613 20 c 0,22,23
 613 -2 613 -2 563 -2 c 2,24,-1
 519 -2 l 2,25,26
 470 -2 470 -2 463 19 c 2,27,-1
 423 141 l 1,28,-1
 187 141 l 1,29,-1
 147 19 l 2,30,31
 140 -2 140 -2 101 -2 c 2,32,-1
 61 -2 l 2,33,34
 0 -2 0 -2 0 20 c 0,35,36
 0 24 0 24 4 38 c 2,37,-1
 224 681 l 2,38,39
 232 702 232 702 281 702 c 2,16,-1
308 515 m 1,40,-1
 304 515 l 1,41,42
 295 466 295 466 289 451 c 2,43,-1
 230 273 l 1,44,-1
 380 273 l 1,45,-1
 323 451 l 2,46,47
 316 471 316 471 308 515 c 1,40,-1
EndSplineSet
Position2: "'cpsp' Capital Spacing lookup 0 subtable" dx=5 dy=0 dh=10 dv=0
EndChar

StartChar: Aringacute
Encoding: 506 506 22
Width: 613
GlyphClass: 2
Flags: MW
HStem: 141 132<230 380 230 423 187 380> 732 64<297 317> 812 119<280 407>
VStem: 208 63<689 705 685 724> 344 63<688.5 705>
AnchorPoint: "Anchor-1" 308 747 basechar 0
AnchorPoint: "Anchor-0" 0 0 basechar 0
LayerCount: 2
Fore
SplineSet
292 812 m 0,0,1
 261 812 261 812 261 827 c 1,2,3
 279 869 279 869 302 904 c 0,4,5
 317 931 317 931 382 931 c 0,6,7
 447 931 447 931 447 917 c 0,8,9
 447 911 447 911 416 882.5 c 0,10,11
 385 854 385 854 367 837 c 0,12,13
 344 812 344 812 292 812 c 0,0,1
399 656 m 1,14,-1
 610 38 l 2,15,16
 613 27.5 613 27.5 613 20 c 0,17,18
 613 -2 613 -2 563 -2 c 2,19,-1
 519 -2 l 2,20,21
 470 -2 470 -2 463 19 c 2,22,-1
 423 141 l 1,23,-1
 187 141 l 1,24,-1
 147 19 l 2,25,26
 140 -2 140 -2 101 -2 c 2,27,-1
 61 -2 l 2,28,29
 0 -2 0 -2 0 20 c 0,30,31
 0 24 0 24 4 38 c 2,32,-1
 216 657 l 1,33,34
 208 676 208 676 208 696 c 0,35,36
 208 738 208 738 236.5 767 c 128,-1,37
 265 796 265 796 307 796 c 128,-1,38
 349 796 349 796 378 767 c 128,-1,39
 407 738 407 738 407 696 c 0,40,41
 407 675 407 675 399 656 c 1,14,-1
307 732 m 128,-1,43
 292 732 292 732 281.5 721 c 128,-1,44
 271 710 271 710 271 695 c 128,-1,45
 271 680 271 680 281.5 669.5 c 128,-1,46
 292 659 292 659 307 659 c 128,-1,47
 322 659 322 659 333 669.5 c 128,-1,48
 344 680 344 680 344 695 c 128,-1,49
 344 710 344 710 333 721 c 128,-1,42
 322 732 322 732 307 732 c 128,-1,43
380 273 m 1,50,-1
 323 451 l 2,51,52
 316 471 316 471 308 515 c 1,53,-1
 304 515 l 1,54,55
 295 466 295 466 289 451 c 2,56,-1
 230 273 l 1,57,-1
 380 273 l 1,50,-1
EndSplineSet
Position2: "'cpsp' Capital Spacing lookup 0 subtable" dx=5 dy=0 dh=10 dv=0
EndChar

StartChar: Atilde
Encoding: 195 195 23
Width: 613
GlyphClass: 2
Flags: MW
HStem: 141 132<230 380 230 423 187 380> 682 20G<281 333 333 347.5> 757 86<362.5 376.5> 784 86<228.5 244>
VStem: 0 613<13 22.5>
AnchorPoint: "Anchor-1" 306 877 basechar 0
AnchorPoint: "Anchor-0" 310 0 basechar 0
LayerCount: 2
Fore
SplineSet
146 829 m 0,0,1
 198 870 198 870 241 870 c 128,-1,2
 284 870 284 870 318.5 856.5 c 128,-1,3
 353 843 353 843 376.5 843 c 128,-1,4
 400 843 400 843 425 858 c 128,-1,5
 450 873 450 873 470 852 c 0,6,7
 489 830 489 830 462 798 c 0,8,9
 421 757 421 757 356 757 c 0,10,11
 322 757 322 757 290 770.5 c 128,-1,12
 258 784 258 784 234.5 784 c 128,-1,13
 211 784 211 784 186.5 771 c 128,-1,14
 162 758 162 758 142.5 782 c 128,-1,15
 123 806 123 806 146 829 c 0,0,1
281 702 m 2,16,-1
 333 702 l 2,17,18
 382 702 382 702 390 681 c 2,19,-1
 610 38 l 2,20,21
 613 27.5 613 27.5 613 20 c 0,22,23
 613 -2 613 -2 563 -2 c 2,24,-1
 519 -2 l 2,25,26
 470 -2 470 -2 463 19 c 2,27,-1
 423 141 l 1,28,-1
 187 141 l 1,29,-1
 147 19 l 2,30,31
 140 -2 140 -2 101 -2 c 2,32,-1
 61 -2 l 2,33,34
 0 -2 0 -2 0 20 c 0,35,36
 0 24 0 24 4 38 c 2,37,-1
 224 681 l 2,38,39
 232 702 232 702 281 702 c 2,16,-1
308 515 m 1,40,-1
 304 515 l 1,41,42
 295 466 295 466 289 451 c 2,43,-1
 230 273 l 1,44,-1
 380 273 l 1,45,-1
 323 451 l 2,46,47
 316 471 316 471 308 515 c 1,40,-1
EndSplineSet
Position2: "'cpsp' Capital Spacing lookup 0 subtable" dx=5 dy=0 dh=10 dv=0
EndChar

StartChar: AE
Encoding: 198 198 24
Width: 915
GlyphClass: 2
Flags: MW
HStem: 0 131<493 835 602 835 602 835> 141 132<270 424 270 448 205 424> 293 131<571 807 571 571> 569 131<517 834 517 517>
VStem: 1 864<13 50>
AnchorPoint: "Anchor-1" 458 700 basechar 0
AnchorPoint: "Anchor-0" 0 0 basechar 0
LayerCount: 2
Fore
SplineSet
370 700 m 2,0,-1
 834 700 l 2,1,2
 864 700 864 700 864 650 c 2,3,-1
 864 619 l 2,4,5
 864 569 864 569 834 569 c 2,6,-1
 517 569 l 1,7,-1
 545 424 l 1,8,-1
 807 424 l 2,9,10
 837 424 837 424 837 374 c 2,11,-1
 837 343 l 2,12,13
 837 293 837 293 807 293 c 2,14,-1
 571 293 l 1,15,-1
 602 131 l 1,16,-1
 835 131 l 2,17,18
 865 131 865 131 865 81 c 2,19,-1
 865 50 l 2,20,21
 865 0 865 0 835 0 c 2,22,-1
 504 0 l 2,23,24
 475 0 475 0 469 30 c 2,25,-1
 448 141 l 1,26,-1
 205 141 l 1,27,-1
 145 19 l 2,28,29
 134 -2 134 -2 99 -2 c 2,30,-1
 62 -2 l 2,31,32
 1 -2 1 -2 1 20 c 0,33,34
 1 30 1 30 5 38 c 2,35,-1
 326 673 l 2,36,37
 340 700 340 700 370 700 c 2,0,-1
387 537 m 1,38,-1
 359 455 l 1,39,-1
 270 273 l 1,40,-1
 424 273 l 1,41,-1
 391 454 l 1,42,-1
 391 537 l 1,43,-1
 387 537 l 1,38,-1
EndSplineSet
Position2: "'cpsp' Capital Spacing lookup 0 subtable" dx=5 dy=0 dh=10 dv=0
EndChar

StartChar: AEacute
Encoding: 508 508 25
Width: 915
GlyphClass: 2
Flags: MW
HStem: 0 131<493 835 602 835 602 835> 141 132<270 424 270 448 205 424> 293 131<571 807 571 571> 569 131<517 834 517 517> 752 159<407 558>
VStem: 1 864<13 50>
AnchorPoint: "Anchor-1" 464 877 basechar 0
AnchorPoint: "Anchor-0" 0 0 basechar 0
LayerCount: 2
Fore
SplineSet
453 884 m 0,0,1
 468 911 468 911 533 911 c 128,-1,2
 598 911 598 911 598 897 c 0,3,4
 598 891 598 891 592 883 c 128,-1,5
 586 875 586 875 568 856.5 c 128,-1,6
 550 838 550 838 543 830.5 c 128,-1,7
 536 823 536 823 522 807.5 c 128,-1,8
 508 792 508 792 494 777 c 0,9,10
 471 752 471 752 419 752 c 0,11,12
 388 752 388 752 388 767 c 0,13,14
 388 777.5 388 777.5 402.5 799.25 c 128,-1,15
 417 821 417 821 429 842 c 128,-1,16
 441 863 441 863 453 884 c 0,0,1
370 700 m 2,17,-1
 834 700 l 2,18,19
 864 700 864 700 864 650 c 2,20,-1
 864 619 l 2,21,22
 864 569 864 569 834 569 c 2,23,-1
 517 569 l 1,24,-1
 545 424 l 1,25,-1
 807 424 l 2,26,27
 837 424 837 424 837 374 c 2,28,-1
 837 343 l 2,29,30
 837 293 837 293 807 293 c 2,31,-1
 571 293 l 1,32,-1
 602 131 l 1,33,-1
 835 131 l 2,34,35
 865 131 865 131 865 81 c 2,36,-1
 865 50 l 2,37,38
 865 0 865 0 835 0 c 2,39,-1
 504 0 l 2,40,41
 475 0 475 0 469 30 c 2,42,-1
 448 141 l 1,43,-1
 205 141 l 1,44,-1
 145 19 l 2,45,46
 134 -2 134 -2 99 -2 c 2,47,-1
 62 -2 l 2,48,49
 1 -2 1 -2 1 20 c 0,50,51
 1 30 1 30 5 38 c 2,52,-1
 326 673 l 2,53,54
 340 700 340 700 370 700 c 2,17,-1
387 537 m 1,55,-1
 359 455 l 1,56,-1
 270 273 l 1,57,-1
 424 273 l 1,58,-1
 391 454 l 1,59,-1
 391 537 l 1,60,-1
 387 537 l 1,55,-1
EndSplineSet
Position2: "'cpsp' Capital Spacing lookup 0 subtable" dx=5 dy=0 dh=10 dv=0
EndChar

StartChar: B
Encoding: 66 66 26
Width: 593
GlyphClass: 2
Flags: MW
HStem: 0 131<95 321 223 321 223 321> 290 131<223 292 223 292 292 305> 570 130<223 223 223 294>
VStem: 69 154<131 290 421 570> 385 158<489 520.5> 413 158<186 238>
LayerCount: 2
Fore
SplineSet
109 700 m 2,0,-1
 307 700 l 2,1,2
 429 700 429 700 486 653 c 128,-1,3
 543 606 543 606 543 523 c 0,4,5
 543 473 543 473 512.5 431.5 c 128,-1,6
 482 390 482 390 435 371 c 1,7,-1
 436 367 l 1,8,9
 495 355 495 355 533 308 c 128,-1,10
 571 261 571 261 571 203 c 0,11,12
 571 105 571 105 508.5 52.5 c 128,-1,13
 446 0 446 0 321 0 c 2,14,-1
 109 0 l 2,15,16
 69 0 69 0 69 40 c 2,17,-1
 69 660 l 2,18,19
 69 700 69 700 109 700 c 2,0,-1
223 570 m 1,20,-1
 223 421 l 1,21,-1
 292 421 l 2,22,23
 336 421 336 421 360.5 442 c 128,-1,24
 385 463 385 463 385 496 c 0,25,26
 385 570 385 570 294 570 c 2,27,-1
 223 570 l 1,20,-1
223 290 m 1,28,-1
 223 131 l 1,29,-1
 321 131 l 2,30,31
 365 131 365 131 389 152 c 128,-1,32
 413 173 413 173 413 212 c 0,33,34
 413 290 413 290 305 290 c 2,35,-1
 223 290 l 1,28,-1
EndSplineSet
Position2: "'cpsp' Capital Spacing lookup 0 subtable" dx=5 dy=0 dh=10 dv=0
EndChar

StartChar: C
Encoding: 67 67 27
Width: 619
GlyphClass: 2
Flags: MW
HStem: -8 131<316.5 414> 576 132<317 423 268 423.5>
VStem: 45 158<276 426 276 471>
AnchorPoint: "Anchor-1" 368 700 basechar 0
AnchorPoint: "Anchor-0" 373 0 basechar 0
LayerCount: 2
Fore
SplineSet
379 708 m 0,0,1
 452 708 452 708 520 688 c 128,-1,2
 588 668 588 668 588 638 c 0,3,4
 588 616 588 616 564.5 580 c 128,-1,5
 541 544 541 544 523 544 c 0,6,7
 520 544 520 544 502.5 552 c 0,8,9
 450 576 450 576 376 576 c 0,10,11
 203 576 203 576 203 349.5 c 128,-1,12
 203 123 203 123 374 123 c 0,13,14
 446 123 446 123 512 153 c 0,15,16
 534 163 534 163 538 163 c 0,17,18
 559 163 559 163 578 128.5 c 128,-1,19
 597 94 597 94 597 76 c 0,20,21
 597 36 597 36 523 14 c 128,-1,22
 449 -8 449 -8 374 -8 c 0,23,24
 206 -8 206 -8 125.5 79.5 c 128,-1,25
 45 167 45 167 45 352 c 0,26,27
 45 708 45 708 379 708 c 0,0,1
EndSplineSet
Position2: "'cpsp' Capital Spacing lookup 0 subtable" dx=5 dy=0 dh=10 dv=0
EndChar

StartChar: Cacute
Encoding: 262 262 28
Width: 619
GlyphClass: 2
Flags: MW
HStem: -8 131<316.5 414> 576 132<317 423 268 423.5> 752 159<317 468>
VStem: 45 158<276 426 276 471>
AnchorPoint: "Anchor-1" 374 877 basechar 0
AnchorPoint: "Anchor-0" 373 0 basechar 0
LayerCount: 2
Fore
SplineSet
363 884 m 0,0,1
 378 911 378 911 443 911 c 128,-1,2
 508 911 508 911 508 897 c 0,3,4
 508 891 508 891 502 883 c 128,-1,5
 496 875 496 875 478 856.5 c 128,-1,6
 460 838 460 838 453 830.5 c 128,-1,7
 446 823 446 823 432 807.5 c 128,-1,8
 418 792 418 792 404 777 c 0,9,10
 381 752 381 752 329 752 c 0,11,12
 298 752 298 752 298 767 c 0,13,14
 298 777.5 298 777.5 312.5 799.25 c 128,-1,15
 327 821 327 821 339 842 c 128,-1,16
 351 863 351 863 363 884 c 0,0,1
379 708 m 0,17,18
 452 708 452 708 520 688 c 128,-1,19
 588 668 588 668 588 638 c 0,20,21
 588 616 588 616 564.5 580 c 128,-1,22
 541 544 541 544 523 544 c 0,23,24
 520 544 520 544 502.5 552 c 0,25,26
 450 576 450 576 376 576 c 0,27,28
 203 576 203 576 203 349.5 c 128,-1,29
 203 123 203 123 374 123 c 0,30,31
 446 123 446 123 512 153 c 0,32,33
 534 163 534 163 538 163 c 0,34,35
 559 163 559 163 578 128.5 c 128,-1,36
 597 94 597 94 597 76 c 0,37,38
 597 36 597 36 523 14 c 128,-1,39
 449 -8 449 -8 374 -8 c 0,40,41
 206 -8 206 -8 125.5 79.5 c 128,-1,42
 45 167 45 167 45 352 c 0,43,44
 45 708 45 708 379 708 c 0,17,18
EndSplineSet
Substitution2: "'locl' Localized Forms in Latin lookup 11 subtable" Cacute.loclPLK
Substitution2: "'aalt' Access All Alternates lookup 0 subtable" Cacute.loclPLK
Position2: "'cpsp' Capital Spacing lookup 0 subtable" dx=5 dy=0 dh=10 dv=0
EndChar

StartChar: Ccaron
Encoding: 268 268 29
Width: 619
GlyphClass: 2
Flags: MW
HStem: -8 131<316.5 414> 576 132<317 423 268 423.5> 749 146<251 363 251 374>
VStem: 45 158<276 426 276 471>
AnchorPoint: "Anchor-1" 369 877 basechar 0
AnchorPoint: "Anchor-0" 373 0 basechar 0
LayerCount: 2
Fore
SplineSet
464 895 m 2,0,-1
 486 895 l 2,1,2
 506 895 506 895 506 885 c 0,3,4
 506 879 506 879 500 870 c 2,5,-1
 435 768 l 2,6,7
 423 749 423 749 374 749 c 2,8,-1
 363 749 l 2,9,10
 314 749 314 749 302 768 c 2,11,-1
 237 870 l 2,12,13
 231 879 231 879 231 885 c 0,14,15
 231 895 231 895 251 895 c 2,16,-1
 273 895 l 2,17,18
 322 895 322 895 340 870 c 2,19,-1
 368 831 l 1,20,-1
 396 871 l 2,21,22
 412 895 412 895 464 895 c 2,0,-1
379 708 m 0,23,24
 452 708 452 708 520 688 c 128,-1,25
 588 668 588 668 588 638 c 0,26,27
 588 616 588 616 564.5 580 c 128,-1,28
 541 544 541 544 523 544 c 0,29,30
 520 544 520 544 502.5 552 c 0,31,32
 450 576 450 576 376 576 c 0,33,34
 203 576 203 576 203 349.5 c 128,-1,35
 203 123 203 123 374 123 c 0,36,37
 446 123 446 123 512 153 c 0,38,39
 534 163 534 163 538 163 c 0,40,41
 559 163 559 163 578 128.5 c 128,-1,42
 597 94 597 94 597 76 c 0,43,44
 597 36 597 36 523 14 c 128,-1,45
 449 -8 449 -8 374 -8 c 0,46,47
 206 -8 206 -8 125.5 79.5 c 128,-1,48
 45 167 45 167 45 352 c 0,49,50
 45 708 45 708 379 708 c 0,23,24
EndSplineSet
Position2: "'cpsp' Capital Spacing lookup 0 subtable" dx=5 dy=0 dh=10 dv=0
EndChar

StartChar: Ccedilla
Encoding: 199 199 30
Width: 619
GlyphClass: 2
Flags: MW
HStem: -212 73<327 356 326 394.5> -7 130<404 404> 576 132<317 423 268 423.5>
VStem: 45 158<276 426 276 471> 371 103<-127.5 -109.5>
AnchorPoint: "Anchor-1" 368 700 basechar 0
AnchorPoint: "Anchor-0" 351 -203 basechar 0
LayerCount: 2
Fore
SplineSet
597 76 m 0,0,1
 597 40 597 40 537.5 18.5 c 128,-1,2
 478 -3 478 -3 404 -7 c 1,3,-1
 397 -36 l 1,4,5
 428 -40 428 -40 451 -58.5 c 128,-1,6
 474 -77 474 -77 474 -112 c 0,7,8
 474 -212 474 -212 355 -212 c 0,9,10
 308 -212 308 -212 266 -198 c 128,-1,11
 224 -184 224 -184 224 -162 c 128,-1,12
 224 -140 224 -140 235.5 -129 c 128,-1,13
 247 -118 247 -118 256 -118 c 128,-1,14
 265 -118 265 -118 294.5 -128.5 c 128,-1,15
 324 -139 324 -139 347.5 -139 c 128,-1,16
 371 -139 371 -139 371 -122 c 0,17,18
 371 -109 371 -109 344.5 -97.5 c 128,-1,19
 318 -86 318 -86 318 -74 c 0,20,21
 318 -68 318 -68 338 -7 c 1,22,23
 189 2 189 2 117 89.5 c 128,-1,24
 45 177 45 177 45 352 c 0,25,26
 45 708 45 708 379 708 c 0,27,28
 452 708 452 708 520 688 c 128,-1,29
 588 668 588 668 588 638 c 0,30,31
 588 616 588 616 564.5 580 c 128,-1,32
 541 544 541 544 523 544 c 0,33,34
 520 544 520 544 502.5 552 c 0,35,36
 450 576 450 576 376 576 c 0,37,38
 203 576 203 576 203 349.5 c 128,-1,39
 203 123 203 123 374 123 c 0,40,41
 446 123 446 123 512 153 c 0,42,43
 534 163 534 163 538 163 c 0,44,45
 559 163 559 163 578 128.5 c 128,-1,46
 597 94 597 94 597 76 c 0,0,1
EndSplineSet
Position2: "'cpsp' Capital Spacing lookup 0 subtable" dx=5 dy=0 dh=10 dv=0
EndChar

StartChar: Ccircumflex
Encoding: 264 264 31
Width: 619
GlyphClass: 2
Flags: MW
HStem: -8 131<316.5 414> 576 132<317 423 268 423.5> 749 146<244 374 251 374 363 464 363 486>
VStem: 45 158<276 426 276 471>
AnchorPoint: "Anchor-1" 518 793 basechar 0
AnchorPoint: "Anchor-0" 373 0 basechar 0
LayerCount: 2
Fore
SplineSet
363 895 m 2,0,-1
 374 895 l 2,1,2
 423 895 423 895 435 876 c 2,3,-1
 500 774 l 2,4,5
 506 765 506 765 506 759 c 0,6,7
 506 749 506 749 486 749 c 2,8,-1
 464 749 l 2,9,10
 412 749 412 749 396 773 c 2,11,-1
 368 813 l 1,12,-1
 340 774 l 2,13,14
 322 749 322 749 273 749 c 2,15,-1
 251 749 l 2,16,17
 231 749 231 749 231 759 c 0,18,19
 231 765 231 765 237 774 c 2,20,-1
 302 876 l 2,21,22
 314 895 314 895 363 895 c 2,0,-1
379 708 m 0,23,24
 452 708 452 708 520 688 c 128,-1,25
 588 668 588 668 588 638 c 0,26,27
 588 616 588 616 564.5 580 c 128,-1,28
 541 544 541 544 523 544 c 0,29,30
 520 544 520 544 502.5 552 c 0,31,32
 450 576 450 576 376 576 c 0,33,34
 203 576 203 576 203 349.5 c 128,-1,35
 203 123 203 123 374 123 c 0,36,37
 446 123 446 123 512 153 c 0,38,39
 534 163 534 163 538 163 c 0,40,41
 559 163 559 163 578 128.5 c 128,-1,42
 597 94 597 94 597 76 c 0,43,44
 597 36 597 36 523 14 c 128,-1,45
 449 -8 449 -8 374 -8 c 0,46,47
 206 -8 206 -8 125.5 79.5 c 128,-1,48
 45 167 45 167 45 352 c 0,49,50
 45 708 45 708 379 708 c 0,23,24
EndSplineSet
Position2: "'cpsp' Capital Spacing lookup 0 subtable" dx=5 dy=0 dh=10 dv=0
EndChar

StartChar: Cdotaccent
Encoding: 266 266 32
Width: 619
GlyphClass: 2
Flags: MW
HStem: -8 131<316.5 414> 576 132<317 423 268 423.5> 755 124<347 389>
VStem: 45 158<276 426 276 471> 308 120<787 847 776.5 857.5>
AnchorPoint: "Anchor-1" 370 877 basechar 0
AnchorPoint: "Anchor-0" 373 0 basechar 0
LayerCount: 2
Fore
SplineSet
368 879 m 128,-1,1
 428 879 428 879 428 847 c 2,2,-1
 428 787 l 2,3,4
 428 755 428 755 368 755 c 128,-1,5
 308 755 308 755 308 787 c 2,6,-1
 308 847 l 2,7,0
 308 879 308 879 368 879 c 128,-1,1
379 708 m 0,8,9
 452 708 452 708 520 688 c 128,-1,10
 588 668 588 668 588 638 c 0,11,12
 588 616 588 616 564.5 580 c 128,-1,13
 541 544 541 544 523 544 c 0,14,15
 520 544 520 544 502.5 552 c 0,16,17
 450 576 450 576 376 576 c 0,18,19
 203 576 203 576 203 349.5 c 128,-1,20
 203 123 203 123 374 123 c 0,21,22
 446 123 446 123 512 153 c 0,23,24
 534 163 534 163 538 163 c 0,25,26
 559 163 559 163 578 128.5 c 128,-1,27
 597 94 597 94 597 76 c 0,28,29
 597 36 597 36 523 14 c 128,-1,30
 449 -8 449 -8 374 -8 c 0,31,32
 206 -8 206 -8 125.5 79.5 c 128,-1,33
 45 167 45 167 45 352 c 0,34,35
 45 708 45 708 379 708 c 0,8,9
EndSplineSet
Position2: "'cpsp' Capital Spacing lookup 0 subtable" dx=5 dy=0 dh=10 dv=0
EndChar

StartChar: D
Encoding: 68 68 33
Width: 695
GlyphClass: 2
Flags: MW
HStem: 0 131<95 333 224 333 224 333> 569 131<224 224 224 333>
VStem: 69 155<131 569 131 660 131 674> 495 158<279 421>
AnchorPoint: "Anchor-1" 333 700 basechar 0
AnchorPoint: "Anchor-0" 331 0 basechar 0
LayerCount: 2
Fore
SplineSet
109 700 m 2,0,-1
 333 700 l 2,1,2
 488 700 488 700 570.5 609.5 c 128,-1,3
 653 519 653 519 653 350 c 128,-1,4
 653 181 653 181 570.5 90.5 c 128,-1,5
 488 0 488 0 333 0 c 2,6,-1
 109 0 l 2,7,8
 69 0 69 0 69 40 c 2,9,-1
 69 660 l 2,10,11
 69 700 69 700 109 700 c 2,0,-1
224 569 m 1,12,-1
 224 131 l 1,13,-1
 333 131 l 2,14,15
 413 131 413 131 454 187 c 128,-1,16
 495 243 495 243 495 350 c 128,-1,17
 495 457 495 457 454 513 c 128,-1,18
 413 569 413 569 333 569 c 2,19,-1
 224 569 l 1,12,-1
EndSplineSet
Position2: "'cpsp' Capital Spacing lookup 0 subtable" dx=5 dy=0 dh=10 dv=0
EndChar

StartChar: DZ
Encoding: 497 497 34
Width: 1311
GlyphClass: 2
Flags: MW
HStem: 0 131<95 333 224 333 224 333 940 1245> 569 131<224 224 224 333 781 1059>
VStem: 69 155<131 569 131 660 131 674> 495 158<279 421>
AnchorPoint: "Anchor-1" 1003 700 basechar 0
AnchorPoint: "Anchor-0" 994 0 basechar 0
LayerCount: 2
Fore
SplineSet
109 700 m 2,0,-1
 333 700 l 2,1,2
 488 700 488 700 570.5 609.5 c 128,-1,3
 653 519 653 519 653 350 c 128,-1,4
 653 181 653 181 570.5 90.5 c 128,-1,5
 488 0 488 0 333 0 c 2,6,-1
 109 0 l 2,7,8
 69 0 69 0 69 40 c 2,9,-1
 69 660 l 2,10,11
 69 700 69 700 109 700 c 2,0,-1
781 700 m 2,12,-1
 1238 700 l 2,13,14
 1249 700 1249 700 1262 665 c 128,-1,15
 1275 630 1275 630 1275 616 c 0,16,17
 1275 602 1275 602 1274 600 c 2,18,-1
 940 131 l 1,19,-1
 1245 131 l 2,20,21
 1275 131 1275 131 1275 81 c 2,22,-1
 1275 50 l 2,23,24
 1275 0 1275 0 1245 0 c 2,25,-1
 761 0 l 2,26,27
 749 0 749 0 735.5 33.5 c 128,-1,28
 722 67 722 67 722 81 c 0,29,30
 722 95 722 95 724 99 c 2,31,-1
 1059 569 l 1,32,-1
 781 569 l 2,33,34
 751 569 751 569 751 619 c 2,35,-1
 751 650 l 2,36,37
 751 700 751 700 781 700 c 2,12,-1
224 569 m 1,38,-1
 224 131 l 1,39,-1
 333 131 l 2,40,41
 413 131 413 131 454 187 c 128,-1,42
 495 243 495 243 495 350 c 128,-1,43
 495 457 495 457 454 513 c 128,-1,44
 413 569 413 569 333 569 c 2,45,-1
 224 569 l 1,38,-1
EndSplineSet
Position2: "'cpsp' Capital Spacing lookup 0 subtable" dx=5 dy=0 dh=10 dv=0
EndChar

StartChar: DZcaron
Encoding: 452 452 35
Width: 1311
GlyphClass: 2
Flags: MW
HStem: 0 131<95 333 224 333 224 333 940 1245> 569 131<224 224 224 333 781 1059> 749 146<886 998 886 1009>
VStem: 69 155<131 569 131 660 131 674> 495 158<279 421>
AnchorPoint: "Anchor-1" 1004 877 basechar 0
AnchorPoint: "Anchor-0" 994 0 basechar 0
LayerCount: 2
Fore
SplineSet
1099 895 m 2,0,-1
 1121 895 l 2,1,2
 1141 895 1141 895 1141 885 c 0,3,4
 1141 879 1141 879 1135 870 c 2,5,-1
 1070 768 l 2,6,7
 1058 749 1058 749 1009 749 c 2,8,-1
 998 749 l 2,9,10
 949 749 949 749 937 768 c 2,11,-1
 872 870 l 2,12,13
 866 879 866 879 866 885 c 0,14,15
 866 895 866 895 886 895 c 2,16,-1
 908 895 l 2,17,18
 957 895 957 895 975 870 c 2,19,-1
 1003 831 l 1,20,-1
 1031 871 l 2,21,22
 1047 895 1047 895 1099 895 c 2,0,-1
109 700 m 2,23,-1
 333 700 l 2,24,25
 488 700 488 700 570.5 609.5 c 128,-1,26
 653 519 653 519 653 350 c 128,-1,27
 653 181 653 181 570.5 90.5 c 128,-1,28
 488 0 488 0 333 0 c 2,29,-1
 109 0 l 2,30,31
 69 0 69 0 69 40 c 2,32,-1
 69 660 l 2,33,34
 69 700 69 700 109 700 c 2,23,-1
781 700 m 2,35,-1
 1238 700 l 2,36,37
 1249 700 1249 700 1262 665 c 128,-1,38
 1275 630 1275 630 1275 616 c 0,39,40
 1275 602 1275 602 1274 600 c 2,41,-1
 940 131 l 1,42,-1
 1245 131 l 2,43,44
 1275 131 1275 131 1275 81 c 2,45,-1
 1275 50 l 2,46,47
 1275 0 1275 0 1245 0 c 2,48,-1
 761 0 l 2,49,50
 749 0 749 0 735.5 33.5 c 128,-1,51
 722 67 722 67 722 81 c 0,52,53
 722 95 722 95 724 99 c 2,54,-1
 1059 569 l 1,55,-1
 781 569 l 2,56,57
 751 569 751 569 751 619 c 2,58,-1
 751 650 l 2,59,60
 751 700 751 700 781 700 c 2,35,-1
224 569 m 1,61,-1
 224 131 l 1,62,-1
 333 131 l 2,63,64
 413 131 413 131 454 187 c 128,-1,65
 495 243 495 243 495 350 c 128,-1,66
 495 457 495 457 454 513 c 128,-1,67
 413 569 413 569 333 569 c 2,68,-1
 224 569 l 1,61,-1
EndSplineSet
Position2: "'cpsp' Capital Spacing lookup 0 subtable" dx=5 dy=0 dh=10 dv=0
EndChar

StartChar: Eth
Encoding: 208 208 36
Width: 696
GlyphClass: 2
Flags: MW
HStem: 0 131<97 335 226 335 226 335> 291 130<31.5 71 42 71 226 285> 569 131<226 226 226 335>
VStem: 71 155<131 291 131 291 131 291 421 569> 497 158<279 421>
LayerCount: 2
Fore
SplineSet
111 700 m 2,0,-1
 335 700 l 2,1,2
 490 700 490 700 572.5 609.5 c 128,-1,3
 655 519 655 519 655 350 c 128,-1,4
 655 181 655 181 572.5 90.5 c 128,-1,5
 490 0 490 0 335 0 c 2,6,-1
 111 0 l 2,7,8
 71 0 71 0 71 40 c 2,9,-1
 71 291 l 1,10,-1
 42 291 l 2,11,12
 12 291 12 291 12 341 c 2,13,-1
 12 371 l 2,14,15
 12 421 12 421 42 421 c 2,16,-1
 71 421 l 1,17,-1
 71 660 l 2,18,19
 71 700 71 700 111 700 c 2,0,-1
226 569 m 1,20,-1
 226 421 l 1,21,-1
 285 421 l 2,22,23
 315 421 315 421 315 371 c 2,24,-1
 315 341 l 2,25,26
 315 291 315 291 285 291 c 2,27,-1
 226 291 l 1,28,-1
 226 131 l 1,29,-1
 335 131 l 2,30,31
 415 131 415 131 456 187 c 128,-1,32
 497 243 497 243 497 350 c 128,-1,33
 497 457 497 457 456 513 c 128,-1,34
 415 569 415 569 335 569 c 2,35,-1
 226 569 l 1,20,-1
EndSplineSet
Position2: "'cpsp' Capital Spacing lookup 0 subtable" dx=5 dy=0 dh=10 dv=0
EndChar

StartChar: Dcaron
Encoding: 270 270 37
Width: 695
GlyphClass: 2
Flags: MW
HStem: 0 131<95 333 224 333 224 333> 569 131<224 224 224 333> 749 146<216 328 216 339>
VStem: 69 155<131 569 131 660 131 674> 495 158<279 421>
AnchorPoint: "Anchor-1" 334 877 basechar 0
AnchorPoint: "Anchor-0" 331 0 basechar 0
LayerCount: 2
Fore
SplineSet
429 895 m 2,0,-1
 451 895 l 2,1,2
 471 895 471 895 471 885 c 0,3,4
 471 879 471 879 465 870 c 2,5,-1
 400 768 l 2,6,7
 388 749 388 749 339 749 c 2,8,-1
 328 749 l 2,9,10
 279 749 279 749 267 768 c 2,11,-1
 202 870 l 2,12,13
 196 879 196 879 196 885 c 0,14,15
 196 895 196 895 216 895 c 2,16,-1
 238 895 l 2,17,18
 287 895 287 895 305 870 c 2,19,-1
 333 831 l 1,20,-1
 361 871 l 2,21,22
 377 895 377 895 429 895 c 2,0,-1
109 700 m 2,23,-1
 333 700 l 2,24,25
 488 700 488 700 570.5 609.5 c 128,-1,26
 653 519 653 519 653 350 c 128,-1,27
 653 181 653 181 570.5 90.5 c 128,-1,28
 488 0 488 0 333 0 c 2,29,-1
 109 0 l 2,30,31
 69 0 69 0 69 40 c 2,32,-1
 69 660 l 2,33,34
 69 700 69 700 109 700 c 2,23,-1
224 569 m 1,35,-1
 224 131 l 1,36,-1
 333 131 l 2,37,38
 413 131 413 131 454 187 c 128,-1,39
 495 243 495 243 495 350 c 128,-1,40
 495 457 495 457 454 513 c 128,-1,41
 413 569 413 569 333 569 c 2,42,-1
 224 569 l 1,35,-1
EndSplineSet
Position2: "'cpsp' Capital Spacing lookup 0 subtable" dx=5 dy=0 dh=10 dv=0
EndChar

StartChar: Dcroat
Encoding: 272 272 38
Width: 696
GlyphClass: 2
Flags: MW
HStem: 0 131<97 335 226 335 226 335> 291 130<31.5 71 42 71 226 285> 569 131<226 226 226 335>
VStem: 71 155<131 291 131 291 131 291 421 569> 497 158<279 421>
LayerCount: 2
Fore
SplineSet
111 700 m 2,0,-1
 335 700 l 2,1,2
 490 700 490 700 572.5 609.5 c 128,-1,3
 655 519 655 519 655 350 c 128,-1,4
 655 181 655 181 572.5 90.5 c 128,-1,5
 490 0 490 0 335 0 c 2,6,-1
 111 0 l 2,7,8
 71 0 71 0 71 40 c 2,9,-1
 71 291 l 1,10,-1
 42 291 l 2,11,12
 12 291 12 291 12 341 c 2,13,-1
 12 371 l 2,14,15
 12 421 12 421 42 421 c 2,16,-1
 71 421 l 1,17,-1
 71 660 l 2,18,19
 71 700 71 700 111 700 c 2,0,-1
226 569 m 1,20,-1
 226 421 l 1,21,-1
 285 421 l 2,22,23
 315 421 315 421 315 371 c 2,24,-1
 315 341 l 2,25,26
 315 291 315 291 285 291 c 2,27,-1
 226 291 l 1,28,-1
 226 131 l 1,29,-1
 335 131 l 2,30,31
 415 131 415 131 456 187 c 128,-1,32
 497 243 497 243 497 350 c 128,-1,33
 497 457 497 457 456 513 c 128,-1,34
 415 569 415 569 335 569 c 2,35,-1
 226 569 l 1,20,-1
EndSplineSet
Position2: "'cpsp' Capital Spacing lookup 0 subtable" dx=5 dy=0 dh=10 dv=0
EndChar

StartChar: Ddotbelow
Encoding: 7692 7692 39
Width: 695
GlyphClass: 2
Flags: MW
HStem: -204 124<312 354> 0 131<95 333 224 333 224 333> 569 131<224 224 224 333>
VStem: 69 155<131 569 131 660 131 674> 273 120<-172 -112 -182.5 -101.5> 495 158<279 421>
AnchorPoint: "Anchor-1" 335 -82 basechar 0
AnchorPoint: "Anchor-0" 334 -203 basechar 0
LayerCount: 2
Fore
SplineSet
109 700 m 2,0,-1
 333 700 l 2,1,2
 488 700 488 700 570.5 609.5 c 128,-1,3
 653 519 653 519 653 350 c 128,-1,4
 653 181 653 181 570.5 90.5 c 128,-1,5
 488 0 488 0 333 0 c 2,6,-1
 109 0 l 2,7,8
 69 0 69 0 69 40 c 2,9,-1
 69 660 l 2,10,11
 69 700 69 700 109 700 c 2,0,-1
224 569 m 1,12,-1
 224 131 l 1,13,-1
 333 131 l 2,14,15
 413 131 413 131 454 187 c 128,-1,16
 495 243 495 243 495 350 c 128,-1,17
 495 457 495 457 454 513 c 128,-1,18
 413 569 413 569 333 569 c 2,19,-1
 224 569 l 1,12,-1
333 -80 m 128,-1,21
 393 -80 393 -80 393 -112 c 2,22,-1
 393 -172 l 2,23,24
 393 -204 393 -204 333 -204 c 128,-1,25
 273 -204 273 -204 273 -172 c 2,26,-1
 273 -112 l 2,27,20
 273 -80 273 -80 333 -80 c 128,-1,21
EndSplineSet
Position2: "'cpsp' Capital Spacing lookup 0 subtable" dx=5 dy=0 dh=10 dv=0
EndChar

StartChar: Dz
Encoding: 498 498 40
Width: 1184
GlyphClass: 2
Flags: MW
HStem: 0 117<920 1125 920 1125> 406 117<757.5 1122 768 954> 569 131<224 224 224 333>
VStem: 69 155<131 569 131 660 131 674> 495 158<279 421>
AnchorPoint: "Anchor-1" 940 523 basechar 0
AnchorPoint: "Anchor-0" 936 0 basechar 0
LayerCount: 2
Fore
SplineSet
109 700 m 2,0,-1
 333 700 l 2,1,2
 488 700 488 700 570.5 609.5 c 128,-1,3
 653 519 653 519 653 350 c 128,-1,4
 653 181 653 181 570.5 90.5 c 128,-1,5
 488 0 488 0 333 0 c 2,6,-1
 109 0 l 2,7,8
 69 0 69 0 69 40 c 2,9,-1
 69 660 l 2,10,11
 69 700 69 700 109 700 c 2,0,-1
224 569 m 1,12,-1
 224 131 l 1,13,-1
 333 131 l 2,14,15
 413 131 413 131 454 187 c 128,-1,16
 495 243 495 243 495 350 c 128,-1,17
 495 457 495 457 454 513 c 128,-1,18
 413 569 413 569 333 569 c 2,19,-1
 224 569 l 1,12,-1
768 523 m 2,20,-1
 1122 523 l 2,21,22
 1130 523 1130 523 1140.5 495 c 128,-1,23
 1151 467 1151 467 1151 451.25 c 0,24,25
 1151 435.5 1151 435.5 1148 431 c 2,26,-1
 920 117 l 1,27,-1
 1125 117 l 2,28,29
 1155 117 1155 117 1155 67 c 2,30,-1
 1155 50 l 2,31,32
 1155 0 1155 0 1125 0 c 2,33,-1
 751 0 l 2,34,35
 742 0 742 0 732 27.5 c 128,-1,36
 722 55 722 55 722 70.5 c 0,37,38
 722 86 722 86 725 90 c 2,39,-1
 954 406 l 1,40,-1
 768 406 l 2,41,42
 738 406 738 406 738 456 c 2,43,-1
 738 473 l 2,44,45
 738 523 738 523 768 523 c 2,20,-1
EndSplineSet
Position2: "'cpsp' Capital Spacing lookup 0 subtable" dx=5 dy=0 dh=10 dv=0
EndChar

StartChar: Dzcaron
Encoding: 453 453 41
Width: 1184
GlyphClass: 2
Flags: MW
HStem: 0 117<920 1125 920 1125> 406 117<757.5 1122 768 954> 569 131<224 224 224 333> 572 146<823 935 823 946>
VStem: 69 155<131 569 131 660 131 674> 495 158<279 421>
AnchorPoint: "Anchor-1" 941 700 basechar 0
AnchorPoint: "Anchor-0" 936 0 basechar 0
LayerCount: 2
Fore
SplineSet
1036 718 m 2,0,-1
 1058 718 l 2,1,2
 1078 718 1078 718 1078 708 c 0,3,4
 1078 702 1078 702 1072 693 c 2,5,-1
 1007 591 l 2,6,7
 995 572 995 572 946 572 c 2,8,-1
 935 572 l 2,9,10
 886 572 886 572 874 591 c 2,11,-1
 809 693 l 2,12,13
 803 702 803 702 803 708 c 0,14,15
 803 718 803 718 823 718 c 2,16,-1
 845 718 l 2,17,18
 894 718 894 718 912 693 c 2,19,-1
 940 654 l 1,20,-1
 968 694 l 2,21,22
 984 718 984 718 1036 718 c 2,0,-1
109 700 m 2,23,-1
 333 700 l 2,24,25
 488 700 488 700 570.5 609.5 c 128,-1,26
 653 519 653 519 653 350 c 128,-1,27
 653 181 653 181 570.5 90.5 c 128,-1,28
 488 0 488 0 333 0 c 2,29,-1
 109 0 l 2,30,31
 69 0 69 0 69 40 c 2,32,-1
 69 660 l 2,33,34
 69 700 69 700 109 700 c 2,23,-1
224 569 m 1,35,-1
 224 131 l 1,36,-1
 333 131 l 2,37,38
 413 131 413 131 454 187 c 128,-1,39
 495 243 495 243 495 350 c 128,-1,40
 495 457 495 457 454 513 c 128,-1,41
 413 569 413 569 333 569 c 2,42,-1
 224 569 l 1,35,-1
768 523 m 2,43,-1
 1122 523 l 2,44,45
 1130 523 1130 523 1140.5 495 c 128,-1,46
 1151 467 1151 467 1151 451.25 c 0,47,48
 1151 435.5 1151 435.5 1148 431 c 2,49,-1
 920 117 l 1,50,-1
 1125 117 l 2,51,52
 1155 117 1155 117 1155 67 c 2,53,-1
 1155 50 l 2,54,55
 1155 0 1155 0 1125 0 c 2,56,-1
 751 0 l 2,57,58
 742 0 742 0 732 27.5 c 128,-1,59
 722 55 722 55 722 70.5 c 0,60,61
 722 86 722 86 725 90 c 2,62,-1
 954 406 l 1,63,-1
 768 406 l 2,64,65
 738 406 738 406 738 456 c 2,66,-1
 738 473 l 2,67,68
 738 523 738 523 768 523 c 2,43,-1
EndSplineSet
Position2: "'cpsp' Capital Spacing lookup 0 subtable" dx=5 dy=0 dh=10 dv=0
EndChar

StartChar: E
Encoding: 69 69 42
Width: 546
GlyphClass: 2
Flags: MW
HStem: 0 131<95 476 223 476 223 476> 293 131<223 448 223 448> 569 131<223 475 223 223>
VStem: 69 154<131 293 424 569>
AnchorPoint: "Anchor-1" 295 700 basechar 0
AnchorPoint: "Anchor-0" 287 0 basechar 0
LayerCount: 2
Fore
SplineSet
109 700 m 2,0,-1
 475 700 l 2,1,2
 505 700 505 700 505 650 c 2,3,-1
 505 619 l 2,4,5
 505 569 505 569 475 569 c 2,6,-1
 223 569 l 1,7,-1
 223 424 l 1,8,-1
 448 424 l 2,9,10
 478 424 478 424 478 374 c 2,11,-1
 478 343 l 2,12,13
 478 293 478 293 448 293 c 2,14,-1
 223 293 l 1,15,-1
 223 131 l 1,16,-1
 476 131 l 2,17,18
 506 131 506 131 506 81 c 2,19,-1
 506 50 l 2,20,21
 506 0 506 0 476 0 c 2,22,-1
 109 0 l 2,23,24
 69 0 69 0 69 40 c 2,25,-1
 69 660 l 2,26,27
 69 700 69 700 109 700 c 2,0,-1
EndSplineSet
Position2: "'cpsp' Capital Spacing lookup 0 subtable" dx=5 dy=0 dh=10 dv=0
EndChar

StartChar: Eacute
Encoding: 201 201 43
Width: 546
GlyphClass: 2
Flags: MW
HStem: 0 131<95 476 223 476 223 476> 293 131<223 448 223 448> 569 131<223 475 223 223> 752 159<244 395>
VStem: 69 154<131 293 424 569>
AnchorPoint: "Anchor-1" 301 877 basechar 0
AnchorPoint: "Anchor-0" 287 0 basechar 0
LayerCount: 2
Fore
SplineSet
290 884 m 0,0,1
 305 911 305 911 370 911 c 128,-1,2
 435 911 435 911 435 897 c 0,3,4
 435 891 435 891 429 883 c 128,-1,5
 423 875 423 875 405 856.5 c 128,-1,6
 387 838 387 838 380 830.5 c 128,-1,7
 373 823 373 823 359 807.5 c 128,-1,8
 345 792 345 792 331 777 c 0,9,10
 308 752 308 752 256 752 c 0,11,12
 225 752 225 752 225 767 c 0,13,14
 225 777.5 225 777.5 239.5 799.25 c 128,-1,15
 254 821 254 821 266 842 c 128,-1,16
 278 863 278 863 290 884 c 0,0,1
109 700 m 2,17,-1
 475 700 l 2,18,19
 505 700 505 700 505 650 c 2,20,-1
 505 619 l 2,21,22
 505 569 505 569 475 569 c 2,23,-1
 223 569 l 1,24,-1
 223 424 l 1,25,-1
 448 424 l 2,26,27
 478 424 478 424 478 374 c 2,28,-1
 478 343 l 2,29,30
 478 293 478 293 448 293 c 2,31,-1
 223 293 l 1,32,-1
 223 131 l 1,33,-1
 476 131 l 2,34,35
 506 131 506 131 506 81 c 2,36,-1
 506 50 l 2,37,38
 506 0 506 0 476 0 c 2,39,-1
 109 0 l 2,40,41
 69 0 69 0 69 40 c 2,42,-1
 69 660 l 2,43,44
 69 700 69 700 109 700 c 2,17,-1
EndSplineSet
Position2: "'cpsp' Capital Spacing lookup 0 subtable" dx=5 dy=0 dh=10 dv=0
EndChar

StartChar: Ebreve
Encoding: 276 276 44
Width: 546
GlyphClass: 2
Flags: MW
HStem: 0 131<95 476 223 476 223 476> 293 131<223 448 223 448> 569 131<223 475 223 223> 752 91<269.5 322 269.5 338.5>
VStem: 69 154<131 293 424 569>
AnchorPoint: "Anchor-1" 295 863 basechar 0
AnchorPoint: "Anchor-0" 287 0 basechar 0
LayerCount: 2
Fore
SplineSet
407 892 m 0,0,1
 442 892 442 892 442 864 c 0,2,3
 442 820 442 820 400 786 c 128,-1,4
 358 752 358 752 295 752 c 128,-1,5
 232 752 232 752 190 786 c 128,-1,6
 148 820 148 820 148 864 c 0,7,8
 148 892 148 892 183 892 c 0,9,10
 200 892 200 892 212.5 878 c 128,-1,11
 225 864 225 864 231 859 c 0,12,13
 250.2 843 250.2 843 285.1 843 c 128,-1,14
 320 843 320 843 338 849.5 c 128,-1,15
 356 856 356 856 361 860.5 c 128,-1,16
 366 865 366 865 378 878.5 c 128,-1,17
 390 892 390 892 407 892 c 0,0,1
109 700 m 2,18,-1
 475 700 l 2,19,20
 505 700 505 700 505 650 c 2,21,-1
 505 619 l 2,22,23
 505 569 505 569 475 569 c 2,24,-1
 223 569 l 1,25,-1
 223 424 l 1,26,-1
 448 424 l 2,27,28
 478 424 478 424 478 374 c 2,29,-1
 478 343 l 2,30,31
 478 293 478 293 448 293 c 2,32,-1
 223 293 l 1,33,-1
 223 131 l 1,34,-1
 476 131 l 2,35,36
 506 131 506 131 506 81 c 2,37,-1
 506 50 l 2,38,39
 506 0 506 0 476 0 c 2,40,-1
 109 0 l 2,41,42
 69 0 69 0 69 40 c 2,43,-1
 69 660 l 2,44,45
 69 700 69 700 109 700 c 2,18,-1
EndSplineSet
Position2: "'cpsp' Capital Spacing lookup 0 subtable" dx=5 dy=0 dh=10 dv=0
EndChar

StartChar: Ecaron
Encoding: 282 282 45
Width: 546
GlyphClass: 2
Flags: MW
HStem: 0 131<95 476 223 476 223 476> 293 131<223 448 223 448> 569 131<223 475 223 223> 749 146<178 290 178 301>
VStem: 69 154<131 293 424 569>
AnchorPoint: "Anchor-1" 296 877 basechar 0
AnchorPoint: "Anchor-0" 287 0 basechar 0
LayerCount: 2
Fore
SplineSet
391 895 m 2,0,-1
 413 895 l 2,1,2
 433 895 433 895 433 885 c 0,3,4
 433 879 433 879 427 870 c 2,5,-1
 362 768 l 2,6,7
 350 749 350 749 301 749 c 2,8,-1
 290 749 l 2,9,10
 241 749 241 749 229 768 c 2,11,-1
 164 870 l 2,12,13
 158 879 158 879 158 885 c 0,14,15
 158 895 158 895 178 895 c 2,16,-1
 200 895 l 2,17,18
 249 895 249 895 267 870 c 2,19,-1
 295 831 l 1,20,-1
 323 871 l 2,21,22
 339 895 339 895 391 895 c 2,0,-1
109 700 m 2,23,-1
 475 700 l 2,24,25
 505 700 505 700 505 650 c 2,26,-1
 505 619 l 2,27,28
 505 569 505 569 475 569 c 2,29,-1
 223 569 l 1,30,-1
 223 424 l 1,31,-1
 448 424 l 2,32,33
 478 424 478 424 478 374 c 2,34,-1
 478 343 l 2,35,36
 478 293 478 293 448 293 c 2,37,-1
 223 293 l 1,38,-1
 223 131 l 1,39,-1
 476 131 l 2,40,41
 506 131 506 131 506 81 c 2,42,-1
 506 50 l 2,43,44
 506 0 506 0 476 0 c 2,45,-1
 109 0 l 2,46,47
 69 0 69 0 69 40 c 2,48,-1
 69 660 l 2,49,50
 69 700 69 700 109 700 c 2,23,-1
EndSplineSet
Position2: "'cpsp' Capital Spacing lookup 0 subtable" dx=5 dy=0 dh=10 dv=0
EndChar

StartChar: Ecircumflex
Encoding: 202 202 46
Width: 546
GlyphClass: 2
Flags: MW
HStem: 0 131<95 476 223 476 223 476> 293 131<223 448 223 448> 569 131<223 475 223 223> 749 146<171 301 178 301 290 391 290 413>
VStem: 69 154<131 293 424 569>
AnchorPoint: "Anchor-1" 445 793 basechar 0
AnchorPoint: "Anchor-0" 287 0 basechar 0
LayerCount: 2
Fore
SplineSet
290 895 m 2,0,-1
 301 895 l 2,1,2
 350 895 350 895 362 876 c 2,3,-1
 427 774 l 2,4,5
 433 765 433 765 433 759 c 0,6,7
 433 749 433 749 413 749 c 2,8,-1
 391 749 l 2,9,10
 339 749 339 749 323 773 c 2,11,-1
 295 813 l 1,12,-1
 267 774 l 2,13,14
 249 749 249 749 200 749 c 2,15,-1
 178 749 l 2,16,17
 158 749 158 749 158 759 c 0,18,19
 158 765 158 765 164 774 c 2,20,-1
 229 876 l 2,21,22
 241 895 241 895 290 895 c 2,0,-1
109 700 m 2,23,-1
 475 700 l 2,24,25
 505 700 505 700 505 650 c 2,26,-1
 505 619 l 2,27,28
 505 569 505 569 475 569 c 2,29,-1
 223 569 l 1,30,-1
 223 424 l 1,31,-1
 448 424 l 2,32,33
 478 424 478 424 478 374 c 2,34,-1
 478 343 l 2,35,36
 478 293 478 293 448 293 c 2,37,-1
 223 293 l 1,38,-1
 223 131 l 1,39,-1
 476 131 l 2,40,41
 506 131 506 131 506 81 c 2,42,-1
 506 50 l 2,43,44
 506 0 506 0 476 0 c 2,45,-1
 109 0 l 2,46,47
 69 0 69 0 69 40 c 2,48,-1
 69 660 l 2,49,50
 69 700 69 700 109 700 c 2,23,-1
EndSplineSet
Position2: "'cpsp' Capital Spacing lookup 0 subtable" dx=5 dy=0 dh=10 dv=0
EndChar

StartChar: Ecircumflexacute
Encoding: 7870 7870 47
Width: 546
GlyphClass: 2
Flags: MW
HStem: 0 131<95 476 223 476 223 476> 293 131<223 448 223 448> 569 131<223 475 223 223> 840 55
VStem: 69 154<131 293 424 569>
AnchorPoint: "Anchor-1" 429 829 basechar 0
AnchorPoint: "Anchor-0" 287 0 basechar 0
LayerCount: 2
Fore
SplineSet
498 964 m 0,0,1
 538 964 538 964 538 940 c 0,2,3
 538 933 538 933 525.5 916 c 128,-1,4
 513 899 513 899 464 840 c 0,5,6
 449 825 449 825 409 825 c 0,7,8
 388 825 388 825 388 840 c 0,9,10
 388 843 388 843 423 937 c 0,11,12
 437 964 437 964 498 964 c 0,0,1
290 895 m 2,13,-1
 301 895 l 2,14,15
 341 895 341 895 352 876 c 2,16,-1
 412 774 l 2,17,18
 418 765 418 765 418 759 c 0,19,20
 418 749 418 749 398 749 c 2,21,-1
 376 749 l 2,22,23
 316 749 316 749 308 773 c 2,24,-1
 295 813 l 1,25,-1
 267 774 l 2,26,27
 249 749 249 749 200 749 c 2,28,-1
 178 749 l 2,29,30
 158 749 158 749 158 759 c 0,31,32
 158 765 158 765 164 774 c 2,33,-1
 229 876 l 2,34,35
 241 895 241 895 290 895 c 2,13,-1
109 700 m 2,36,-1
 475 700 l 2,37,38
 505 700 505 700 505 650 c 2,39,-1
 505 619 l 2,40,41
 505 569 505 569 475 569 c 2,42,-1
 223 569 l 1,43,-1
 223 424 l 1,44,-1
 448 424 l 2,45,46
 478 424 478 424 478 374 c 2,47,-1
 478 343 l 2,48,49
 478 293 478 293 448 293 c 2,50,-1
 223 293 l 1,51,-1
 223 131 l 1,52,-1
 476 131 l 2,53,54
 506 131 506 131 506 81 c 2,55,-1
 506 50 l 2,56,57
 506 0 506 0 476 0 c 2,58,-1
 109 0 l 2,59,60
 69 0 69 0 69 40 c 2,61,-1
 69 660 l 2,62,63
 69 700 69 700 109 700 c 2,36,-1
EndSplineSet
Position2: "'cpsp' Capital Spacing lookup 0 subtable" dx=5 dy=0 dh=10 dv=0
EndChar

StartChar: Ecircumflexdotbelow
Encoding: 7878 7878 48
Width: 546
GlyphClass: 2
Flags: MW
HStem: -204 124<268 310> 0 131<95 476 223 476 223 476> 293 131<223 448 223 448> 569 131<223 475 223 223> 749 146<171 301 178 301 290 391 290 413>
VStem: 69 154<131 293 424 569> 229 120<-172 -112 -182.5 -101.5>
AnchorPoint: "Anchor-1" 291 -82 basechar 0
AnchorPoint: "Anchor-0" 290 -203 basechar 0
LayerCount: 2
Fore
SplineSet
290 895 m 2,0,-1
 301 895 l 2,1,2
 350 895 350 895 362 876 c 2,3,-1
 427 774 l 2,4,5
 433 765 433 765 433 759 c 0,6,7
 433 749 433 749 413 749 c 2,8,-1
 391 749 l 2,9,10
 339 749 339 749 323 773 c 2,11,-1
 295 813 l 1,12,-1
 267 774 l 2,13,14
 249 749 249 749 200 749 c 2,15,-1
 178 749 l 2,16,17
 158 749 158 749 158 759 c 0,18,19
 158 765 158 765 164 774 c 2,20,-1
 229 876 l 2,21,22
 241 895 241 895 290 895 c 2,0,-1
109 700 m 2,23,-1
 475 700 l 2,24,25
 505 700 505 700 505 650 c 2,26,-1
 505 619 l 2,27,28
 505 569 505 569 475 569 c 2,29,-1
 223 569 l 1,30,-1
 223 424 l 1,31,-1
 448 424 l 2,32,33
 478 424 478 424 478 374 c 2,34,-1
 478 343 l 2,35,36
 478 293 478 293 448 293 c 2,37,-1
 223 293 l 1,38,-1
 223 131 l 1,39,-1
 476 131 l 2,40,41
 506 131 506 131 506 81 c 2,42,-1
 506 50 l 2,43,44
 506 0 506 0 476 0 c 2,45,-1
 109 0 l 2,46,47
 69 0 69 0 69 40 c 2,48,-1
 69 660 l 2,49,50
 69 700 69 700 109 700 c 2,23,-1
289 -80 m 128,-1,52
 349 -80 349 -80 349 -112 c 2,53,-1
 349 -172 l 2,54,55
 349 -204 349 -204 289 -204 c 128,-1,56
 229 -204 229 -204 229 -172 c 2,57,-1
 229 -112 l 2,58,51
 229 -80 229 -80 289 -80 c 128,-1,52
EndSplineSet
Position2: "'cpsp' Capital Spacing lookup 0 subtable" dx=5 dy=0 dh=10 dv=0
EndChar

StartChar: Ecircumflexgrave
Encoding: 7872 7872 49
Width: 546
GlyphClass: 2
Flags: MW
HStem: 0 131<95 476 223 476 223 476> 293 131<223 448 223 448> 569 131<223 475 223 223> 749 146<171 301 178 301 290 376 290 398> 824 139<347 461>
VStem: 69 154<131 293 424 569>
AnchorPoint: "Anchor-1" 429 829 basechar 0
AnchorPoint: "Anchor-0" 287 0 basechar 0
LayerCount: 2
Fore
SplineSet
362 963 m 0,0,1
 435 963 435 963 447 936 c 0,2,3
 480 854 480 854 480 839 c 128,-1,4
 480 824 480 824 444 824 c 0,5,6
 408 824 408 824 389.5 847 c 0,7,8
 371 870 371 870 348 899.5 c 0,9,10
 325 929 325 929 320 936 c 128,-1,11
 315 943 315 943 315 949 c 0,12,13
 315 963 315 963 362 963 c 0,0,1
290 895 m 2,14,-1
 301 895 l 2,15,16
 341 895 341 895 352 876 c 2,17,-1
 412 774 l 2,18,19
 418 765 418 765 418 759 c 0,20,21
 418 749 418 749 398 749 c 2,22,-1
 376 749 l 2,23,24
 316 749 316 749 308 773 c 2,25,-1
 295 813 l 1,26,-1
 267 774 l 2,27,28
 249 749 249 749 200 749 c 2,29,-1
 178 749 l 2,30,31
 158 749 158 749 158 759 c 0,32,33
 158 765 158 765 164 774 c 2,34,-1
 229 876 l 2,35,36
 241 895 241 895 290 895 c 2,14,-1
109 700 m 2,37,-1
 475 700 l 2,38,39
 505 700 505 700 505 650 c 2,40,-1
 505 619 l 2,41,42
 505 569 505 569 475 569 c 2,43,-1
 223 569 l 1,44,-1
 223 424 l 1,45,-1
 448 424 l 2,46,47
 478 424 478 424 478 374 c 2,48,-1
 478 343 l 2,49,50
 478 293 478 293 448 293 c 2,51,-1
 223 293 l 1,52,-1
 223 131 l 1,53,-1
 476 131 l 2,54,55
 506 131 506 131 506 81 c 2,56,-1
 506 50 l 2,57,58
 506 0 506 0 476 0 c 2,59,-1
 109 0 l 2,60,61
 69 0 69 0 69 40 c 2,62,-1
 69 660 l 2,63,64
 69 700 69 700 109 700 c 2,37,-1
EndSplineSet
Position2: "'cpsp' Capital Spacing lookup 0 subtable" dx=5 dy=0 dh=10 dv=0
EndChar

StartChar: Ecircumflexhookabove
Encoding: 7874 7874 50
Width: 546
GlyphClass: 2
Flags: MW
HStem: 0 131<95 476 223 476 223 476> 293 131<223 448 223 448> 569 131<223 475 223 223> 749 146<171 301 178 301 361.5 369.5 290 376 290 398> 895 70<361 444>
VStem: 69 154<131 293 424 569> 439 69<891 900.5>
AnchorPoint: "Anchor-1" 429 829 basechar 0
AnchorPoint: "Anchor-0" 287 0 basechar 0
LayerCount: 2
Fore
SplineSet
439 895 m 0,0,1
 439 912 439 912 418.5 912 c 128,-1,2
 398 912 398 912 382 903.5 c 128,-1,3
 366 895 366 895 365 895 c 0,4,5
 359 895 359 895 347 910.5 c 128,-1,6
 335 926 335 926 335 936.5 c 128,-1,7
 335 947 335 947 361.5 956 c 128,-1,8
 388 965 388 965 423 965 c 128,-1,9
 458 965 458 965 483 947 c 128,-1,10
 508 929 508 929 508 901 c 128,-1,11
 508 873 508 873 481 851.5 c 128,-1,12
 454 830 454 830 433.5 830 c 128,-1,13
 413 830 413 830 401 836 c 128,-1,14
 389 842 389 842 389 851 c 0,15,16
 389 859.571428571 389 859.571428571 421.5 873.5 c 0,17,18
 439 881 439 881 439 895 c 0,0,1
290 895 m 2,19,-1
 301 895 l 2,20,21
 341 895 341 895 352 876 c 2,22,-1
 412 774 l 2,23,24
 418 765 418 765 418 759 c 0,25,26
 418 749 418 749 398 749 c 2,27,-1
 376 749 l 2,28,29
 316 749 316 749 308 773 c 2,30,-1
 295 813 l 1,31,-1
 267 774 l 2,32,33
 249 749 249 749 200 749 c 2,34,-1
 178 749 l 2,35,36
 158 749 158 749 158 759 c 0,37,38
 158 765 158 765 164 774 c 2,39,-1
 229 876 l 2,40,41
 241 895 241 895 290 895 c 2,19,-1
109 700 m 2,42,-1
 475 700 l 2,43,44
 505 700 505 700 505 650 c 2,45,-1
 505 619 l 2,46,47
 505 569 505 569 475 569 c 2,48,-1
 223 569 l 1,49,-1
 223 424 l 1,50,-1
 448 424 l 2,51,52
 478 424 478 424 478 374 c 2,53,-1
 478 343 l 2,54,55
 478 293 478 293 448 293 c 2,56,-1
 223 293 l 1,57,-1
 223 131 l 1,58,-1
 476 131 l 2,59,60
 506 131 506 131 506 81 c 2,61,-1
 506 50 l 2,62,63
 506 0 506 0 476 0 c 2,64,-1
 109 0 l 2,65,66
 69 0 69 0 69 40 c 2,67,-1
 69 660 l 2,68,69
 69 700 69 700 109 700 c 2,42,-1
EndSplineSet
Position2: "'cpsp' Capital Spacing lookup 0 subtable" dx=5 dy=0 dh=10 dv=0
EndChar

StartChar: Ecircumflextilde
Encoding: 7876 7876 51
Width: 546
GlyphClass: 2
Flags: MW
HStem: 0 131<95 476 223 476 223 476> 293 131<223 448 223 448> 569 131<223 475 223 223> 749 122<171 301 178 301 290 391 290 413> 902 86<350.5 363.5> 929 86<228.5 243>
VStem: 69 154<131 293 424 569>
AnchorPoint: "Anchor-1" 426 837 basechar 0
AnchorPoint: "Anchor-0" 287 0 basechar 0
LayerCount: 2
Fore
SplineSet
247 1015 m 0,0,1
 279 1015 279 1015 310.5 1001.5 c 128,-1,2
 342 988 342 988 364 988 c 128,-1,3
 386 988 386 988 408.5 1003 c 128,-1,4
 431 1018 431 1018 448 996.5 c 128,-1,5
 465 975 465 975 441 943 c 1,6,7
 403 902 403 902 345 902 c 0,8,9
 313 902 313 902 284 915.5 c 128,-1,10
 255 929 255 929 234 929 c 128,-1,11
 213 929 213 929 190.5 916 c 128,-1,12
 168 903 168 903 150.5 927 c 128,-1,13
 133 951 133 951 154 974 c 0,14,15
 200 1015 200 1015 247 1015 c 0,0,1
290 871 m 2,16,-1
 301 871 l 2,17,18
 344 871 344 871 362 852 c 1,19,-1
 427 774 l 1,20,21
 433 765 433 765 433 759 c 0,22,23
 433 749 433 749 413 749 c 2,24,-1
 391 749 l 2,25,26
 362 749 362 749 323 773 c 1,27,-1
 295 800 l 1,28,-1
 267 774 l 2,29,30
 265 773 265 773 256.5 767.5 c 128,-1,31
 248 762 248 762 245.5 761 c 128,-1,32
 243 760 243 760 236 756.5 c 128,-1,33
 229 753 229 753 224.5 752 c 0,34,35
 211 749 211 749 200 749 c 2,36,-1
 178 749 l 2,37,38
 158 749 158 749 158 759 c 0,39,40
 158 765 158 765 164 774 c 1,41,-1
 229 852 l 1,42,43
 247 871 247 871 290 871 c 2,16,-1
109 700 m 2,44,-1
 475 700 l 2,45,46
 505 700 505 700 505 650 c 2,47,-1
 505 619 l 2,48,49
 505 569 505 569 475 569 c 2,50,-1
 223 569 l 1,51,-1
 223 424 l 1,52,-1
 448 424 l 2,53,54
 478 424 478 424 478 374 c 2,55,-1
 478 343 l 2,56,57
 478 293 478 293 448 293 c 2,58,-1
 223 293 l 1,59,-1
 223 131 l 1,60,-1
 476 131 l 2,61,62
 506 131 506 131 506 81 c 2,63,-1
 506 50 l 2,64,65
 506 0 506 0 476 0 c 2,66,-1
 109 0 l 2,67,68
 69 0 69 0 69 40 c 2,69,-1
 69 660 l 2,70,71
 69 700 69 700 109 700 c 2,44,-1
EndSplineSet
Position2: "'cpsp' Capital Spacing lookup 0 subtable" dx=5 dy=0 dh=10 dv=0
EndChar

StartChar: Edieresis
Encoding: 203 203 52
Width: 546
GlyphClass: 2
Flags: MW
HStem: 0 131<95 476 223 476 223 476> 293 131<223 448 223 448> 569 131<223 475 223 223> 755 124<184 226 364 406>
VStem: 69 154<131 293 424 569> 145 120<787 847 776.5 857.5> 325 120<787 847 776.5 857.5>
AnchorPoint: "Anchor-1" 301 877 basechar 0
AnchorPoint: "Anchor-0" 287 0 basechar 0
LayerCount: 2
Fore
SplineSet
205 879 m 128,-1,1
 265 879 265 879 265 847 c 2,2,-1
 265 787 l 2,3,4
 265 755 265 755 205 755 c 128,-1,5
 145 755 145 755 145 787 c 2,6,-1
 145 847 l 2,7,0
 145 879 145 879 205 879 c 128,-1,1
385 879 m 128,-1,9
 445 879 445 879 445 847 c 2,10,-1
 445 787 l 2,11,12
 445 755 445 755 385 755 c 128,-1,13
 325 755 325 755 325 787 c 2,14,-1
 325 847 l 2,15,8
 325 879 325 879 385 879 c 128,-1,9
109 700 m 2,16,-1
 475 700 l 2,17,18
 505 700 505 700 505 650 c 2,19,-1
 505 619 l 2,20,21
 505 569 505 569 475 569 c 2,22,-1
 223 569 l 1,23,-1
 223 424 l 1,24,-1
 448 424 l 2,25,26
 478 424 478 424 478 374 c 2,27,-1
 478 343 l 2,28,29
 478 293 478 293 448 293 c 2,30,-1
 223 293 l 1,31,-1
 223 131 l 1,32,-1
 476 131 l 2,33,34
 506 131 506 131 506 81 c 2,35,-1
 506 50 l 2,36,37
 506 0 506 0 476 0 c 2,38,-1
 109 0 l 2,39,40
 69 0 69 0 69 40 c 2,41,-1
 69 660 l 2,42,43
 69 700 69 700 109 700 c 2,16,-1
EndSplineSet
Position2: "'cpsp' Capital Spacing lookup 0 subtable" dx=5 dy=0 dh=10 dv=0
EndChar

StartChar: Edotaccent
Encoding: 278 278 53
Width: 546
GlyphClass: 2
Flags: MW
HStem: 0 131<95 476 223 476 223 476> 293 131<223 448 223 448> 569 131<223 475 223 223> 755 124<274 316>
VStem: 69 154<131 293 424 569> 235 120<787 847 776.5 857.5>
AnchorPoint: "Anchor-1" 297 877 basechar 0
AnchorPoint: "Anchor-0" 287 0 basechar 0
LayerCount: 2
Fore
SplineSet
295 879 m 128,-1,1
 355 879 355 879 355 847 c 2,2,-1
 355 787 l 2,3,4
 355 755 355 755 295 755 c 128,-1,5
 235 755 235 755 235 787 c 2,6,-1
 235 847 l 2,7,0
 235 879 235 879 295 879 c 128,-1,1
109 700 m 2,8,-1
 475 700 l 2,9,10
 505 700 505 700 505 650 c 2,11,-1
 505 619 l 2,12,13
 505 569 505 569 475 569 c 2,14,-1
 223 569 l 1,15,-1
 223 424 l 1,16,-1
 448 424 l 2,17,18
 478 424 478 424 478 374 c 2,19,-1
 478 343 l 2,20,21
 478 293 478 293 448 293 c 2,22,-1
 223 293 l 1,23,-1
 223 131 l 1,24,-1
 476 131 l 2,25,26
 506 131 506 131 506 81 c 2,27,-1
 506 50 l 2,28,29
 506 0 506 0 476 0 c 2,30,-1
 109 0 l 2,31,32
 69 0 69 0 69 40 c 2,33,-1
 69 660 l 2,34,35
 69 700 69 700 109 700 c 2,8,-1
EndSplineSet
Position2: "'cpsp' Capital Spacing lookup 0 subtable" dx=5 dy=0 dh=10 dv=0
EndChar

StartChar: Edotbelow
Encoding: 7864 7864 54
Width: 546
GlyphClass: 2
Flags: MW
HStem: -204 124<268 310> 0 131<95 476 223 476 223 476> 293 131<223 448 223 448> 569 131<223 475 223 223>
VStem: 69 154<131 293 424 569> 229 120<-172 -112 -182.5 -101.5>
AnchorPoint: "Anchor-1" 291 -82 basechar 0
AnchorPoint: "Anchor-0" 290 -203 basechar 0
LayerCount: 2
Fore
SplineSet
109 700 m 2,0,-1
 475 700 l 2,1,2
 505 700 505 700 505 650 c 2,3,-1
 505 619 l 2,4,5
 505 569 505 569 475 569 c 2,6,-1
 223 569 l 1,7,-1
 223 424 l 1,8,-1
 448 424 l 2,9,10
 478 424 478 424 478 374 c 2,11,-1
 478 343 l 2,12,13
 478 293 478 293 448 293 c 2,14,-1
 223 293 l 1,15,-1
 223 131 l 1,16,-1
 476 131 l 2,17,18
 506 131 506 131 506 81 c 2,19,-1
 506 50 l 2,20,21
 506 0 506 0 476 0 c 2,22,-1
 109 0 l 2,23,24
 69 0 69 0 69 40 c 2,25,-1
 69 660 l 2,26,27
 69 700 69 700 109 700 c 2,0,-1
289 -80 m 128,-1,29
 349 -80 349 -80 349 -112 c 2,30,-1
 349 -172 l 2,31,32
 349 -204 349 -204 289 -204 c 128,-1,33
 229 -204 229 -204 229 -172 c 2,34,-1
 229 -112 l 2,35,28
 229 -80 229 -80 289 -80 c 128,-1,29
EndSplineSet
Position2: "'cpsp' Capital Spacing lookup 0 subtable" dx=5 dy=0 dh=10 dv=0
EndChar

StartChar: Egrave
Encoding: 200 200 55
Width: 546
GlyphClass: 2
Flags: MW
HStem: 0 131<95 476 223 476 223 476> 293 131<223 448 223 448> 569 131<223 475 223 223> 752 159<201 352>
VStem: 69 154<131 293 424 569>
AnchorPoint: "Anchor-1" 292 877 basechar 0
AnchorPoint: "Anchor-0" 287 0 basechar 0
LayerCount: 2
Fore
SplineSet
161 897 m 0,0,1
 161 911 161 911 226 911 c 128,-1,2
 291 911 291 911 306 884 c 0,3,4
 318 863 318 863 330 842 c 128,-1,5
 342 821 342 821 349 810.5 c 128,-1,6
 356 800 356 800 361.5 790 c 0,7,8
 371 772.727272727 371 772.727272727 371 767 c 0,9,10
 371 752 371 752 340 752 c 0,11,12
 288 752 288 752 261.5 781 c 128,-1,13
 235 810 235 810 203.5 843.5 c 128,-1,14
 172 877 172 877 166.5 884 c 128,-1,15
 161 891 161 891 161 897 c 0,0,1
109 700 m 2,16,-1
 475 700 l 2,17,18
 505 700 505 700 505 650 c 2,19,-1
 505 619 l 2,20,21
 505 569 505 569 475 569 c 2,22,-1
 223 569 l 1,23,-1
 223 424 l 1,24,-1
 448 424 l 2,25,26
 478 424 478 424 478 374 c 2,27,-1
 478 343 l 2,28,29
 478 293 478 293 448 293 c 2,30,-1
 223 293 l 1,31,-1
 223 131 l 1,32,-1
 476 131 l 2,33,34
 506 131 506 131 506 81 c 2,35,-1
 506 50 l 2,36,37
 506 0 506 0 476 0 c 2,38,-1
 109 0 l 2,39,40
 69 0 69 0 69 40 c 2,41,-1
 69 660 l 2,42,43
 69 700 69 700 109 700 c 2,16,-1
EndSplineSet
Position2: "'cpsp' Capital Spacing lookup 0 subtable" dx=5 dy=0 dh=10 dv=0
EndChar

StartChar: Ehookabove
Encoding: 7866 7866 56
Width: 546
GlyphClass: 2
Flags: MW
HStem: 0 131<95 476 223 476 223 476> 293 131<223 448 223 448> 569 131<223 475 223 223> 867 61<290.5 308>
VStem: 69 154<131 293 424 569> 332 87<830 852>
AnchorPoint: "Anchor-1" 296 877 basechar 0
AnchorPoint: "Anchor-0" 287 0 basechar 0
LayerCount: 2
Fore
SplineSet
298.5 802.5 m 128,-1,1
 332 828 332 828 332 841.5 c 128,-1,2
 332 855 332 855 322.5 861 c 128,-1,3
 313 867 313 867 300 867 c 128,-1,4
 287 867 287 867 274 861 c 128,-1,5
 261 855 261 855 256.5 855 c 128,-1,6
 252 855 252 855 240 870.5 c 128,-1,7
 228 886 228 886 228 896.5 c 128,-1,8
 228 907 228 907 255 917.5 c 128,-1,9
 282 928 282 928 308 928 c 0,10,11
 361 928 361 928 390 907 c 128,-1,12
 419 886 419 886 419 850 c 128,-1,13
 419 814 419 814 378.5 780.5 c 128,-1,14
 338 747 338 747 320 747 c 128,-1,15
 302 747 302 747 283.5 755.5 c 128,-1,16
 265 764 265 764 265 770.5 c 128,-1,0
 265 777 265 777 298.5 802.5 c 128,-1,1
109 700 m 2,17,-1
 475 700 l 2,18,19
 505 700 505 700 505 650 c 2,20,-1
 505 619 l 2,21,22
 505 569 505 569 475 569 c 2,23,-1
 223 569 l 1,24,-1
 223 424 l 1,25,-1
 448 424 l 2,26,27
 478 424 478 424 478 374 c 2,28,-1
 478 343 l 2,29,30
 478 293 478 293 448 293 c 2,31,-1
 223 293 l 1,32,-1
 223 131 l 1,33,-1
 476 131 l 2,34,35
 506 131 506 131 506 81 c 2,36,-1
 506 50 l 2,37,38
 506 0 506 0 476 0 c 2,39,-1
 109 0 l 2,40,41
 69 0 69 0 69 40 c 2,42,-1
 69 660 l 2,43,44
 69 700 69 700 109 700 c 2,17,-1
EndSplineSet
Position2: "'cpsp' Capital Spacing lookup 0 subtable" dx=5 dy=0 dh=10 dv=0
EndChar

StartChar: Emacron
Encoding: 274 274 57
Width: 546
GlyphClass: 2
Flags: MW
HStem: 0 131<95 476 223 476 223 476> 293 131<223 448 223 448> 569 131<223 475 223 223> 774 95<177.5 403 188 403>
VStem: 69 154<131 293 424 569>
AnchorPoint: "Anchor-1" 294 877 basechar 0
AnchorPoint: "Anchor-0" 287 0 basechar 0
LayerCount: 2
Fore
SplineSet
188 869 m 2,0,-1
 403 869 l 2,1,2
 433 869 433 869 433 829 c 2,3,-1
 433 814 l 2,4,5
 433 774 433 774 403 774 c 2,6,-1
 188 774 l 2,7,8
 158 774 158 774 158 814 c 2,9,-1
 158 829 l 2,10,11
 158 869 158 869 188 869 c 2,0,-1
109 700 m 2,12,-1
 475 700 l 2,13,14
 505 700 505 700 505 650 c 2,15,-1
 505 619 l 2,16,17
 505 569 505 569 475 569 c 2,18,-1
 223 569 l 1,19,-1
 223 424 l 1,20,-1
 448 424 l 2,21,22
 478 424 478 424 478 374 c 2,23,-1
 478 343 l 2,24,25
 478 293 478 293 448 293 c 2,26,-1
 223 293 l 1,27,-1
 223 131 l 1,28,-1
 476 131 l 2,29,30
 506 131 506 131 506 81 c 2,31,-1
 506 50 l 2,32,33
 506 0 506 0 476 0 c 2,34,-1
 109 0 l 2,35,36
 69 0 69 0 69 40 c 2,37,-1
 69 660 l 2,38,39
 69 700 69 700 109 700 c 2,12,-1
EndSplineSet
Position2: "'cpsp' Capital Spacing lookup 0 subtable" dx=5 dy=0 dh=10 dv=0
EndChar

StartChar: Eogonek
Encoding: 280 280 58
Width: 546
GlyphClass: 2
Flags: MW
HStem: -183 70<512.5 532> 0 131<95 476 223 420 473 473 473 476> 293 131<223 448 223 448> 569 131<223 475 223 223>
VStem: 69 154<131 293 424 569> 395 67<-86 -72.5>
AnchorPoint: "Anchor-1" 295 700 basechar 0
AnchorPoint: "Anchor-0" 407 -203 basechar 0
LayerCount: 2
Fore
SplineSet
573 -105 m 0,0,1
 595 -105 595 -105 595 -133 c 0,2,3
 595 -183 595 -183 513 -183 c 0,4,5
 476 -183 476 -183 450 -171.5 c 128,-1,6
 424 -160 424 -160 413.5 -142 c 0,7,8
 395 -110.285714286 395 -110.285714286 395 -81 c 0,9,10
 395 -26 395 -26 420 0 c 1,11,-1
 109 0 l 2,12,13
 69 0 69 0 69 40 c 2,14,-1
 69 660 l 2,15,16
 69 700 69 700 109 700 c 2,17,-1
 475 700 l 2,18,19
 505 700 505 700 505 650 c 2,20,-1
 505 619 l 2,21,22
 505 569 505 569 475 569 c 2,23,-1
 223 569 l 1,24,-1
 223 424 l 1,25,-1
 448 424 l 2,26,27
 478 424 478 424 478 374 c 2,28,-1
 478 343 l 2,29,30
 478 293 478 293 448 293 c 2,31,-1
 223 293 l 1,32,-1
 223 131 l 1,33,-1
 476 131 l 2,34,35
 506 131 506 131 506 81 c 2,36,-1
 506 50 l 2,37,38
 506 0 506 0 476 0 c 2,39,-1
 473 0 l 1,40,-1
 473 -5 l 2,41,42
 473 -11 473 -11 467.5 -28.5 c 128,-1,43
 462 -46 462 -46 462 -62 c 0,44,45
 462 -113 462 -113 524 -113 c 0,46,47
 537 -113 537 -113 551 -109 c 128,-1,48
 565 -105 565 -105 573 -105 c 0,0,1
EndSplineSet
Position2: "'cpsp' Capital Spacing lookup 0 subtable" dx=5 dy=0 dh=10 dv=0
EndChar

StartChar: Etilde
Encoding: 7868 7868 59
Width: 546
GlyphClass: 2
Flags: MW
HStem: 0 131<95 476 223 476 223 476> 293 131<223 448 223 448> 569 131<223 475 223 223> 757 86<350.5 364.5> 784 86<216.5 232>
VStem: 69 154<131 293 424 569>
AnchorPoint: "Anchor-1" 294 877 basechar 0
AnchorPoint: "Anchor-0" 287 0 basechar 0
LayerCount: 2
Fore
SplineSet
134 829 m 0,0,1
 186 870 186 870 229 870 c 128,-1,2
 272 870 272 870 306.5 856.5 c 128,-1,3
 341 843 341 843 364.5 843 c 128,-1,4
 388 843 388 843 413 858 c 128,-1,5
 438 873 438 873 458 852 c 0,6,7
 477 830 477 830 450 798 c 0,8,9
 409 757 409 757 344 757 c 0,10,11
 310 757 310 757 278 770.5 c 128,-1,12
 246 784 246 784 222.5 784 c 128,-1,13
 199 784 199 784 174.5 771 c 128,-1,14
 150 758 150 758 130.5 782 c 128,-1,15
 111 806 111 806 134 829 c 0,0,1
109 700 m 2,16,-1
 475 700 l 2,17,18
 505 700 505 700 505 650 c 2,19,-1
 505 619 l 2,20,21
 505 569 505 569 475 569 c 2,22,-1
 223 569 l 1,23,-1
 223 424 l 1,24,-1
 448 424 l 2,25,26
 478 424 478 424 478 374 c 2,27,-1
 478 343 l 2,28,29
 478 293 478 293 448 293 c 2,30,-1
 223 293 l 1,31,-1
 223 131 l 1,32,-1
 476 131 l 2,33,34
 506 131 506 131 506 81 c 2,35,-1
 506 50 l 2,36,37
 506 0 506 0 476 0 c 2,38,-1
 109 0 l 2,39,40
 69 0 69 0 69 40 c 2,41,-1
 69 660 l 2,42,43
 69 700 69 700 109 700 c 2,16,-1
EndSplineSet
Position2: "'cpsp' Capital Spacing lookup 0 subtable" dx=5 dy=0 dh=10 dv=0
EndChar

StartChar: F
Encoding: 70 70 60
Width: 503
GlyphClass: 2
Flags: MW
HStem: 292 131<223 436 223 436> 569 131<223 443 223 223>
VStem: 69 154<30 292 423 569>
LayerCount: 2
Fore
SplineSet
109 700 m 2,0,-1
 443 700 l 2,1,2
 473 700 473 700 473 650 c 2,3,-1
 473 619 l 2,4,5
 473 569 473 569 443 569 c 2,6,-1
 223 569 l 1,7,-1
 223 423 l 1,8,-1
 436 423 l 2,9,10
 466 423 466 423 466 373 c 2,11,-1
 466 342 l 2,12,13
 466 292 466 292 436 292 c 2,14,-1
 223 292 l 1,15,-1
 223 30 l 2,16,17
 223 -2 223 -2 163 -2 c 2,18,-1
 129 -2 l 2,19,20
 69 -2 69 -2 69 30 c 2,21,-1
 69 660 l 2,22,23
 69 700 69 700 109 700 c 2,0,-1
EndSplineSet
Position2: "'cpsp' Capital Spacing lookup 0 subtable" dx=5 dy=0 dh=10 dv=0
EndChar

StartChar: G
Encoding: 71 71 61
Width: 672
GlyphClass: 2
Flags: MW
HStem: -8 131<316.5 388 316.5 409.5> 257 132<353.5 567 364 452> 576 132<317 423 268 423.5>
VStem: 45 158<276 426 276 471> 452 155<130 257 257 257>
AnchorPoint: "Anchor-1" 350 700 basechar 0
AnchorPoint: "Anchor-0" 355 0 basechar 0
LayerCount: 2
Fore
SplineSet
379 708 m 0,0,1
 452 708 452 708 522.5 687.5 c 128,-1,2
 593 667 593 667 593 638 c 0,3,4
 593 616 593 616 569.5 580 c 128,-1,5
 546 544 546 544 528 544 c 0,6,7
 525 544 525 544 506.5 552 c 0,8,9
 451 576 451 576 376 576 c 0,10,11
 203 576 203 576 203 349.5 c 128,-1,12
 203 123 203 123 374 123 c 0,13,14
 414 123 414 123 452 130 c 1,15,-1
 452 257 l 1,16,-1
 364 257 l 2,17,18
 334 257 334 257 334 307 c 2,19,-1
 334 339 l 2,20,21
 334 389 334 389 364 389 c 2,22,-1
 567 389 l 2,23,24
 607 389 607 389 607 349 c 2,25,-1
 607 71 l 2,26,27
 607 47 607 47 581.5 30 c 128,-1,28
 556 13 556 13 516 5.5 c 0,29,30
 444 -8 444 -8 374 -8 c 0,31,32
 206 -8 206 -8 125.5 79.5 c 128,-1,33
 45 167 45 167 45 352 c 0,34,35
 45 708 45 708 379 708 c 0,0,1
EndSplineSet
Position2: "'cpsp' Capital Spacing lookup 0 subtable" dx=5 dy=0 dh=10 dv=0
EndChar

StartChar: Gbreve
Encoding: 286 286 62
Width: 672
GlyphClass: 2
Flags: MW
HStem: -8 131<316.5 388 316.5 409.5> 257 132<353.5 567 364 452> 576 132<317 423 268 423.5> 752 91<324.5 377 324.5 393.5>
VStem: 45 158<276 426 276 471> 452 155<130 257 257 257>
AnchorPoint: "Anchor-1" 350 863 basechar 0
AnchorPoint: "Anchor-0" 355 0 basechar 0
LayerCount: 2
Fore
SplineSet
462 892 m 0,0,1
 497 892 497 892 497 864 c 0,2,3
 497 820 497 820 455 786 c 128,-1,4
 413 752 413 752 350 752 c 128,-1,5
 287 752 287 752 245 786 c 128,-1,6
 203 820 203 820 203 864 c 0,7,8
 203 892 203 892 238 892 c 0,9,10
 255 892 255 892 267.5 878 c 128,-1,11
 280 864 280 864 286 859 c 0,12,13
 305.2 843 305.2 843 340.1 843 c 128,-1,14
 375 843 375 843 393 849.5 c 128,-1,15
 411 856 411 856 416 860.5 c 128,-1,16
 421 865 421 865 433 878.5 c 128,-1,17
 445 892 445 892 462 892 c 0,0,1
379 708 m 0,18,19
 452 708 452 708 522.5 687.5 c 128,-1,20
 593 667 593 667 593 638 c 0,21,22
 593 616 593 616 569.5 580 c 128,-1,23
 546 544 546 544 528 544 c 0,24,25
 525 544 525 544 506.5 552 c 0,26,27
 451 576 451 576 376 576 c 0,28,29
 203 576 203 576 203 349.5 c 128,-1,30
 203 123 203 123 374 123 c 0,31,32
 414 123 414 123 452 130 c 1,33,-1
 452 257 l 1,34,-1
 364 257 l 2,35,36
 334 257 334 257 334 307 c 2,37,-1
 334 339 l 2,38,39
 334 389 334 389 364 389 c 2,40,-1
 567 389 l 2,41,42
 607 389 607 389 607 349 c 2,43,-1
 607 71 l 2,44,45
 607 47 607 47 581.5 30 c 128,-1,46
 556 13 556 13 516 5.5 c 0,47,48
 444 -8 444 -8 374 -8 c 0,49,50
 206 -8 206 -8 125.5 79.5 c 128,-1,51
 45 167 45 167 45 352 c 0,52,53
 45 708 45 708 379 708 c 0,18,19
EndSplineSet
Position2: "'cpsp' Capital Spacing lookup 0 subtable" dx=5 dy=0 dh=10 dv=0
EndChar

StartChar: Gcircumflex
Encoding: 284 284 63
Width: 672
GlyphClass: 2
Flags: MW
HStem: -8 131<316.5 388 316.5 409.5> 257 132<353.5 567 364 452> 576 132<317 423 268 423.5> 749 146<226 356 233 356 345 446 345 468>
VStem: 45 158<276 426 276 471> 452 155<130 257 257 257>
AnchorPoint: "Anchor-1" 500 793 basechar 0
AnchorPoint: "Anchor-0" 355 0 basechar 0
LayerCount: 2
Fore
SplineSet
345 895 m 2,0,-1
 356 895 l 2,1,2
 405 895 405 895 417 876 c 2,3,-1
 482 774 l 2,4,5
 488 765 488 765 488 759 c 0,6,7
 488 749 488 749 468 749 c 2,8,-1
 446 749 l 2,9,10
 394 749 394 749 378 773 c 2,11,-1
 350 813 l 1,12,-1
 322 774 l 2,13,14
 304 749 304 749 255 749 c 2,15,-1
 233 749 l 2,16,17
 213 749 213 749 213 759 c 0,18,19
 213 765 213 765 219 774 c 2,20,-1
 284 876 l 2,21,22
 296 895 296 895 345 895 c 2,0,-1
379 708 m 0,23,24
 452 708 452 708 522.5 687.5 c 128,-1,25
 593 667 593 667 593 638 c 0,26,27
 593 616 593 616 569.5 580 c 128,-1,28
 546 544 546 544 528 544 c 0,29,30
 525 544 525 544 506.5 552 c 0,31,32
 451 576 451 576 376 576 c 0,33,34
 203 576 203 576 203 349.5 c 128,-1,35
 203 123 203 123 374 123 c 0,36,37
 414 123 414 123 452 130 c 1,38,-1
 452 257 l 1,39,-1
 364 257 l 2,40,41
 334 257 334 257 334 307 c 2,42,-1
 334 339 l 2,43,44
 334 389 334 389 364 389 c 2,45,-1
 567 389 l 2,46,47
 607 389 607 389 607 349 c 2,48,-1
 607 71 l 2,49,50
 607 47 607 47 581.5 30 c 128,-1,51
 556 13 556 13 516 5.5 c 0,52,53
 444 -8 444 -8 374 -8 c 0,54,55
 206 -8 206 -8 125.5 79.5 c 128,-1,56
 45 167 45 167 45 352 c 0,57,58
 45 708 45 708 379 708 c 0,23,24
EndSplineSet
Position2: "'cpsp' Capital Spacing lookup 0 subtable" dx=5 dy=0 dh=10 dv=0
EndChar

StartChar: Gcommaaccent
Encoding: 290 290 64
Width: 672
GlyphClass: 2
Flags: MW
HStem: -240 189<300 367> -8 131<316.5 388 316.5 409.5> 257 132<353.5 567 364 452> 576 132<317 423 268 423.5>
VStem: 45 158<276 426 276 471> 288 129<-128.5 -82.5 -128.5 -81.5> 452 155<130 257 257 257>
AnchorPoint: "Anchor-1" 350 700 basechar 0
AnchorPoint: "Anchor-0" 355 -203 basechar 0
LayerCount: 2
Fore
SplineSet
379 708 m 0,0,1
 452 708 452 708 522.5 687.5 c 128,-1,2
 593 667 593 667 593 638 c 0,3,4
 593 616 593 616 569.5 580 c 128,-1,5
 546 544 546 544 528 544 c 0,6,7
 525 544 525 544 506.5 552 c 0,8,9
 451 576 451 576 376 576 c 0,10,11
 203 576 203 576 203 349.5 c 128,-1,12
 203 123 203 123 374 123 c 0,13,14
 414 123 414 123 452 130 c 1,15,-1
 452 257 l 1,16,-1
 364 257 l 2,17,18
 334 257 334 257 334 307 c 2,19,-1
 334 339 l 2,20,21
 334 389 334 389 364 389 c 2,22,-1
 567 389 l 2,23,24
 607 389 607 389 607 349 c 2,25,-1
 607 71 l 2,26,27
 607 47 607 47 581.5 30 c 128,-1,28
 556 13 556 13 516 5.5 c 0,29,30
 444 -8 444 -8 374 -8 c 0,31,32
 206 -8 206 -8 125.5 79.5 c 128,-1,33
 45 167 45 167 45 352 c 0,34,35
 45 708 45 708 379 708 c 0,0,1
348 -51 m 2,36,-1
 367 -51 l 2,37,38
 417 -51 417 -51 417 -95 c 0,39,40
 417 -142 417 -142 377.5 -191 c 128,-1,41
 338 -240 338 -240 309 -240 c 0,42,43
 293 -240 293 -240 278.5 -234.5 c 128,-1,44
 264 -229 264 -229 264 -218 c 0,45,46
 264 -217 264 -217 276 -180 c 128,-1,47
 288 -143 288 -143 288 -95 c 0,48,49
 288 -51 288 -51 348 -51 c 2,36,-1
EndSplineSet
Position2: "'cpsp' Capital Spacing lookup 0 subtable" dx=5 dy=0 dh=10 dv=0
EndChar

StartChar: Gdotaccent
Encoding: 288 288 65
Width: 672
GlyphClass: 2
Flags: MW
HStem: -8 131<316.5 388 316.5 409.5> 257 132<353.5 567 364 452> 576 132<317 423 268 423.5> 755 124<329 371>
VStem: 45 158<276 426 276 471> 290 120<787 847 776.5 857.5> 452 155<130 257 257 257>
AnchorPoint: "Anchor-1" 352 877 basechar 0
AnchorPoint: "Anchor-0" 355 0 basechar 0
LayerCount: 2
Fore
SplineSet
350 879 m 128,-1,1
 410 879 410 879 410 847 c 2,2,-1
 410 787 l 2,3,4
 410 755 410 755 350 755 c 128,-1,5
 290 755 290 755 290 787 c 2,6,-1
 290 847 l 2,7,0
 290 879 290 879 350 879 c 128,-1,1
379 708 m 0,8,9
 452 708 452 708 522.5 687.5 c 128,-1,10
 593 667 593 667 593 638 c 0,11,12
 593 616 593 616 569.5 580 c 128,-1,13
 546 544 546 544 528 544 c 0,14,15
 525 544 525 544 506.5 552 c 0,16,17
 451 576 451 576 376 576 c 0,18,19
 203 576 203 576 203 349.5 c 128,-1,20
 203 123 203 123 374 123 c 0,21,22
 414 123 414 123 452 130 c 1,23,-1
 452 257 l 1,24,-1
 364 257 l 2,25,26
 334 257 334 257 334 307 c 2,27,-1
 334 339 l 2,28,29
 334 389 334 389 364 389 c 2,30,-1
 567 389 l 2,31,32
 607 389 607 389 607 349 c 2,33,-1
 607 71 l 2,34,35
 607 47 607 47 581.5 30 c 128,-1,36
 556 13 556 13 516 5.5 c 0,37,38
 444 -8 444 -8 374 -8 c 0,39,40
 206 -8 206 -8 125.5 79.5 c 128,-1,41
 45 167 45 167 45 352 c 0,42,43
 45 708 45 708 379 708 c 0,8,9
EndSplineSet
Position2: "'cpsp' Capital Spacing lookup 0 subtable" dx=5 dy=0 dh=10 dv=0
EndChar

StartChar: H
Encoding: 72 72 66
Width: 733
GlyphClass: 2
Flags: MW
HStem: 291 132<239 509 239 509> 682 20G<144 179 179 200 569 604 604 625>
VStem: 84 155<30 291 423 670> 509 155<30 291 291 291 423 670>
AnchorPoint: "Anchor-1" 367 700 basechar 0
AnchorPoint: "Anchor-0" 381 0 basechar 0
LayerCount: 2
Fore
SplineSet
569 702 m 2,0,-1
 604 702 l 2,1,2
 664 702 664 702 664 670 c 2,3,-1
 664 30 l 2,4,5
 664 -2 664 -2 604 -2 c 2,6,-1
 569 -2 l 2,7,8
 509 -2 509 -2 509 30 c 2,9,-1
 509 291 l 1,10,-1
 239 291 l 1,11,-1
 239 30 l 2,12,13
 239 -2 239 -2 179 -2 c 2,14,-1
 144 -2 l 2,15,16
 84 -2 84 -2 84 30 c 2,17,-1
 84 670 l 2,18,19
 84 702 84 702 144 702 c 2,20,-1
 179 702 l 2,21,22
 239 702 239 702 239 670 c 2,23,-1
 239 423 l 1,24,-1
 509 423 l 1,25,-1
 509 670 l 2,26,27
 509 702 509 702 569 702 c 2,0,-1
EndSplineSet
Position2: "'cpsp' Capital Spacing lookup 0 subtable" dx=5 dy=0 dh=10 dv=0
EndChar

StartChar: Hbar
Encoding: 294 294 67
Width: 733
GlyphClass: 2
Flags: MW
HStem: 291 132<239 509 239 509> 476 95<49.5 84 60 84 239 509 664 675> 682 20G<144 179 179 200 569 604 604 625>
VStem: 84 155<30 291 423 476 571 670> 509 155<30 291 291 291 423 476 571 670>
AnchorPoint: "Anchor-1" 367 700 basechar 0
AnchorPoint: "Anchor-0" 381 0 basechar 0
LayerCount: 2
Fore
SplineSet
664 571 m 1,0,-1
 675 571 l 2,1,2
 705 571 705 571 705 531 c 2,3,-1
 705 516 l 2,4,5
 705 476 705 476 675 476 c 2,6,-1
 664 476 l 1,7,-1
 664 30 l 2,8,9
 664 -2 664 -2 604 -2 c 2,10,-1
 569 -2 l 2,11,12
 509 -2 509 -2 509 30 c 2,13,-1
 509 291 l 1,14,-1
 239 291 l 1,15,-1
 239 30 l 2,16,17
 239 -2 239 -2 179 -2 c 2,18,-1
 144 -2 l 2,19,20
 84 -2 84 -2 84 30 c 2,21,-1
 84 476 l 1,22,-1
 60 476 l 2,23,24
 30 476 30 476 30 516 c 2,25,-1
 30 531 l 2,26,27
 30 571 30 571 60 571 c 2,28,-1
 84 571 l 1,29,-1
 84 670 l 2,30,31
 84 702 84 702 144 702 c 2,32,-1
 179 702 l 2,33,34
 239 702 239 702 239 670 c 2,35,-1
 239 571 l 1,36,-1
 509 571 l 1,37,-1
 509 670 l 2,38,39
 509 702 509 702 569 702 c 2,40,-1
 604 702 l 2,41,42
 664 702 664 702 664 670 c 2,43,-1
 664 571 l 1,0,-1
509 476 m 1,44,-1
 239 476 l 1,45,-1
 239 423 l 1,46,-1
 509 423 l 1,47,-1
 509 476 l 1,44,-1
EndSplineSet
Position2: "'cpsp' Capital Spacing lookup 0 subtable" dx=5 dy=0 dh=10 dv=0
EndChar

StartChar: Hcircumflex
Encoding: 292 292 68
Width: 733
GlyphClass: 2
Flags: MW
HStem: 291 132<239 509 239 509> 682 20G<144 179 179 200 569 604 604 625> 749 146<243 373 250 373 362 463 362 485>
VStem: 84 155<30 291 423 670> 509 155<30 291 291 291 423 670>
AnchorPoint: "Anchor-1" 517 793 basechar 0
AnchorPoint: "Anchor-0" 381 0 basechar 0
LayerCount: 2
Fore
SplineSet
362 895 m 2,0,-1
 373 895 l 2,1,2
 422 895 422 895 434 876 c 2,3,-1
 499 774 l 2,4,5
 505 765 505 765 505 759 c 0,6,7
 505 749 505 749 485 749 c 2,8,-1
 463 749 l 2,9,10
 411 749 411 749 395 773 c 2,11,-1
 367 813 l 1,12,-1
 339 774 l 2,13,14
 321 749 321 749 272 749 c 2,15,-1
 250 749 l 2,16,17
 230 749 230 749 230 759 c 0,18,19
 230 765 230 765 236 774 c 2,20,-1
 301 876 l 2,21,22
 313 895 313 895 362 895 c 2,0,-1
569 702 m 2,23,-1
 604 702 l 2,24,25
 664 702 664 702 664 670 c 2,26,-1
 664 30 l 2,27,28
 664 -2 664 -2 604 -2 c 2,29,-1
 569 -2 l 2,30,31
 509 -2 509 -2 509 30 c 2,32,-1
 509 291 l 1,33,-1
 239 291 l 1,34,-1
 239 30 l 2,35,36
 239 -2 239 -2 179 -2 c 2,37,-1
 144 -2 l 2,38,39
 84 -2 84 -2 84 30 c 2,40,-1
 84 670 l 2,41,42
 84 702 84 702 144 702 c 2,43,-1
 179 702 l 2,44,45
 239 702 239 702 239 670 c 2,46,-1
 239 423 l 1,47,-1
 509 423 l 1,48,-1
 509 670 l 2,49,50
 509 702 509 702 569 702 c 2,23,-1
EndSplineSet
Position2: "'cpsp' Capital Spacing lookup 0 subtable" dx=5 dy=0 dh=10 dv=0
EndChar

StartChar: Hdotbelow
Encoding: 7716 7716 69
Width: 733
GlyphClass: 2
Flags: MW
HStem: -204 124<362 404> 291 132<239 509 239 509> 682 20G<144 179 179 200 569 604 604 625>
VStem: 84 155<30 291 423 670> 323 120<-172 -112 -182.5 -101.5> 509 155<30 291 291 291 423 670>
AnchorPoint: "Anchor-1" 385 -82 basechar 0
AnchorPoint: "Anchor-0" 384 -203 basechar 0
LayerCount: 2
Fore
SplineSet
569 702 m 2,0,-1
 604 702 l 2,1,2
 664 702 664 702 664 670 c 2,3,-1
 664 30 l 2,4,5
 664 -2 664 -2 604 -2 c 2,6,-1
 569 -2 l 2,7,8
 509 -2 509 -2 509 30 c 2,9,-1
 509 291 l 1,10,-1
 239 291 l 1,11,-1
 239 30 l 2,12,13
 239 -2 239 -2 179 -2 c 2,14,-1
 144 -2 l 2,15,16
 84 -2 84 -2 84 30 c 2,17,-1
 84 670 l 2,18,19
 84 702 84 702 144 702 c 2,20,-1
 179 702 l 2,21,22
 239 702 239 702 239 670 c 2,23,-1
 239 423 l 1,24,-1
 509 423 l 1,25,-1
 509 670 l 2,26,27
 509 702 509 702 569 702 c 2,0,-1
383 -80 m 128,-1,29
 443 -80 443 -80 443 -112 c 2,30,-1
 443 -172 l 2,31,32
 443 -204 443 -204 383 -204 c 128,-1,33
 323 -204 323 -204 323 -172 c 2,34,-1
 323 -112 l 2,35,28
 323 -80 323 -80 383 -80 c 128,-1,29
EndSplineSet
Position2: "'cpsp' Capital Spacing lookup 0 subtable" dx=5 dy=0 dh=10 dv=0
EndChar

StartChar: I
Encoding: 73 73 70
Width: 282
GlyphClass: 2
Flags: MW
HStem: 683 20G<123 158 158 179>
VStem: 63 155<30 670>
AnchorPoint: "Anchor-1" 141 700 basechar 0
AnchorPoint: "Anchor-0" 141 0 basechar 0
LayerCount: 2
Fore
SplineSet
123 703 m 2,0,-1
 158 703 l 2,1,2
 218 703 218 703 218 670 c 2,3,-1
 218 30 l 2,4,5
 218 -3 218 -3 158 -3 c 2,6,-1
 123 -3 l 2,7,8
 63 -3 63 -3 63 30 c 2,9,-1
 63 670 l 2,10,11
 63 703 63 703 123 703 c 2,0,-1
EndSplineSet
Position2: "'cpsp' Capital Spacing lookup 0 subtable" dx=5 dy=0 dh=10 dv=0
EndChar

StartChar: IJ
Encoding: 306 306 71
Width: 684
GlyphClass: 2
Flags: MW
HStem: -8 131<394 409 363 480.5> 683 20G<123 158 158 179 523 558 558 579>
VStem: 63 155<30 670> 463 155<227 670>
AnchorPoint: "Anchor-1" 543 700 basechar 0
AnchorPoint: "Anchor-0" 141 0 basechar 0
LayerCount: 2
Fore
SplineSet
123 703 m 2,0,-1
 158 703 l 2,1,2
 218 703 218 703 218 670 c 2,3,-1
 218 30 l 2,4,5
 218 -3 218 -3 158 -3 c 2,6,-1
 123 -3 l 2,7,8
 63 -3 63 -3 63 30 c 2,9,-1
 63 670 l 2,10,11
 63 703 63 703 123 703 c 2,0,-1
523 703 m 2,12,-1
 558 703 l 2,13,14
 618 703 618 703 618 670 c 2,15,-1
 618 202 l 2,16,17
 618 103 618 103 566 47.5 c 128,-1,18
 514 -8 514 -8 406 -8 c 0,19,20
 376.625 -8 376.625 -8 344.3125 -2.5 c 0,21,22
 282 8.10638297872 282 8.10638297872 282 38 c 0,23,24
 282 61 282 61 292.5 95 c 128,-1,25
 303 129 303 129 323 131 c 0,26,27
 325 131 325 131 342.5 127 c 128,-1,28
 360 123 360 123 379 123 c 0,29,30
 424 123 424 123 443.5 147.5 c 128,-1,31
 463 172 463 172 463 227 c 2,32,-1
 463 670 l 2,33,34
 463 703 463 703 523 703 c 2,12,-1
EndSplineSet
Position2: "'cpsp' Capital Spacing lookup 0 subtable" dx=5 dy=0 dh=10 dv=0
EndChar

StartChar: Iacute
Encoding: 205 205 72
Width: 282
GlyphClass: 2
Flags: MW
HStem: 683 20G<123 158 158 179> 752 159<90 241>
VStem: 63 155<30 670>
AnchorPoint: "Anchor-1" 147 877 basechar 0
AnchorPoint: "Anchor-0" 141 0 basechar 0
LayerCount: 2
Fore
SplineSet
136 884 m 0,0,1
 151 911 151 911 216 911 c 128,-1,2
 281 911 281 911 281 897 c 0,3,4
 281 891 281 891 275 883 c 128,-1,5
 269 875 269 875 251 856.5 c 128,-1,6
 233 838 233 838 226 830.5 c 128,-1,7
 219 823 219 823 205 807.5 c 128,-1,8
 191 792 191 792 177 777 c 0,9,10
 154 752 154 752 102 752 c 0,11,12
 71 752 71 752 71 767 c 0,13,14
 71 777.5 71 777.5 85.5 799.25 c 128,-1,15
 100 821 100 821 112 842 c 128,-1,16
 124 863 124 863 136 884 c 0,0,1
123 703 m 2,17,-1
 158 703 l 2,18,19
 218 703 218 703 218 670 c 2,20,-1
 218 30 l 2,21,22
 218 -3 218 -3 158 -3 c 2,23,-1
 123 -3 l 2,24,25
 63 -3 63 -3 63 30 c 2,26,-1
 63 670 l 2,27,28
 63 703 63 703 123 703 c 2,17,-1
EndSplineSet
Position2: "'cpsp' Capital Spacing lookup 0 subtable" dx=5 dy=0 dh=10 dv=0
EndChar

StartChar: Ibreve
Encoding: 300 300 73
Width: 282
GlyphClass: 2
Flags: MW
HStem: 683 20G<123 158 158 179> 752 91<115.5 168 115.5 184.5>
VStem: 63 155<30 670>
AnchorPoint: "Anchor-1" 141 863 basechar 0
AnchorPoint: "Anchor-0" 141 0 basechar 0
LayerCount: 2
Fore
SplineSet
253 892 m 0,0,1
 288 892 288 892 288 864 c 0,2,3
 288 820 288 820 246 786 c 128,-1,4
 204 752 204 752 141 752 c 128,-1,5
 78 752 78 752 36 786 c 128,-1,6
 -6 820 -6 820 -6 864 c 0,7,8
 -6 892 -6 892 29 892 c 0,9,10
 46 892 46 892 58.5 878 c 128,-1,11
 71 864 71 864 77 859 c 0,12,13
 96.2 843 96.2 843 131.1 843 c 128,-1,14
 166 843 166 843 184 849.5 c 128,-1,15
 202 856 202 856 207 860.5 c 128,-1,16
 212 865 212 865 224 878.5 c 128,-1,17
 236 892 236 892 253 892 c 0,0,1
123 703 m 2,18,-1
 158 703 l 2,19,20
 218 703 218 703 218 670 c 2,21,-1
 218 30 l 2,22,23
 218 -3 218 -3 158 -3 c 2,24,-1
 123 -3 l 2,25,26
 63 -3 63 -3 63 30 c 2,27,-1
 63 670 l 2,28,29
 63 703 63 703 123 703 c 2,18,-1
EndSplineSet
Position2: "'cpsp' Capital Spacing lookup 0 subtable" dx=5 dy=0 dh=10 dv=0
EndChar

StartChar: Icircumflex
Encoding: 206 206 74
Width: 282
GlyphClass: 2
Flags: MW
HStem: 683 20G<123 158 158 179> 749 146<16 146 23 146 135 236 135 258>
VStem: 63 155<30 670>
AnchorPoint: "Anchor-1" 290 793 basechar 0
AnchorPoint: "Anchor-0" 141 0 basechar 0
LayerCount: 2
Fore
SplineSet
135 895 m 2,0,-1
 146 895 l 2,1,2
 195 895 195 895 207 876 c 2,3,-1
 272 774 l 2,4,5
 278 765 278 765 278 759 c 0,6,7
 278 749 278 749 258 749 c 2,8,-1
 236 749 l 2,9,10
 184 749 184 749 168 773 c 2,11,-1
 140 813 l 1,12,-1
 112 774 l 2,13,14
 94 749 94 749 45 749 c 2,15,-1
 23 749 l 2,16,17
 3 749 3 749 3 759 c 0,18,19
 3 765 3 765 9 774 c 2,20,-1
 74 876 l 2,21,22
 86 895 86 895 135 895 c 2,0,-1
123 703 m 2,23,-1
 158 703 l 2,24,25
 218 703 218 703 218 670 c 2,26,-1
 218 30 l 2,27,28
 218 -3 218 -3 158 -3 c 2,29,-1
 123 -3 l 2,30,31
 63 -3 63 -3 63 30 c 2,32,-1
 63 670 l 2,33,34
 63 703 63 703 123 703 c 2,23,-1
EndSplineSet
Position2: "'cpsp' Capital Spacing lookup 0 subtable" dx=5 dy=0 dh=10 dv=0
EndChar

StartChar: Idieresis
Encoding: 207 207 75
Width: 282
GlyphClass: 2
Flags: MW
HStem: 683 20G<123 158 158 179> 755 124<30 72 210 252>
VStem: -9 120<787 847 776.5 857.5> 63 155<30 670> 171 120<787 847 776.5 857.5>
AnchorPoint: "Anchor-1" 147 877 basechar 0
AnchorPoint: "Anchor-0" 141 0 basechar 0
LayerCount: 2
Fore
SplineSet
51 879 m 128,-1,1
 111 879 111 879 111 847 c 2,2,-1
 111 787 l 2,3,4
 111 755 111 755 51 755 c 128,-1,5
 -9 755 -9 755 -9 787 c 2,6,-1
 -9 847 l 2,7,0
 -9 879 -9 879 51 879 c 128,-1,1
231 879 m 128,-1,9
 291 879 291 879 291 847 c 2,10,-1
 291 787 l 2,11,12
 291 755 291 755 231 755 c 128,-1,13
 171 755 171 755 171 787 c 2,14,-1
 171 847 l 2,15,8
 171 879 171 879 231 879 c 128,-1,9
123 703 m 2,16,-1
 158 703 l 2,17,18
 218 703 218 703 218 670 c 2,19,-1
 218 30 l 2,20,21
 218 -3 218 -3 158 -3 c 2,22,-1
 123 -3 l 2,23,24
 63 -3 63 -3 63 30 c 2,25,-1
 63 670 l 2,26,27
 63 703 63 703 123 703 c 2,16,-1
EndSplineSet
Position2: "'cpsp' Capital Spacing lookup 0 subtable" dx=5 dy=0 dh=10 dv=0
EndChar

StartChar: Idotaccent
Encoding: 304 304 76
Width: 282
GlyphClass: 2
Flags: MW
HStem: 683 20G<123 158 158 179> 755 124<120 162>
VStem: 63 155<30 670> 81 120<787 847 776.5 857.5>
AnchorPoint: "Anchor-1" 143 877 basechar 0
AnchorPoint: "Anchor-0" 141 0 basechar 0
LayerCount: 2
Fore
SplineSet
141 879 m 128,-1,1
 201 879 201 879 201 847 c 2,2,-1
 201 787 l 2,3,4
 201 755 201 755 141 755 c 128,-1,5
 81 755 81 755 81 787 c 2,6,-1
 81 847 l 2,7,0
 81 879 81 879 141 879 c 128,-1,1
123 703 m 2,8,-1
 158 703 l 2,9,10
 218 703 218 703 218 670 c 2,11,-1
 218 30 l 2,12,13
 218 -3 218 -3 158 -3 c 2,14,-1
 123 -3 l 2,15,16
 63 -3 63 -3 63 30 c 2,17,-1
 63 670 l 2,18,19
 63 703 63 703 123 703 c 2,8,-1
EndSplineSet
Position2: "'cpsp' Capital Spacing lookup 0 subtable" dx=5 dy=0 dh=10 dv=0
EndChar

StartChar: Idotbelow
Encoding: 7882 7882 77
Width: 282
GlyphClass: 2
Flags: MW
HStem: -204 124<122 164> 683 20G<123 158 158 179>
VStem: 63 155<30 670> 83 120<-172 -112 -182.5 -101.5>
AnchorPoint: "Anchor-1" 145 -82 basechar 0
AnchorPoint: "Anchor-0" 144 -203 basechar 0
LayerCount: 2
Fore
SplineSet
123 703 m 2,0,-1
 158 703 l 2,1,2
 218 703 218 703 218 670 c 2,3,-1
 218 30 l 2,4,5
 218 -3 218 -3 158 -3 c 2,6,-1
 123 -3 l 2,7,8
 63 -3 63 -3 63 30 c 2,9,-1
 63 670 l 2,10,11
 63 703 63 703 123 703 c 2,0,-1
143 -80 m 128,-1,13
 203 -80 203 -80 203 -112 c 2,14,-1
 203 -172 l 2,15,16
 203 -204 203 -204 143 -204 c 128,-1,17
 83 -204 83 -204 83 -172 c 2,18,-1
 83 -112 l 2,19,12
 83 -80 83 -80 143 -80 c 128,-1,13
EndSplineSet
Position2: "'cpsp' Capital Spacing lookup 0 subtable" dx=5 dy=0 dh=10 dv=0
EndChar

StartChar: Igrave
Encoding: 204 204 78
Width: 282
GlyphClass: 2
Flags: MW
HStem: 683 20G<123 158 158 179> 752 159<47 198>
VStem: 63 155<30 670>
AnchorPoint: "Anchor-1" 138 877 basechar 0
AnchorPoint: "Anchor-0" 141 0 basechar 0
LayerCount: 2
Fore
SplineSet
7 897 m 0,0,1
 7 911 7 911 72 911 c 128,-1,2
 137 911 137 911 152 884 c 0,3,4
 164 863 164 863 176 842 c 128,-1,5
 188 821 188 821 195 810.5 c 128,-1,6
 202 800 202 800 207.5 790 c 0,7,8
 217 772.727272727 217 772.727272727 217 767 c 0,9,10
 217 752 217 752 186 752 c 0,11,12
 134 752 134 752 107.5 781 c 128,-1,13
 81 810 81 810 49.5 843.5 c 128,-1,14
 18 877 18 877 12.5 884 c 128,-1,15
 7 891 7 891 7 897 c 0,0,1
123 703 m 2,16,-1
 158 703 l 2,17,18
 218 703 218 703 218 670 c 2,19,-1
 218 30 l 2,20,21
 218 -3 218 -3 158 -3 c 2,22,-1
 123 -3 l 2,23,24
 63 -3 63 -3 63 30 c 2,25,-1
 63 670 l 2,26,27
 63 703 63 703 123 703 c 2,16,-1
EndSplineSet
Position2: "'cpsp' Capital Spacing lookup 0 subtable" dx=5 dy=0 dh=10 dv=0
EndChar

StartChar: Ihookabove
Encoding: 7880 7880 79
Width: 282
GlyphClass: 2
Flags: MW
HStem: 683 20G<123 158 158 179> 867 61<136.5 154>
VStem: 63 155<30 670> 178 87<830 852>
AnchorPoint: "Anchor-1" 142 877 basechar 0
AnchorPoint: "Anchor-0" 141 0 basechar 0
LayerCount: 2
Fore
SplineSet
144.5 802.5 m 128,-1,1
 178 828 178 828 178 841.5 c 128,-1,2
 178 855 178 855 168.5 861 c 128,-1,3
 159 867 159 867 146 867 c 128,-1,4
 133 867 133 867 120 861 c 128,-1,5
 107 855 107 855 102.5 855 c 128,-1,6
 98 855 98 855 86 870.5 c 128,-1,7
 74 886 74 886 74 896.5 c 128,-1,8
 74 907 74 907 101 917.5 c 128,-1,9
 128 928 128 928 154 928 c 0,10,11
 207 928 207 928 236 907 c 128,-1,12
 265 886 265 886 265 850 c 128,-1,13
 265 814 265 814 224.5 780.5 c 128,-1,14
 184 747 184 747 166 747 c 128,-1,15
 148 747 148 747 129.5 755.5 c 128,-1,16
 111 764 111 764 111 770.5 c 128,-1,0
 111 777 111 777 144.5 802.5 c 128,-1,1
123 703 m 2,17,-1
 158 703 l 2,18,19
 218 703 218 703 218 670 c 2,20,-1
 218 30 l 2,21,22
 218 -3 218 -3 158 -3 c 2,23,-1
 123 -3 l 2,24,25
 63 -3 63 -3 63 30 c 2,26,-1
 63 670 l 2,27,28
 63 703 63 703 123 703 c 2,17,-1
EndSplineSet
Position2: "'cpsp' Capital Spacing lookup 0 subtable" dx=5 dy=0 dh=10 dv=0
EndChar

StartChar: Imacron
Encoding: 298 298 80
Width: 282
GlyphClass: 2
Flags: MW
HStem: 683 20G<123 158 158 179> 774 95<22.5 248 33 248>
VStem: 63 155<30 670>
AnchorPoint: "Anchor-1" 139 877 basechar 0
AnchorPoint: "Anchor-0" 141 0 basechar 0
LayerCount: 2
Fore
SplineSet
33 869 m 2,0,-1
 248 869 l 2,1,2
 278 869 278 869 278 829 c 2,3,-1
 278 814 l 2,4,5
 278 774 278 774 248 774 c 2,6,-1
 33 774 l 2,7,8
 3 774 3 774 3 814 c 2,9,-1
 3 829 l 2,10,11
 3 869 3 869 33 869 c 2,0,-1
123 703 m 2,12,-1
 158 703 l 2,13,14
 218 703 218 703 218 670 c 2,15,-1
 218 30 l 2,16,17
 218 -3 218 -3 158 -3 c 2,18,-1
 123 -3 l 2,19,20
 63 -3 63 -3 63 30 c 2,21,-1
 63 670 l 2,22,23
 63 703 63 703 123 703 c 2,12,-1
EndSplineSet
Position2: "'cpsp' Capital Spacing lookup 0 subtable" dx=5 dy=0 dh=10 dv=0
EndChar

StartChar: Iogonek
Encoding: 302 302 81
Width: 282
GlyphClass: 2
Flags: MW
HStem: -183 70<221.5 241> 683 20G<123 158 158 179>
VStem: 63 155<30 670>
AnchorPoint: "Anchor-1" 141 700 basechar 0
AnchorPoint: "Anchor-0" 116 -203 basechar 0
LayerCount: 2
Fore
SplineSet
282 -105 m 0,0,1
 304 -105 304 -105 304 -133 c 0,2,3
 304 -183 304 -183 222 -183 c 0,4,5
 185 -183 185 -183 159 -171.5 c 128,-1,6
 133 -160 133 -160 122.5 -142 c 0,7,8
 104 -110.285714286 104 -110.285714286 104 -70.6428571429 c 128,-1,9
 104 -31 104 -31 126 -3 c 1,10,-1
 123 -3 l 2,11,12
 63 -3 63 -3 63 30 c 2,13,-1
 63 670 l 2,14,15
 63 703 63 703 123 703 c 2,16,-1
 158 703 l 2,17,18
 218 703 218 703 218 670 c 2,19,-1
 218 30 l 2,20,21
 218 5 218 5 182 -1 c 1,22,-1
 182 -5 l 2,23,24
 182 -11 182 -11 176.5 -28.5 c 128,-1,25
 171 -46 171 -46 171 -62 c 0,26,27
 171 -113 171 -113 233 -113 c 0,28,29
 246 -113 246 -113 260 -109 c 128,-1,30
 274 -105 274 -105 282 -105 c 0,0,1
EndSplineSet
Position2: "'cpsp' Capital Spacing lookup 0 subtable" dx=5 dy=0 dh=10 dv=0
EndChar

StartChar: Itilde
Encoding: 296 296 82
Width: 282
GlyphClass: 2
Flags: MW
HStem: 683 20G<123 158 158 179> 757 86<190.5 203.5> 784 86<70 84>
VStem: 63 155<30 670>
AnchorPoint: "Anchor-1" 140 877 basechar 0
AnchorPoint: "Anchor-0" 141 0 basechar 0
LayerCount: 2
Fore
SplineSet
248 858 m 0,0,1
 269 874 269 874 286.5 852 c 0,2,3
 304 830 304 830 280 798 c 1,4,5
 242 757 242 757 185 757 c 0,6,7
 154 757 154 757 125 770.5 c 0,8,9
 96 784 96 784 75.5 784 c 0,10,11
 55 784 55 784 32.5 771 c 0,12,13
 10 758 10 758 -7.5 782 c 0,14,15
 -25 806 -25 806 -4 829 c 0,16,17
 42 870 42 870 81.5 870 c 0,18,19
 121 870 121 870 151.5 856.5 c 0,20,21
 182 843 182 843 203.5 843 c 0,22,23
 225 843 225 843 248 858 c 0,0,1
123 703 m 2,24,-1
 158 703 l 2,25,26
 218 703 218 703 218 670 c 2,27,-1
 218 30 l 2,28,29
 218 -3 218 -3 158 -3 c 2,30,-1
 123 -3 l 2,31,32
 63 -3 63 -3 63 30 c 2,33,-1
 63 670 l 2,34,35
 63 703 63 703 123 703 c 2,24,-1
EndSplineSet
Position2: "'cpsp' Capital Spacing lookup 0 subtable" dx=5 dy=0 dh=10 dv=0
EndChar

StartChar: J
Encoding: 74 74 83
Width: 402
GlyphClass: 2
Flags: MW
HStem: -8 131<112 127 81 198.5> 683 20G<241 276 276 297>
VStem: 181 155<227 670>
AnchorPoint: "Anchor-1" 261 700 basechar 0
AnchorPoint: "Anchor-0" 0 0 basechar 0
LayerCount: 2
Fore
SplineSet
241 703 m 2,0,-1
 276 703 l 2,1,2
 336 703 336 703 336 670 c 2,3,-1
 336 202 l 2,4,5
 336 103 336 103 284 47.5 c 128,-1,6
 232 -8 232 -8 124 -8 c 0,7,8
 94.625 -8 94.625 -8 62.3125 -2.5 c 0,9,10
 0 8.10638297872 0 8.10638297872 0 38 c 0,11,12
 0 61 0 61 10.5 95 c 128,-1,13
 21 129 21 129 41 131 c 0,14,15
 43 131 43 131 60.5 127 c 128,-1,16
 78 123 78 123 97 123 c 0,17,18
 142 123 142 123 161.5 147.5 c 128,-1,19
 181 172 181 172 181 227 c 2,20,-1
 181 670 l 2,21,22
 181 703 181 703 241 703 c 2,0,-1
EndSplineSet
Position2: "'cpsp' Capital Spacing lookup 0 subtable" dx=5 dy=0 dh=10 dv=0
EndChar

StartChar: Jcircumflex
Encoding: 308 308 84
Width: 402
GlyphClass: 2
Flags: MW
HStem: -8 131<112 127 81 198.5> 683 20G<241 276 276 297> 749 146<137 267 144 267 256 357 256 379>
VStem: 181 155<227 670>
AnchorPoint: "Anchor-1" 411 793 basechar 0
AnchorPoint: "Anchor-0" 0 0 basechar 0
LayerCount: 2
Fore
SplineSet
256 895 m 2,0,-1
 267 895 l 2,1,2
 316 895 316 895 328 876 c 2,3,-1
 393 774 l 2,4,5
 399 765 399 765 399 759 c 0,6,7
 399 749 399 749 379 749 c 2,8,-1
 357 749 l 2,9,10
 305 749 305 749 289 773 c 2,11,-1
 261 813 l 1,12,-1
 233 774 l 2,13,14
 215 749 215 749 166 749 c 2,15,-1
 144 749 l 2,16,17
 124 749 124 749 124 759 c 0,18,19
 124 765 124 765 130 774 c 2,20,-1
 195 876 l 2,21,22
 207 895 207 895 256 895 c 2,0,-1
241 703 m 2,23,-1
 276 703 l 2,24,25
 336 703 336 703 336 670 c 2,26,-1
 336 202 l 2,27,28
 336 103 336 103 284 47.5 c 128,-1,29
 232 -8 232 -8 124 -8 c 0,30,31
 94.625 -8 94.625 -8 62.3125 -2.5 c 0,32,33
 0 8.10638297872 0 8.10638297872 0 38 c 0,34,35
 0 61 0 61 10.5 95 c 128,-1,36
 21 129 21 129 41 131 c 0,37,38
 43 131 43 131 60.5 127 c 128,-1,39
 78 123 78 123 97 123 c 0,40,41
 142 123 142 123 161.5 147.5 c 128,-1,42
 181 172 181 172 181 227 c 2,43,-1
 181 670 l 2,44,45
 181 703 181 703 241 703 c 2,23,-1
EndSplineSet
Position2: "'cpsp' Capital Spacing lookup 0 subtable" dx=5 dy=0 dh=10 dv=0
EndChar

StartChar: K
Encoding: 75 75 85
Width: 576
GlyphClass: 2
Flags: MW
HStem: 682 20G<129 164 164 185 462 509 509 528.5>
VStem: 69 155<30 320 402 670>
AnchorPoint: "Anchor-1" 308 700 basechar 0
AnchorPoint: "Anchor-0" 298 0 basechar 0
LayerCount: 2
Fore
SplineSet
462 702 m 2,0,-1
 509 702 l 2,1,2
 565 702 565 702 565 687 c 0,3,4
 565 678 565 678 557 666 c 2,5,-1
 364 370 l 1,6,-1
 583 34 l 2,7,8
 591 22 591 22 591 13 c 0,9,10
 591 -2 591 -2 535 -2 c 2,11,-1
 477 -2 l 2,12,13
 427 -2 427 -2 416 17 c 2,14,-1
 228 321 l 1,15,-1
 224 320 l 1,16,-1
 224 30 l 2,17,18
 224 -2 224 -2 164 -2 c 2,19,-1
 129 -2 l 2,20,21
 69 -2 69 -2 69 30 c 2,22,-1
 69 670 l 2,23,24
 69 702 69 702 129 702 c 2,25,-1
 164 702 l 2,26,27
 224 702 224 702 224 670 c 2,28,-1
 224 402 l 1,29,-1
 228 401 l 1,30,-1
 402 683 l 2,31,32
 413 702 413 702 462 702 c 2,0,-1
EndSplineSet
Position2: "'cpsp' Capital Spacing lookup 0 subtable" dx=5 dy=0 dh=10 dv=0
EndChar

StartChar: Kcommaaccent
Encoding: 310 310 86
Width: 576
GlyphClass: 2
Flags: MW
HStem: -240 189<243 310> 682 20G<129 164 164 185 462 509 509 528.5>
VStem: 69 155<30 320 402 670> 231 129<-128.5 -82.5 -128.5 -81.5>
AnchorPoint: "Anchor-1" 308 700 basechar 0
AnchorPoint: "Anchor-0" 298 -203 basechar 0
LayerCount: 2
Fore
SplineSet
462 702 m 2,0,-1
 509 702 l 2,1,2
 565 702 565 702 565 687 c 0,3,4
 565 678 565 678 557 666 c 2,5,-1
 364 370 l 1,6,-1
 583 34 l 2,7,8
 591 22 591 22 591 13 c 0,9,10
 591 -2 591 -2 535 -2 c 2,11,-1
 477 -2 l 2,12,13
 427 -2 427 -2 416 17 c 2,14,-1
 228 321 l 1,15,-1
 224 320 l 1,16,-1
 224 30 l 2,17,18
 224 -2 224 -2 164 -2 c 2,19,-1
 129 -2 l 2,20,21
 69 -2 69 -2 69 30 c 2,22,-1
 69 670 l 2,23,24
 69 702 69 702 129 702 c 2,25,-1
 164 702 l 2,26,27
 224 702 224 702 224 670 c 2,28,-1
 224 402 l 1,29,-1
 228 401 l 1,30,-1
 402 683 l 2,31,32
 413 702 413 702 462 702 c 2,0,-1
291 -51 m 2,33,-1
 310 -51 l 2,34,35
 360 -51 360 -51 360 -95 c 0,36,37
 360 -142 360 -142 320.5 -191 c 128,-1,38
 281 -240 281 -240 252 -240 c 0,39,40
 236 -240 236 -240 221.5 -234.5 c 128,-1,41
 207 -229 207 -229 207 -218 c 0,42,43
 207 -217 207 -217 219 -180 c 128,-1,44
 231 -143 231 -143 231 -95 c 0,45,46
 231 -51 231 -51 291 -51 c 2,33,-1
EndSplineSet
Position2: "'cpsp' Capital Spacing lookup 0 subtable" dx=5 dy=0 dh=10 dv=0
EndChar

StartChar: L
Encoding: 76 76 87
Width: 484
GlyphClass: 2
Flags: MW
HStem: 0 131<95 446 223 446 223 446> 682 20G<129 163 163 184>
VStem: 69 154<131 670 131 670 131 680.5>
AnchorPoint: "Anchor-1" 150 700 basechar 0
AnchorPoint: "Anchor-0" 242 0 basechar 0
LayerCount: 2
Fore
SplineSet
129 702 m 2,0,-1
 163 702 l 2,1,2
 223 702 223 702 223 670 c 2,3,-1
 223 131 l 1,4,-1
 446 131 l 2,5,6
 476 131 476 131 476 81 c 2,7,-1
 476 50 l 2,8,9
 476 0 476 0 446 0 c 2,10,-1
 109 0 l 2,11,12
 69 0 69 0 69 40 c 2,13,-1
 69 670 l 2,14,15
 69 702 69 702 129 702 c 2,0,-1
EndSplineSet
Position2: "'cpsp' Capital Spacing lookup 0 subtable" dx=5 dy=0 dh=10 dv=0
EndChar

StartChar: LJ
Encoding: 455 455 88
Width: 718
GlyphClass: 2
Flags: MW
HStem: -181 131<436 451 405 522.5> 0 131<95 376 223 376 223 376> 682 20G<129 163 163 184> 683 20G<565 600 600 621>
VStem: 69 154<131 670 131 670 131 680.5> 505 155<54 670>
LayerCount: 2
Fore
SplineSet
565 703 m 2,0,-1
 600 703 l 2,1,2
 660 703 660 703 660 670 c 2,3,-1
 660 42 l 2,4,5
 660 -59 660 -59 607.5 -120 c 128,-1,6
 555 -181 555 -181 448 -181 c 0,7,8
 418.625 -181 418.625 -181 386.3125 -175.5 c 0,9,10
 324 -164.893617021 324 -164.893617021 324 -135 c 0,11,12
 324 -112 324 -112 334.5 -78 c 128,-1,13
 345 -44 345 -44 365 -42 c 0,14,15
 367 -42 367 -42 384.5 -46 c 128,-1,16
 402 -50 402 -50 421 -50 c 0,17,18
 466 -50 466 -50 485.5 -25.5 c 128,-1,19
 505 -1 505 -1 505 54 c 2,20,-1
 505 670 l 2,21,22
 505 703 505 703 565 703 c 2,0,-1
129 702 m 2,23,-1
 163 702 l 2,24,25
 223 702 223 702 223 670 c 2,26,-1
 223 131 l 1,27,-1
 376 131 l 2,28,29
 406 131 406 131 406 81 c 2,30,-1
 406 50 l 2,31,32
 406 0 406 0 376 0 c 2,33,-1
 109 0 l 2,34,35
 69 0 69 0 69 40 c 2,36,-1
 69 670 l 2,37,38
 69 702 69 702 129 702 c 2,23,-1
EndSplineSet
Position2: "'cpsp' Capital Spacing lookup 0 subtable" dx=5 dy=0 dh=10 dv=0
EndChar

StartChar: Lacute
Encoding: 313 313 89
Width: 484
GlyphClass: 2
Flags: MW
HStem: 0 131<95 446 223 446 223 446> 682 20G<129 163 163 184> 752 159<99 250>
VStem: 69 154<131 670 131 670 131 680.5>
AnchorPoint: "Anchor-1" 156 877 basechar 0
AnchorPoint: "Anchor-0" 242 0 basechar 0
LayerCount: 2
Fore
SplineSet
145 884 m 0,0,1
 160 911 160 911 225 911 c 128,-1,2
 290 911 290 911 290 897 c 0,3,4
 290 891 290 891 284 883 c 128,-1,5
 278 875 278 875 260 856.5 c 128,-1,6
 242 838 242 838 235 830.5 c 128,-1,7
 228 823 228 823 214 807.5 c 128,-1,8
 200 792 200 792 186 777 c 0,9,10
 163 752 163 752 111 752 c 0,11,12
 80 752 80 752 80 767 c 0,13,14
 80 777.5 80 777.5 94.5 799.25 c 128,-1,15
 109 821 109 821 121 842 c 128,-1,16
 133 863 133 863 145 884 c 0,0,1
129 702 m 2,17,-1
 163 702 l 2,18,19
 223 702 223 702 223 670 c 2,20,-1
 223 131 l 1,21,-1
 446 131 l 2,22,23
 476 131 476 131 476 81 c 2,24,-1
 476 50 l 2,25,26
 476 0 476 0 446 0 c 2,27,-1
 109 0 l 2,28,29
 69 0 69 0 69 40 c 2,30,-1
 69 670 l 2,31,32
 69 702 69 702 129 702 c 2,17,-1
EndSplineSet
Position2: "'cpsp' Capital Spacing lookup 0 subtable" dx=5 dy=0 dh=10 dv=0
EndChar

StartChar: Lcaron
Encoding: 317 317 90
Width: 484
GlyphClass: 2
Flags: MW
HStem: 0 131<95 446 223 446 223 446> 680 20G<379 398 398 415.5> 682 20G<129 163 163 184>
VStem: 69 154<131 670 131 670 131 680.5> 315 133<525 668.5>
AnchorPoint: "Anchor-1" 150 700 basechar 0
AnchorPoint: "Anchor-0" 242 0 basechar 0
LayerCount: 2
Fore
SplineSet
129 702 m 2,0,-1
 163 702 l 2,1,2
 223 702 223 702 223 670 c 2,3,-1
 223 131 l 1,4,-1
 446 131 l 2,5,6
 476 131 476 131 476 81 c 2,7,-1
 476 50 l 2,8,9
 476 0 476 0 446 0 c 2,10,-1
 109 0 l 2,11,12
 69 0 69 0 69 40 c 2,13,-1
 69 670 l 2,14,15
 69 702 69 702 129 702 c 2,0,-1
315 533 m 2,16,-1
 319 656 l 1,17,18
 319 700 319 700 379 700 c 2,19,-1
 398 700 l 2,20,21
 448 700 448 700 448 656 c 0,22,23
 448 609 448 609 416 561 c 128,-1,24
 384 513 384 513 364 512 c 128,-1,25
 344 511 344 511 329.5 516.5 c 128,-1,26
 315 522 315 522 315 533 c 2,16,-1
EndSplineSet
Position2: "'cpsp' Capital Spacing lookup 0 subtable" dx=5 dy=0 dh=10 dv=0
EndChar

StartChar: Lcommaaccent
Encoding: 315 315 91
Width: 484
GlyphClass: 2
Flags: MW
HStem: -240 189<187 254> 0 131<95 446 223 446 223 446> 682 20G<129 163 163 184>
VStem: 69 154<131 670 131 670 131 680.5> 175 129<-128.5 -82.5 -128.5 -81.5>
AnchorPoint: "Anchor-1" 150 700 basechar 0
AnchorPoint: "Anchor-0" 242 -203 basechar 0
LayerCount: 2
Fore
SplineSet
129 702 m 2,0,-1
 163 702 l 2,1,2
 223 702 223 702 223 670 c 2,3,-1
 223 131 l 1,4,-1
 446 131 l 2,5,6
 476 131 476 131 476 81 c 2,7,-1
 476 50 l 2,8,9
 476 0 476 0 446 0 c 2,10,-1
 109 0 l 2,11,12
 69 0 69 0 69 40 c 2,13,-1
 69 670 l 2,14,15
 69 702 69 702 129 702 c 2,0,-1
235 -51 m 2,16,-1
 254 -51 l 2,17,18
 304 -51 304 -51 304 -95 c 0,19,20
 304 -142 304 -142 264.5 -191 c 128,-1,21
 225 -240 225 -240 196 -240 c 0,22,23
 180 -240 180 -240 165.5 -234.5 c 128,-1,24
 151 -229 151 -229 151 -218 c 0,25,26
 151 -217 151 -217 163 -180 c 128,-1,27
 175 -143 175 -143 175 -95 c 0,28,29
 175 -51 175 -51 235 -51 c 2,16,-1
EndSplineSet
Position2: "'cpsp' Capital Spacing lookup 0 subtable" dx=5 dy=0 dh=10 dv=0
EndChar

StartChar: Ldot
Encoding: 319 319 92
Width: 484
GlyphClass: 2
Flags: MW
HStem: 0 131<95 446 223 446 223 446> 289 140<311.5 350.5> 682 20G<129 163 163 184>
VStem: 69 154<131 670 131 670 131 680.5> 261 140<339.5 378.5>
AnchorPoint: "Anchor-1" 150 700 basechar 0
AnchorPoint: "Anchor-0" 242 0 basechar 0
LayerCount: 2
Fore
SplineSet
129 702 m 2,0,-1
 163 702 l 2,1,2
 223 702 223 702 223 670 c 2,3,-1
 223 131 l 1,4,-1
 446 131 l 2,5,6
 476 131 476 131 476 81 c 2,7,-1
 476 50 l 2,8,9
 476 0 476 0 446 0 c 2,10,-1
 109 0 l 2,11,12
 69 0 69 0 69 40 c 2,13,-1
 69 670 l 2,14,15
 69 702 69 702 129 702 c 2,0,-1
331 429 m 128,-1,17
 360 429 360 429 380.5 408.5 c 128,-1,18
 401 388 401 388 401 359 c 128,-1,19
 401 330 401 330 380.5 309.5 c 128,-1,20
 360 289 360 289 331 289 c 128,-1,21
 302 289 302 289 281.5 309.5 c 128,-1,22
 261 330 261 330 261 359 c 128,-1,23
 261 388 261 388 281.5 408.5 c 128,-1,16
 302 429 302 429 331 429 c 128,-1,17
EndSplineSet
Ligature2: "Ligature Substitution lookup 19 subtable" L periodcentered
Position2: "'cpsp' Capital Spacing lookup 0 subtable" dx=5 dy=0 dh=10 dv=0
EndChar

StartChar: Lj
Encoding: 456 456 93
Width: 760
GlyphClass: 2
Flags: MW
HStem: -212 117<516.5 531 512.5 597.5> 0 131<95 446 223 446 223 446> 505 20G<614 642 642 663> 609 145<593 642 614 642> 682 20G<129 163 163 184>
VStem: 69 154<131 670 131 670 131 680.5> 554 148<-52 -50 -50 493 641 722>
AnchorPoint: "Anchor-1" 150 700 basechar 0
AnchorPoint: "Anchor-0" 242 0 basechar 0
LayerCount: 2
Fore
SplineSet
614 754 m 2,0,-1
 642 754 l 2,1,2
 702 754 702 754 702 722 c 2,3,-1
 702 641 l 2,4,5
 702 609 702 609 642 609 c 2,6,-1
 614 609 l 2,7,8
 554 609 554 609 554 641 c 2,9,-1
 554 722 l 2,10,11
 554 754 554 754 614 754 c 2,0,-1
129 702 m 2,12,-1
 163 702 l 2,13,14
 223 702 223 702 223 670 c 2,15,-1
 223 131 l 1,16,-1
 446 131 l 2,17,18
 476 131 476 131 476 81 c 2,19,-1
 476 50 l 2,20,21
 476 0 476 0 446 0 c 2,22,-1
 109 0 l 2,23,24
 69 0 69 0 69 40 c 2,25,-1
 69 670 l 2,26,27
 69 702 69 702 129 702 c 2,12,-1
488 -91 m 1,28,-1
 518 -95 l 1,29,30
 554 -95 554 -95 554 -52 c 2,31,-1
 554 493 l 2,32,33
 554 525 554 525 614 525 c 2,34,-1
 642 525 l 2,35,36
 702 525 702 525 702 493 c 2,37,-1
 702 -50 l 2,38,39
 702 -129 702 -129 661.5 -170.5 c 128,-1,40
 621 -212 621 -212 559 -212 c 128,-1,41
 497 -212 497 -212 474.5 -200.5 c 128,-1,42
 452 -189 452 -189 452 -164.5 c 128,-1,43
 452 -140 452 -140 463 -115.5 c 128,-1,44
 474 -91 474 -91 488 -91 c 1,28,-1
EndSplineSet
Position2: "'cpsp' Capital Spacing lookup 0 subtable" dx=5 dy=0 dh=10 dv=0
EndChar

StartChar: Lslash
Encoding: 321 321 94
Width: 486
GlyphClass: 2
Flags: MW
HStem: 0 131<97 448 225 448 225 448> 682 20G<131 165 165 186>
VStem: 71 154<131 301 301 301 381 395 475 670>
LayerCount: 2
Fore
SplineSet
131 702 m 2,0,-1
 165 702 l 2,1,2
 225 702 225 702 225 670 c 2,3,-1
 225 475 l 1,4,-1
 312 528 l 2,5,6
 321 534 321 534 327 534 c 0,7,8
 338 534 338 534 338 514 c 2,9,-1
 338 494 l 2,10,11
 338 464 338 464 312 448 c 2,12,-1
 225 395 l 1,13,-1
 225 131 l 1,14,-1
 448 131 l 2,15,16
 478 131 478 131 478 81 c 2,17,-1
 478 50 l 2,18,19
 478 0 478 0 448 0 c 2,20,-1
 111 0 l 2,21,22
 71 0 71 0 71 40 c 2,23,-1
 71 301 l 1,24,-1
 52 289 l 2,25,26
 44 284 44 284 37 284 c 0,27,28
 26 284 26 284 26 304 c 2,29,-1
 26 324 l 2,30,31
 26 353 26 353 52 369 c 2,32,-1
 71 381 l 1,33,-1
 71 670 l 2,34,35
 71 702 71 702 131 702 c 2,0,-1
EndSplineSet
Position2: "'cpsp' Capital Spacing lookup 0 subtable" dx=5 dy=0 dh=10 dv=0
EndChar

StartChar: M
Encoding: 77 77 95
Width: 843
GlyphClass: 2
Flags: MW
HStem: 682 20G<129 182 182 196.5 662 714 714 735>
VStem: 69 149<30 444> 625 149<30 444 444 444>
LayerCount: 2
Fore
SplineSet
662 702 m 2,0,-1
 714 702 l 2,1,2
 774 702 774 702 774 670 c 2,3,-1
 774 30 l 2,4,5
 774 -2 774 -2 714 -2 c 2,6,-1
 685 -2 l 2,7,8
 625 -2 625 -2 625 30 c 2,9,-1
 625 444 l 1,10,-1
 621 445 l 1,11,-1
 476 186 l 1,12,13
 462 167 462 167 436 167 c 2,14,-1
 407 167 l 2,15,16
 381 167 381 167 367 186 c 1,17,-1
 222 445 l 1,18,-1
 218 444 l 1,19,-1
 218 30 l 2,20,21
 218 -2 218 -2 158 -2 c 2,22,-1
 129 -2 l 2,23,24
 69 -2 69 -2 69 30 c 2,25,-1
 69 670 l 2,26,27
 69 702 69 702 129 702 c 2,28,-1
 182 702 l 2,29,30
 230 702 230 702 245 675 c 2,31,-1
 421 362 l 1,32,-1
 599 675 l 2,33,34
 614 702 614 702 662 702 c 2,0,-1
EndSplineSet
Position2: "'cpsp' Capital Spacing lookup 0 subtable" dx=5 dy=0 dh=10 dv=0
EndChar

StartChar: N
Encoding: 78 78 96
Width: 719
GlyphClass: 2
Flags: MW
HStem: 682 20G<129 172 172 186.5 561 590 590 611>
VStem: 69 149<30 435> 501 149<270 670>
AnchorPoint: "Anchor-1" 360 700 basechar 0
AnchorPoint: "Anchor-0" 360 0 basechar 0
LayerCount: 2
Fore
SplineSet
561 702 m 2,0,-1
 590 702 l 2,1,2
 650 702 650 702 650 670 c 2,3,-1
 650 30 l 2,4,5
 650 -2 650 -2 590 -2 c 2,6,-1
 552 -2 l 2,7,8
 504 -2 504 -2 486 25 c 2,9,-1
 218 435 l 1,10,-1
 218 30 l 2,11,12
 218 -2 218 -2 158 -2 c 2,13,-1
 129 -2 l 2,14,15
 69 -2 69 -2 69 30 c 2,16,-1
 69 670 l 2,17,18
 69 702 69 702 129 702 c 2,19,-1
 172 702 l 2,20,21
 220 702 220 702 238 675 c 2,22,-1
 501 270 l 1,23,-1
 501 670 l 2,24,25
 501 702 501 702 561 702 c 2,0,-1
EndSplineSet
Position2: "'cpsp' Capital Spacing lookup 0 subtable" dx=5 dy=0 dh=10 dv=0
EndChar

StartChar: NJ
Encoding: 458 458 97
Width: 1121
GlyphClass: 2
Flags: MW
HStem: -8 131<831 846 800 917.5> 682 20G<129 172 172 186.5 561 590 590 611> 683 20G<960 995 995 1016>
VStem: 69 149<30 435> 501 149<270 670> 900 155<227 670>
AnchorPoint: "Anchor-1" 980 700 basechar 0
AnchorPoint: "Anchor-0" 360 0 basechar 0
LayerCount: 2
Fore
SplineSet
960 703 m 2,0,-1
 995 703 l 2,1,2
 1055 703 1055 703 1055 670 c 2,3,-1
 1055 202 l 2,4,5
 1055 103 1055 103 1003 47.5 c 128,-1,6
 951 -8 951 -8 843 -8 c 0,7,8
 813.625 -8 813.625 -8 781.3125 -2.5 c 0,9,10
 719 8.10638297872 719 8.10638297872 719 38 c 0,11,12
 719 61 719 61 729.5 95 c 128,-1,13
 740 129 740 129 760 131 c 0,14,15
 762 131 762 131 779.5 127 c 128,-1,16
 797 123 797 123 816 123 c 0,17,18
 861 123 861 123 880.5 147.5 c 128,-1,19
 900 172 900 172 900 227 c 2,20,-1
 900 670 l 2,21,22
 900 703 900 703 960 703 c 2,0,-1
561 702 m 2,23,-1
 590 702 l 2,24,25
 650 702 650 702 650 670 c 2,26,-1
 650 30 l 2,27,28
 650 -2 650 -2 590 -2 c 2,29,-1
 552 -2 l 2,30,31
 504 -2 504 -2 486 25 c 2,32,-1
 218 435 l 1,33,-1
 218 30 l 2,34,35
 218 -2 218 -2 158 -2 c 2,36,-1
 129 -2 l 2,37,38
 69 -2 69 -2 69 30 c 2,39,-1
 69 670 l 2,40,41
 69 702 69 702 129 702 c 2,42,-1
 172 702 l 2,43,44
 220 702 220 702 238 675 c 2,45,-1
 501 270 l 1,46,-1
 501 670 l 2,47,48
 501 702 501 702 561 702 c 2,23,-1
EndSplineSet
Position2: "'cpsp' Capital Spacing lookup 0 subtable" dx=5 dy=0 dh=10 dv=0
EndChar

StartChar: Nacute
Encoding: 323 323 98
Width: 719
GlyphClass: 2
Flags: MW
HStem: 682 20G<129 172 172 186.5 561 590 590 611> 752 159<309 460>
VStem: 69 149<30 435> 501 149<270 670>
AnchorPoint: "Anchor-1" 366 877 basechar 0
AnchorPoint: "Anchor-0" 360 0 basechar 0
LayerCount: 2
Fore
SplineSet
355 884 m 0,0,1
 370 911 370 911 435 911 c 128,-1,2
 500 911 500 911 500 897 c 0,3,4
 500 891 500 891 494 883 c 128,-1,5
 488 875 488 875 470 856.5 c 128,-1,6
 452 838 452 838 445 830.5 c 128,-1,7
 438 823 438 823 424 807.5 c 128,-1,8
 410 792 410 792 396 777 c 0,9,10
 373 752 373 752 321 752 c 0,11,12
 290 752 290 752 290 767 c 0,13,14
 290 777.5 290 777.5 304.5 799.25 c 128,-1,15
 319 821 319 821 331 842 c 128,-1,16
 343 863 343 863 355 884 c 0,0,1
561 702 m 2,17,-1
 590 702 l 2,18,19
 650 702 650 702 650 670 c 2,20,-1
 650 30 l 2,21,22
 650 -2 650 -2 590 -2 c 2,23,-1
 552 -2 l 2,24,25
 504 -2 504 -2 486 25 c 2,26,-1
 218 435 l 1,27,-1
 218 30 l 2,28,29
 218 -2 218 -2 158 -2 c 2,30,-1
 129 -2 l 2,31,32
 69 -2 69 -2 69 30 c 2,33,-1
 69 670 l 2,34,35
 69 702 69 702 129 702 c 2,36,-1
 172 702 l 2,37,38
 220 702 220 702 238 675 c 2,39,-1
 501 270 l 1,40,-1
 501 670 l 2,41,42
 501 702 501 702 561 702 c 2,17,-1
EndSplineSet
Substitution2: "'locl' Localized Forms in Latin lookup 11 subtable" Nacute.loclPLK
Substitution2: "'aalt' Access All Alternates lookup 0 subtable" Nacute.loclPLK
Position2: "'cpsp' Capital Spacing lookup 0 subtable" dx=5 dy=0 dh=10 dv=0
EndChar

StartChar: Ncaron
Encoding: 327 327 99
Width: 719
GlyphClass: 2
Flags: MW
HStem: 682 20G<129 172 172 186.5 561 590 590 611> 749 146<243 355 243 366>
VStem: 69 149<30 435> 501 149<270 670>
AnchorPoint: "Anchor-1" 361 877 basechar 0
AnchorPoint: "Anchor-0" 360 0 basechar 0
LayerCount: 2
Fore
SplineSet
456 895 m 2,0,-1
 478 895 l 2,1,2
 498 895 498 895 498 885 c 0,3,4
 498 879 498 879 492 870 c 2,5,-1
 427 768 l 2,6,7
 415 749 415 749 366 749 c 2,8,-1
 355 749 l 2,9,10
 306 749 306 749 294 768 c 2,11,-1
 229 870 l 2,12,13
 223 879 223 879 223 885 c 0,14,15
 223 895 223 895 243 895 c 2,16,-1
 265 895 l 2,17,18
 314 895 314 895 332 870 c 2,19,-1
 360 831 l 1,20,-1
 388 871 l 2,21,22
 404 895 404 895 456 895 c 2,0,-1
561 702 m 2,23,-1
 590 702 l 2,24,25
 650 702 650 702 650 670 c 2,26,-1
 650 30 l 2,27,28
 650 -2 650 -2 590 -2 c 2,29,-1
 552 -2 l 2,30,31
 504 -2 504 -2 486 25 c 2,32,-1
 218 435 l 1,33,-1
 218 30 l 2,34,35
 218 -2 218 -2 158 -2 c 2,36,-1
 129 -2 l 2,37,38
 69 -2 69 -2 69 30 c 2,39,-1
 69 670 l 2,40,41
 69 702 69 702 129 702 c 2,42,-1
 172 702 l 2,43,44
 220 702 220 702 238 675 c 2,45,-1
 501 270 l 1,46,-1
 501 670 l 2,47,48
 501 702 501 702 561 702 c 2,23,-1
EndSplineSet
Position2: "'cpsp' Capital Spacing lookup 0 subtable" dx=5 dy=0 dh=10 dv=0
EndChar

StartChar: Ncommaaccent
Encoding: 325 325 100
Width: 719
GlyphClass: 2
Flags: MW
HStem: -240 189<305 372> 682 20G<129 172 172 186.5 561 590 590 611>
VStem: 69 149<30 435> 293 129<-128.5 -82.5 -128.5 -81.5> 501 149<270 670>
AnchorPoint: "Anchor-1" 360 700 basechar 0
AnchorPoint: "Anchor-0" 360 -203 basechar 0
LayerCount: 2
Fore
SplineSet
561 702 m 2,0,-1
 590 702 l 2,1,2
 650 702 650 702 650 670 c 2,3,-1
 650 30 l 2,4,5
 650 -2 650 -2 590 -2 c 2,6,-1
 552 -2 l 2,7,8
 504 -2 504 -2 486 25 c 2,9,-1
 218 435 l 1,10,-1
 218 30 l 2,11,12
 218 -2 218 -2 158 -2 c 2,13,-1
 129 -2 l 2,14,15
 69 -2 69 -2 69 30 c 2,16,-1
 69 670 l 2,17,18
 69 702 69 702 129 702 c 2,19,-1
 172 702 l 2,20,21
 220 702 220 702 238 675 c 2,22,-1
 501 270 l 1,23,-1
 501 670 l 2,24,25
 501 702 501 702 561 702 c 2,0,-1
353 -51 m 2,26,-1
 372 -51 l 2,27,28
 422 -51 422 -51 422 -95 c 0,29,30
 422 -142 422 -142 382.5 -191 c 128,-1,31
 343 -240 343 -240 314 -240 c 0,32,33
 298 -240 298 -240 283.5 -234.5 c 128,-1,34
 269 -229 269 -229 269 -218 c 0,35,36
 269 -217 269 -217 281 -180 c 128,-1,37
 293 -143 293 -143 293 -95 c 0,38,39
 293 -51 293 -51 353 -51 c 2,26,-1
EndSplineSet
Position2: "'cpsp' Capital Spacing lookup 0 subtable" dx=5 dy=0 dh=10 dv=0
EndChar

StartChar: Ndotaccent
Encoding: 7748 7748 101
Width: 719
GlyphClass: 2
Flags: MW
HStem: 682 20G<129 172 172 186.5 561 590 590 611> 755 124<339 381>
VStem: 69 149<30 435> 300 120<787 847 776.5 857.5> 501 149<270 670>
AnchorPoint: "Anchor-1" 362 877 basechar 0
AnchorPoint: "Anchor-0" 360 0 basechar 0
LayerCount: 2
Fore
SplineSet
360 879 m 128,-1,1
 420 879 420 879 420 847 c 2,2,-1
 420 787 l 2,3,4
 420 755 420 755 360 755 c 128,-1,5
 300 755 300 755 300 787 c 2,6,-1
 300 847 l 2,7,0
 300 879 300 879 360 879 c 128,-1,1
561 702 m 2,8,-1
 590 702 l 2,9,10
 650 702 650 702 650 670 c 2,11,-1
 650 30 l 2,12,13
 650 -2 650 -2 590 -2 c 2,14,-1
 552 -2 l 2,15,16
 504 -2 504 -2 486 25 c 2,17,-1
 218 435 l 1,18,-1
 218 30 l 2,19,20
 218 -2 218 -2 158 -2 c 2,21,-1
 129 -2 l 2,22,23
 69 -2 69 -2 69 30 c 2,24,-1
 69 670 l 2,25,26
 69 702 69 702 129 702 c 2,27,-1
 172 702 l 2,28,29
 220 702 220 702 238 675 c 2,30,-1
 501 270 l 1,31,-1
 501 670 l 2,32,33
 501 702 501 702 561 702 c 2,8,-1
EndSplineSet
Position2: "'cpsp' Capital Spacing lookup 0 subtable" dx=5 dy=0 dh=10 dv=0
EndChar

StartChar: Eng
Encoding: 330 330 102
Width: 719
GlyphClass: 2
Flags: MW
HStem: -212 117<464.5 479 460.5 545.5> 682 20G<129 172 172 186.5 561 590 590 611>
VStem: 69 149<30 435> 501 149<270 670>
AnchorPoint: "Anchor-1" 576 523 basechar 0
AnchorPoint: "Anchor-0" 0 0 basechar 0
LayerCount: 2
Fore
SplineSet
436 -91 m 1,0,-1
 466 -95 l 1,1,2
 502 -95 502 -95 502 -52 c 2,3,-1
 502 1 l 1,4,-1
 218 435 l 1,5,-1
 218 30 l 2,6,7
 218 -2 218 -2 158 -2 c 2,8,-1
 129 -2 l 2,9,10
 69 -2 69 -2 69 30 c 2,11,-1
 69 670 l 2,12,13
 69 702 69 702 129 702 c 2,14,-1
 172 702 l 2,15,16
 220 702 220 702 238 675 c 2,17,-1
 501 270 l 1,18,-1
 501 670 l 2,19,20
 501 702 501 702 561 702 c 2,21,-1
 590 702 l 2,22,23
 650 702 650 702 650 670 c 2,24,-1
 650 -50 l 2,25,26
 650 -129 650 -129 609.5 -170.5 c 128,-1,27
 569 -212 569 -212 507 -212 c 128,-1,28
 445 -212 445 -212 422.5 -200.5 c 128,-1,29
 400 -189 400 -189 400 -164.5 c 128,-1,30
 400 -140 400 -140 411 -115.5 c 128,-1,31
 422 -91 422 -91 436 -91 c 1,0,-1
EndSplineSet
Position2: "'cpsp' Capital Spacing lookup 0 subtable" dx=5 dy=0 dh=10 dv=0
EndChar

StartChar: Nj
Encoding: 459 459 103
Width: 995
GlyphClass: 2
Flags: MW
HStem: -212 117<751.5 766 747.5 832.5> 505 20G<849 877 877 898> 609 145<828 877 849 877> 682 20G<129 172 172 186.5 561 590 590 611>
VStem: 69 149<30 435> 501 149<270 670> 789 148<-52 -50 -50 493 641 722>
AnchorPoint: "Anchor-1" 360 700 basechar 0
AnchorPoint: "Anchor-0" 360 0 basechar 0
LayerCount: 2
Fore
SplineSet
849 754 m 2,0,-1
 877 754 l 2,1,2
 937 754 937 754 937 722 c 2,3,-1
 937 641 l 2,4,5
 937 609 937 609 877 609 c 2,6,-1
 849 609 l 2,7,8
 789 609 789 609 789 641 c 2,9,-1
 789 722 l 2,10,11
 789 754 789 754 849 754 c 2,0,-1
561 702 m 2,12,-1
 590 702 l 2,13,14
 650 702 650 702 650 670 c 2,15,-1
 650 30 l 2,16,17
 650 -2 650 -2 590 -2 c 2,18,-1
 552 -2 l 2,19,20
 504 -2 504 -2 486 25 c 2,21,-1
 218 435 l 1,22,-1
 218 30 l 2,23,24
 218 -2 218 -2 158 -2 c 2,25,-1
 129 -2 l 2,26,27
 69 -2 69 -2 69 30 c 2,28,-1
 69 670 l 2,29,30
 69 702 69 702 129 702 c 2,31,-1
 172 702 l 2,32,33
 220 702 220 702 238 675 c 2,34,-1
 501 270 l 1,35,-1
 501 670 l 2,36,37
 501 702 501 702 561 702 c 2,12,-1
723 -91 m 1,38,-1
 753 -95 l 1,39,40
 789 -95 789 -95 789 -52 c 2,41,-1
 789 493 l 2,42,43
 789 525 789 525 849 525 c 2,44,-1
 877 525 l 2,45,46
 937 525 937 525 937 493 c 2,47,-1
 937 -50 l 2,48,49
 937 -129 937 -129 896.5 -170.5 c 128,-1,50
 856 -212 856 -212 794 -212 c 128,-1,51
 732 -212 732 -212 709.5 -200.5 c 128,-1,52
 687 -189 687 -189 687 -164.5 c 128,-1,53
 687 -140 687 -140 698 -115.5 c 128,-1,54
 709 -91 709 -91 723 -91 c 1,38,-1
EndSplineSet
Position2: "'cpsp' Capital Spacing lookup 0 subtable" dx=5 dy=0 dh=10 dv=0
EndChar

StartChar: Ntilde
Encoding: 209 209 104
Width: 719
GlyphClass: 2
Flags: MW
HStem: 682 20G<129 172 172 186.5 561 590 590 611> 757 86<415.5 429.5> 784 86<281.5 297>
VStem: 69 149<30 435> 501 149<270 670>
AnchorPoint: "Anchor-1" 359 877 basechar 0
AnchorPoint: "Anchor-0" 360 0 basechar 0
LayerCount: 2
Fore
SplineSet
199 829 m 0,0,1
 251 870 251 870 294 870 c 128,-1,2
 337 870 337 870 371.5 856.5 c 128,-1,3
 406 843 406 843 429.5 843 c 128,-1,4
 453 843 453 843 478 858 c 128,-1,5
 503 873 503 873 523 852 c 0,6,7
 542 830 542 830 515 798 c 0,8,9
 474 757 474 757 409 757 c 0,10,11
 375 757 375 757 343 770.5 c 128,-1,12
 311 784 311 784 287.5 784 c 128,-1,13
 264 784 264 784 239.5 771 c 128,-1,14
 215 758 215 758 195.5 782 c 128,-1,15
 176 806 176 806 199 829 c 0,0,1
561 702 m 2,16,-1
 590 702 l 2,17,18
 650 702 650 702 650 670 c 2,19,-1
 650 30 l 2,20,21
 650 -2 650 -2 590 -2 c 2,22,-1
 552 -2 l 2,23,24
 504 -2 504 -2 486 25 c 2,25,-1
 218 435 l 1,26,-1
 218 30 l 2,27,28
 218 -2 218 -2 158 -2 c 2,29,-1
 129 -2 l 2,30,31
 69 -2 69 -2 69 30 c 2,32,-1
 69 670 l 2,33,34
 69 702 69 702 129 702 c 2,35,-1
 172 702 l 2,36,37
 220 702 220 702 238 675 c 2,38,-1
 501 270 l 1,39,-1
 501 670 l 2,40,41
 501 702 501 702 561 702 c 2,16,-1
EndSplineSet
Position2: "'cpsp' Capital Spacing lookup 0 subtable" dx=5 dy=0 dh=10 dv=0
EndChar

StartChar: O
Encoding: 79 79 105
Width: 731
GlyphClass: 2
Flags: MW
HStem: -8 131<312.5 419.5 312.5 469> 576 132<312.5 419.5>
VStem: 45 158<276.5 423.5 276.5 465.5> 528 158<276.5 423.5>
AnchorPoint: "Anchor-1" 366 700 basechar 0
AnchorPoint: "Anchor-0" 367 0 basechar 0
LayerCount: 2
Fore
SplineSet
366 708 m 128,-1,1
 521 708 521 708 603.5 615.5 c 128,-1,2
 686 523 686 523 686 350 c 128,-1,3
 686 177 686 177 603.5 84.5 c 128,-1,4
 521 -8 521 -8 366 -8 c 128,-1,5
 211 -8 211 -8 128 84.5 c 128,-1,6
 45 177 45 177 45 350 c 128,-1,7
 45 523 45 523 128 615.5 c 128,-1,0
 211 708 211 708 366 708 c 128,-1,1
366 576 m 128,-1,9
 286 576 286 576 244.5 518.5 c 128,-1,10
 203 461 203 461 203 350 c 128,-1,11
 203 239 203 239 244.5 181 c 128,-1,12
 286 123 286 123 366 123 c 128,-1,13
 446 123 446 123 487 181 c 128,-1,14
 528 239 528 239 528 350 c 128,-1,15
 528 461 528 461 487 518.5 c 128,-1,8
 446 576 446 576 366 576 c 128,-1,9
EndSplineSet
Substitution2: "Single Substitution lookup 20 subtable" ordmasculine
Substitution2: "'aalt' Access All Alternates lookup 0 subtable" ordmasculine
Position2: "'cpsp' Capital Spacing lookup 0 subtable" dx=5 dy=0 dh=10 dv=0
EndChar

StartChar: Oacute
Encoding: 211 211 106
Width: 731
GlyphClass: 2
Flags: MW
HStem: -8 131<312.5 419.5 312.5 469> 576 132<312.5 419.5> 752 159<315 466>
VStem: 45 158<276.5 423.5 276.5 465.5> 528 158<276.5 423.5>
AnchorPoint: "Anchor-1" 372 877 basechar 0
AnchorPoint: "Anchor-0" 367 0 basechar 0
LayerCount: 2
Fore
SplineSet
361 884 m 0,0,1
 376 911 376 911 441 911 c 128,-1,2
 506 911 506 911 506 897 c 0,3,4
 506 891 506 891 500 883 c 128,-1,5
 494 875 494 875 476 856.5 c 128,-1,6
 458 838 458 838 451 830.5 c 128,-1,7
 444 823 444 823 430 807.5 c 128,-1,8
 416 792 416 792 402 777 c 0,9,10
 379 752 379 752 327 752 c 0,11,12
 296 752 296 752 296 767 c 0,13,14
 296 777.5 296 777.5 310.5 799.25 c 128,-1,15
 325 821 325 821 337 842 c 128,-1,16
 349 863 349 863 361 884 c 0,0,1
366 708 m 128,-1,18
 521 708 521 708 603.5 615.5 c 128,-1,19
 686 523 686 523 686 350 c 128,-1,20
 686 177 686 177 603.5 84.5 c 128,-1,21
 521 -8 521 -8 366 -8 c 128,-1,22
 211 -8 211 -8 128 84.5 c 128,-1,23
 45 177 45 177 45 350 c 128,-1,24
 45 523 45 523 128 615.5 c 128,-1,17
 211 708 211 708 366 708 c 128,-1,18
366 576 m 128,-1,26
 286 576 286 576 244.5 518.5 c 128,-1,27
 203 461 203 461 203 350 c 128,-1,28
 203 239 203 239 244.5 181 c 128,-1,29
 286 123 286 123 366 123 c 128,-1,30
 446 123 446 123 487 181 c 128,-1,31
 528 239 528 239 528 350 c 128,-1,32
 528 461 528 461 487 518.5 c 128,-1,25
 446 576 446 576 366 576 c 128,-1,26
EndSplineSet
Substitution2: "'locl' Localized Forms in Latin lookup 11 subtable" Oacute.loclPLK
Substitution2: "'aalt' Access All Alternates lookup 0 subtable" Oacute.loclPLK
Position2: "'cpsp' Capital Spacing lookup 0 subtable" dx=5 dy=0 dh=10 dv=0
EndChar

StartChar: Obreve
Encoding: 334 334 107
Width: 731
GlyphClass: 2
Flags: MW
HStem: -8 131<312.5 419.5 312.5 469> 576 132<312.5 419.5> 752 91<340.5 393 340.5 409.5>
VStem: 45 158<276.5 423.5 276.5 465.5> 528 158<276.5 423.5>
AnchorPoint: "Anchor-1" 366 863 basechar 0
AnchorPoint: "Anchor-0" 367 0 basechar 0
LayerCount: 2
Fore
SplineSet
478 892 m 0,0,1
 513 892 513 892 513 864 c 0,2,3
 513 820 513 820 471 786 c 128,-1,4
 429 752 429 752 366 752 c 128,-1,5
 303 752 303 752 261 786 c 128,-1,6
 219 820 219 820 219 864 c 0,7,8
 219 892 219 892 254 892 c 0,9,10
 271 892 271 892 283.5 878 c 128,-1,11
 296 864 296 864 302 859 c 0,12,13
 321.2 843 321.2 843 356.1 843 c 128,-1,14
 391 843 391 843 409 849.5 c 128,-1,15
 427 856 427 856 432 860.5 c 128,-1,16
 437 865 437 865 449 878.5 c 128,-1,17
 461 892 461 892 478 892 c 0,0,1
366 708 m 128,-1,19
 521 708 521 708 603.5 615.5 c 128,-1,20
 686 523 686 523 686 350 c 128,-1,21
 686 177 686 177 603.5 84.5 c 128,-1,22
 521 -8 521 -8 366 -8 c 128,-1,23
 211 -8 211 -8 128 84.5 c 128,-1,24
 45 177 45 177 45 350 c 128,-1,25
 45 523 45 523 128 615.5 c 128,-1,18
 211 708 211 708 366 708 c 128,-1,19
366 576 m 128,-1,27
 286 576 286 576 244.5 518.5 c 128,-1,28
 203 461 203 461 203 350 c 128,-1,29
 203 239 203 239 244.5 181 c 128,-1,30
 286 123 286 123 366 123 c 128,-1,31
 446 123 446 123 487 181 c 128,-1,32
 528 239 528 239 528 350 c 128,-1,33
 528 461 528 461 487 518.5 c 128,-1,26
 446 576 446 576 366 576 c 128,-1,27
EndSplineSet
Position2: "'cpsp' Capital Spacing lookup 0 subtable" dx=5 dy=0 dh=10 dv=0
EndChar

StartChar: Ocircumflex
Encoding: 212 212 108
Width: 731
GlyphClass: 2
Flags: MW
HStem: -8 131<312.5 419.5 312.5 469> 576 132<312.5 419.5> 749 146<242 372 249 372 361 462 361 484>
VStem: 45 158<276.5 423.5 276.5 465.5> 528 158<276.5 423.5>
AnchorPoint: "Anchor-1" 516 793 basechar 0
AnchorPoint: "Anchor-0" 367 0 basechar 0
LayerCount: 2
Fore
SplineSet
361 895 m 2,0,-1
 372 895 l 2,1,2
 421 895 421 895 433 876 c 2,3,-1
 498 774 l 2,4,5
 504 765 504 765 504 759 c 0,6,7
 504 749 504 749 484 749 c 2,8,-1
 462 749 l 2,9,10
 410 749 410 749 394 773 c 2,11,-1
 366 813 l 1,12,-1
 338 774 l 2,13,14
 320 749 320 749 271 749 c 2,15,-1
 249 749 l 2,16,17
 229 749 229 749 229 759 c 0,18,19
 229 765 229 765 235 774 c 2,20,-1
 300 876 l 2,21,22
 312 895 312 895 361 895 c 2,0,-1
366 708 m 128,-1,24
 521 708 521 708 603.5 615.5 c 128,-1,25
 686 523 686 523 686 350 c 128,-1,26
 686 177 686 177 603.5 84.5 c 128,-1,27
 521 -8 521 -8 366 -8 c 128,-1,28
 211 -8 211 -8 128 84.5 c 128,-1,29
 45 177 45 177 45 350 c 128,-1,30
 45 523 45 523 128 615.5 c 128,-1,23
 211 708 211 708 366 708 c 128,-1,24
366 576 m 128,-1,32
 286 576 286 576 244.5 518.5 c 128,-1,33
 203 461 203 461 203 350 c 128,-1,34
 203 239 203 239 244.5 181 c 128,-1,35
 286 123 286 123 366 123 c 128,-1,36
 446 123 446 123 487 181 c 128,-1,37
 528 239 528 239 528 350 c 128,-1,38
 528 461 528 461 487 518.5 c 128,-1,31
 446 576 446 576 366 576 c 128,-1,32
EndSplineSet
Position2: "'cpsp' Capital Spacing lookup 0 subtable" dx=5 dy=0 dh=10 dv=0
EndChar

StartChar: Ocircumflexacute
Encoding: 7888 7888 109
Width: 731
GlyphClass: 2
Flags: MW
HStem: -8 131<312.5 419.5 312.5 469> 576 132<312.5 419.5> 840 55
VStem: 45 158<276.5 423.5 276.5 465.5> 528 158<276.5 423.5>
AnchorPoint: "Anchor-1" 500 829 basechar 0
AnchorPoint: "Anchor-0" 367 0 basechar 0
LayerCount: 2
Fore
SplineSet
569 964 m 0,0,1
 609 964 609 964 609 940 c 0,2,3
 609 933 609 933 596.5 916 c 128,-1,4
 584 899 584 899 535 840 c 0,5,6
 520 825 520 825 480 825 c 0,7,8
 459 825 459 825 459 840 c 0,9,10
 459 843 459 843 494 937 c 0,11,12
 508 964 508 964 569 964 c 0,0,1
361 895 m 2,13,-1
 372 895 l 2,14,15
 412 895 412 895 423 876 c 2,16,-1
 483 774 l 2,17,18
 489 765 489 765 489 759 c 0,19,20
 489 749 489 749 469 749 c 2,21,-1
 447 749 l 2,22,23
 387 749 387 749 379 773 c 2,24,-1
 366 813 l 1,25,-1
 338 774 l 2,26,27
 320 749 320 749 271 749 c 2,28,-1
 249 749 l 2,29,30
 229 749 229 749 229 759 c 0,31,32
 229 765 229 765 235 774 c 2,33,-1
 300 876 l 2,34,35
 312 895 312 895 361 895 c 2,13,-1
366 708 m 128,-1,37
 521 708 521 708 603.5 615.5 c 128,-1,38
 686 523 686 523 686 350 c 128,-1,39
 686 177 686 177 603.5 84.5 c 128,-1,40
 521 -8 521 -8 366 -8 c 128,-1,41
 211 -8 211 -8 128 84.5 c 128,-1,42
 45 177 45 177 45 350 c 128,-1,43
 45 523 45 523 128 615.5 c 128,-1,36
 211 708 211 708 366 708 c 128,-1,37
366 576 m 128,-1,45
 286 576 286 576 244.5 518.5 c 128,-1,46
 203 461 203 461 203 350 c 128,-1,47
 203 239 203 239 244.5 181 c 128,-1,48
 286 123 286 123 366 123 c 128,-1,49
 446 123 446 123 487 181 c 128,-1,50
 528 239 528 239 528 350 c 128,-1,51
 528 461 528 461 487 518.5 c 128,-1,44
 446 576 446 576 366 576 c 128,-1,45
EndSplineSet
Position2: "'cpsp' Capital Spacing lookup 0 subtable" dx=5 dy=0 dh=10 dv=0
EndChar

StartChar: Ocircumflexdotbelow
Encoding: 7896 7896 110
Width: 731
GlyphClass: 2
Flags: MW
HStem: -204 124<348 390> -8 131<312.5 419.5 312.5 469> 576 132<312.5 419.5> 749 146<242 372 249 372 361 462 361 484>
VStem: 45 158<276.5 423.5 276.5 465.5> 309 120<-172 -112 -182.5 -101.5> 528 158<276.5 423.5>
AnchorPoint: "Anchor-1" 371 -82 basechar 0
AnchorPoint: "Anchor-0" 370 -203 basechar 0
LayerCount: 2
Fore
SplineSet
361 895 m 2,0,-1
 372 895 l 2,1,2
 421 895 421 895 433 876 c 2,3,-1
 498 774 l 2,4,5
 504 765 504 765 504 759 c 0,6,7
 504 749 504 749 484 749 c 2,8,-1
 462 749 l 2,9,10
 410 749 410 749 394 773 c 2,11,-1
 366 813 l 1,12,-1
 338 774 l 2,13,14
 320 749 320 749 271 749 c 2,15,-1
 249 749 l 2,16,17
 229 749 229 749 229 759 c 0,18,19
 229 765 229 765 235 774 c 2,20,-1
 300 876 l 2,21,22
 312 895 312 895 361 895 c 2,0,-1
366 708 m 128,-1,24
 521 708 521 708 603.5 615.5 c 128,-1,25
 686 523 686 523 686 350 c 128,-1,26
 686 177 686 177 603.5 84.5 c 128,-1,27
 521 -8 521 -8 366 -8 c 128,-1,28
 211 -8 211 -8 128 84.5 c 128,-1,29
 45 177 45 177 45 350 c 128,-1,30
 45 523 45 523 128 615.5 c 128,-1,23
 211 708 211 708 366 708 c 128,-1,24
366 576 m 128,-1,32
 286 576 286 576 244.5 518.5 c 128,-1,33
 203 461 203 461 203 350 c 128,-1,34
 203 239 203 239 244.5 181 c 128,-1,35
 286 123 286 123 366 123 c 128,-1,36
 446 123 446 123 487 181 c 128,-1,37
 528 239 528 239 528 350 c 128,-1,38
 528 461 528 461 487 518.5 c 128,-1,31
 446 576 446 576 366 576 c 128,-1,32
369 -80 m 128,-1,40
 429 -80 429 -80 429 -112 c 2,41,-1
 429 -172 l 2,42,43
 429 -204 429 -204 369 -204 c 128,-1,44
 309 -204 309 -204 309 -172 c 2,45,-1
 309 -112 l 2,46,39
 309 -80 309 -80 369 -80 c 128,-1,40
EndSplineSet
Position2: "'cpsp' Capital Spacing lookup 0 subtable" dx=5 dy=0 dh=10 dv=0
EndChar

StartChar: Ocircumflexgrave
Encoding: 7890 7890 111
Width: 731
GlyphClass: 2
Flags: MW
HStem: -8 131<312.5 419.5 312.5 469> 576 132<312.5 419.5> 749 146<242 372 249 372 361 447 361 469> 824 139<418 532>
VStem: 45 158<276.5 423.5 276.5 465.5> 528 158<276.5 423.5>
AnchorPoint: "Anchor-1" 500 829 basechar 0
AnchorPoint: "Anchor-0" 367 0 basechar 0
LayerCount: 2
Fore
SplineSet
433 963 m 0,0,1
 506 963 506 963 518 936 c 0,2,3
 551 854 551 854 551 839 c 128,-1,4
 551 824 551 824 515 824 c 0,5,6
 479 824 479 824 460.5 847 c 0,7,8
 442 870 442 870 419 899.5 c 0,9,10
 396 929 396 929 391 936 c 128,-1,11
 386 943 386 943 386 949 c 0,12,13
 386 963 386 963 433 963 c 0,0,1
361 895 m 2,14,-1
 372 895 l 2,15,16
 412 895 412 895 423 876 c 2,17,-1
 483 774 l 2,18,19
 489 765 489 765 489 759 c 0,20,21
 489 749 489 749 469 749 c 2,22,-1
 447 749 l 2,23,24
 387 749 387 749 379 773 c 2,25,-1
 366 813 l 1,26,-1
 338 774 l 2,27,28
 320 749 320 749 271 749 c 2,29,-1
 249 749 l 2,30,31
 229 749 229 749 229 759 c 0,32,33
 229 765 229 765 235 774 c 2,34,-1
 300 876 l 2,35,36
 312 895 312 895 361 895 c 2,14,-1
366 708 m 128,-1,38
 521 708 521 708 603.5 615.5 c 128,-1,39
 686 523 686 523 686 350 c 128,-1,40
 686 177 686 177 603.5 84.5 c 128,-1,41
 521 -8 521 -8 366 -8 c 128,-1,42
 211 -8 211 -8 128 84.5 c 128,-1,43
 45 177 45 177 45 350 c 128,-1,44
 45 523 45 523 128 615.5 c 128,-1,37
 211 708 211 708 366 708 c 128,-1,38
366 576 m 128,-1,46
 286 576 286 576 244.5 518.5 c 128,-1,47
 203 461 203 461 203 350 c 128,-1,48
 203 239 203 239 244.5 181 c 128,-1,49
 286 123 286 123 366 123 c 128,-1,50
 446 123 446 123 487 181 c 128,-1,51
 528 239 528 239 528 350 c 128,-1,52
 528 461 528 461 487 518.5 c 128,-1,45
 446 576 446 576 366 576 c 128,-1,46
EndSplineSet
Position2: "'cpsp' Capital Spacing lookup 0 subtable" dx=5 dy=0 dh=10 dv=0
EndChar

StartChar: Ocircumflexhookabove
Encoding: 7892 7892 112
Width: 731
GlyphClass: 2
Flags: MW
HStem: -8 131<312.5 419.5 312.5 469> 576 132<312.5 419.5> 749 146<242 372 249 372 432.5 440.5 361 447 361 469> 895 70<432 515>
VStem: 45 158<276.5 423.5 276.5 465.5> 510 69<891 900.5> 528 158<276.5 423.5>
AnchorPoint: "Anchor-1" 500 829 basechar 0
AnchorPoint: "Anchor-0" 367 0 basechar 0
LayerCount: 2
Fore
SplineSet
510 895 m 0,0,1
 510 912 510 912 490 912 c 128,-1,2
 470 912 470 912 454 903.5 c 128,-1,3
 438 895 438 895 434 895 c 128,-1,4
 430 895 430 895 418 910.5 c 128,-1,5
 406 926 406 926 406 936.5 c 128,-1,6
 406 947 406 947 432.5 956 c 128,-1,7
 459 965 459 965 494 965 c 128,-1,8
 529 965 529 965 554 947 c 128,-1,9
 579 929 579 929 579 901 c 128,-1,10
 579 873 579 873 552.5 851.5 c 128,-1,11
 526 830 526 830 505 830 c 128,-1,12
 484 830 484 830 472 836 c 128,-1,13
 460 842 460 842 460 851 c 0,14,15
 460 859.571428571 460 859.571428571 492.5 873.5 c 0,16,17
 510 881 510 881 510 895 c 0,0,1
361 895 m 2,18,-1
 372 895 l 2,19,20
 412 895 412 895 423 876 c 2,21,-1
 483 774 l 2,22,23
 489 765 489 765 489 759 c 0,24,25
 489 749 489 749 469 749 c 2,26,-1
 447 749 l 2,27,28
 387 749 387 749 379 773 c 2,29,-1
 366 813 l 1,30,-1
 338 774 l 2,31,32
 320 749 320 749 271 749 c 2,33,-1
 249 749 l 2,34,35
 229 749 229 749 229 759 c 0,36,37
 229 765 229 765 235 774 c 2,38,-1
 300 876 l 2,39,40
 312 895 312 895 361 895 c 2,18,-1
366 708 m 128,-1,42
 521 708 521 708 603.5 615.5 c 128,-1,43
 686 523 686 523 686 350 c 128,-1,44
 686 177 686 177 603.5 84.5 c 128,-1,45
 521 -8 521 -8 366 -8 c 128,-1,46
 211 -8 211 -8 128 84.5 c 128,-1,47
 45 177 45 177 45 350 c 128,-1,48
 45 523 45 523 128 615.5 c 128,-1,41
 211 708 211 708 366 708 c 128,-1,42
366 576 m 128,-1,50
 286 576 286 576 244.5 518.5 c 128,-1,51
 203 461 203 461 203 350 c 128,-1,52
 203 239 203 239 244.5 181 c 128,-1,53
 286 123 286 123 366 123 c 128,-1,54
 446 123 446 123 487 181 c 128,-1,55
 528 239 528 239 528 350 c 128,-1,56
 528 461 528 461 487 518.5 c 128,-1,49
 446 576 446 576 366 576 c 128,-1,50
EndSplineSet
Position2: "'cpsp' Capital Spacing lookup 0 subtable" dx=5 dy=0 dh=10 dv=0
EndChar

StartChar: Ocircumflextilde
Encoding: 7894 7894 113
Width: 731
GlyphClass: 2
Flags: MW
HStem: -8 131<312.5 419.5 312.5 469> 576 132<312.5 419.5> 749 122<242 372 249 372 361 462 361 484> 902 86<421.5 434.5> 929 86<299.5 314>
VStem: 45 158<276.5 423.5 276.5 465.5> 528 158<276.5 423.5>
AnchorPoint: "Anchor-1" 497 837 basechar 0
AnchorPoint: "Anchor-0" 367 0 basechar 0
LayerCount: 2
Fore
SplineSet
479 1003 m 128,-1,1
 502 1018 502 1018 519 996.5 c 128,-1,2
 536 975 536 975 512 943 c 1,3,4
 474 902 474 902 416 902 c 0,5,6
 384 902 384 902 355 915.5 c 128,-1,7
 326 929 326 929 305 929 c 128,-1,8
 284 929 284 929 261.5 916 c 128,-1,9
 239 903 239 903 221.5 927 c 128,-1,10
 204 951 204 951 225 974 c 0,11,12
 271 1015 271 1015 318 1015 c 0,13,14
 350 1015 350 1015 381.5 1001.5 c 128,-1,15
 413 988 413 988 434.5 988 c 128,-1,0
 456 988 456 988 479 1003 c 128,-1,1
361 871 m 2,16,-1
 372 871 l 2,17,18
 415 871 415 871 433 852 c 1,19,-1
 498 774 l 1,20,21
 504 765 504 765 504 759 c 0,22,23
 504 749 504 749 484 749 c 2,24,-1
 462 749 l 2,25,26
 433 749 433 749 394 773 c 1,27,-1
 366 800 l 1,28,-1
 338 774 l 2,29,30
 336 773 336 773 327.5 767.5 c 128,-1,31
 319 762 319 762 316.5 761 c 128,-1,32
 314 760 314 760 307 756.5 c 128,-1,33
 300 753 300 753 295.5 752 c 0,34,35
 282 749 282 749 271 749 c 2,36,-1
 249 749 l 2,37,38
 229 749 229 749 229 759 c 0,39,40
 229 765 229 765 235 774 c 1,41,-1
 300 852 l 1,42,43
 318 871 318 871 361 871 c 2,16,-1
366 708 m 128,-1,45
 521 708 521 708 603.5 615.5 c 128,-1,46
 686 523 686 523 686 350 c 128,-1,47
 686 177 686 177 603.5 84.5 c 128,-1,48
 521 -8 521 -8 366 -8 c 128,-1,49
 211 -8 211 -8 128 84.5 c 128,-1,50
 45 177 45 177 45 350 c 128,-1,51
 45 523 45 523 128 615.5 c 128,-1,44
 211 708 211 708 366 708 c 128,-1,45
366 576 m 128,-1,53
 286 576 286 576 244.5 518.5 c 128,-1,54
 203 461 203 461 203 350 c 128,-1,55
 203 239 203 239 244.5 181 c 128,-1,56
 286 123 286 123 366 123 c 128,-1,57
 446 123 446 123 487 181 c 128,-1,58
 528 239 528 239 528 350 c 128,-1,59
 528 461 528 461 487 518.5 c 128,-1,52
 446 576 446 576 366 576 c 128,-1,53
EndSplineSet
Position2: "'cpsp' Capital Spacing lookup 0 subtable" dx=5 dy=0 dh=10 dv=0
EndChar

StartChar: Odieresis
Encoding: 214 214 114
Width: 731
GlyphClass: 2
Flags: MW
HStem: -8 131<312.5 419.5 312.5 469> 576 132<312.5 419.5> 755 124<255 297 435 477>
VStem: 45 158<276.5 423.5 276.5 465.5> 216 120<787 847 776.5 857.5> 396 120<787 847 776.5 857.5> 528 158<276.5 423.5>
AnchorPoint: "Anchor-1" 372 877 basechar 0
AnchorPoint: "Anchor-0" 367 0 basechar 0
LayerCount: 2
Fore
SplineSet
276 879 m 128,-1,1
 336 879 336 879 336 847 c 2,2,-1
 336 787 l 2,3,4
 336 755 336 755 276 755 c 128,-1,5
 216 755 216 755 216 787 c 2,6,-1
 216 847 l 2,7,0
 216 879 216 879 276 879 c 128,-1,1
456 879 m 128,-1,9
 516 879 516 879 516 847 c 2,10,-1
 516 787 l 2,11,12
 516 755 516 755 456 755 c 128,-1,13
 396 755 396 755 396 787 c 2,14,-1
 396 847 l 2,15,8
 396 879 396 879 456 879 c 128,-1,9
366 708 m 128,-1,17
 521 708 521 708 603.5 615.5 c 128,-1,18
 686 523 686 523 686 350 c 128,-1,19
 686 177 686 177 603.5 84.5 c 128,-1,20
 521 -8 521 -8 366 -8 c 128,-1,21
 211 -8 211 -8 128 84.5 c 128,-1,22
 45 177 45 177 45 350 c 128,-1,23
 45 523 45 523 128 615.5 c 128,-1,16
 211 708 211 708 366 708 c 128,-1,17
366 576 m 128,-1,25
 286 576 286 576 244.5 518.5 c 128,-1,26
 203 461 203 461 203 350 c 128,-1,27
 203 239 203 239 244.5 181 c 128,-1,28
 286 123 286 123 366 123 c 128,-1,29
 446 123 446 123 487 181 c 128,-1,30
 528 239 528 239 528 350 c 128,-1,31
 528 461 528 461 487 518.5 c 128,-1,24
 446 576 446 576 366 576 c 128,-1,25
EndSplineSet
Position2: "'cpsp' Capital Spacing lookup 0 subtable" dx=5 dy=0 dh=10 dv=0
EndChar

StartChar: Odotbelow
Encoding: 7884 7884 115
Width: 731
GlyphClass: 2
Flags: MW
HStem: -204 124<348 390> -8 131<312.5 419.5 312.5 469> 576 132<312.5 419.5>
VStem: 45 158<276.5 423.5 276.5 465.5> 309 120<-172 -112 -182.5 -101.5> 528 158<276.5 423.5>
AnchorPoint: "Anchor-1" 371 -82 basechar 0
AnchorPoint: "Anchor-0" 370 -203 basechar 0
LayerCount: 2
Fore
SplineSet
366 708 m 128,-1,1
 521 708 521 708 603.5 615.5 c 128,-1,2
 686 523 686 523 686 350 c 128,-1,3
 686 177 686 177 603.5 84.5 c 128,-1,4
 521 -8 521 -8 366 -8 c 128,-1,5
 211 -8 211 -8 128 84.5 c 128,-1,6
 45 177 45 177 45 350 c 128,-1,7
 45 523 45 523 128 615.5 c 128,-1,0
 211 708 211 708 366 708 c 128,-1,1
366 576 m 128,-1,9
 286 576 286 576 244.5 518.5 c 128,-1,10
 203 461 203 461 203 350 c 128,-1,11
 203 239 203 239 244.5 181 c 128,-1,12
 286 123 286 123 366 123 c 128,-1,13
 446 123 446 123 487 181 c 128,-1,14
 528 239 528 239 528 350 c 128,-1,15
 528 461 528 461 487 518.5 c 128,-1,8
 446 576 446 576 366 576 c 128,-1,9
369 -80 m 128,-1,17
 429 -80 429 -80 429 -112 c 2,18,-1
 429 -172 l 2,19,20
 429 -204 429 -204 369 -204 c 128,-1,21
 309 -204 309 -204 309 -172 c 2,22,-1
 309 -112 l 2,23,16
 309 -80 309 -80 369 -80 c 128,-1,17
EndSplineSet
Position2: "'cpsp' Capital Spacing lookup 0 subtable" dx=5 dy=0 dh=10 dv=0
EndChar

StartChar: Ograve
Encoding: 210 210 116
Width: 731
GlyphClass: 2
Flags: MW
HStem: -8 131<312.5 419.5 312.5 469> 576 132<312.5 419.5> 752 159<272 423>
VStem: 45 158<276.5 423.5 276.5 465.5> 528 158<276.5 423.5>
AnchorPoint: "Anchor-1" 363 877 basechar 0
AnchorPoint: "Anchor-0" 367 0 basechar 0
LayerCount: 2
Fore
SplineSet
232 897 m 0,0,1
 232 911 232 911 297 911 c 128,-1,2
 362 911 362 911 377 884 c 0,3,4
 389 863 389 863 401 842 c 128,-1,5
 413 821 413 821 420 810.5 c 128,-1,6
 427 800 427 800 432.5 790 c 0,7,8
 442 772.727272727 442 772.727272727 442 767 c 0,9,10
 442 752 442 752 411 752 c 0,11,12
 359 752 359 752 332.5 781 c 128,-1,13
 306 810 306 810 274.5 843.5 c 128,-1,14
 243 877 243 877 237.5 884 c 128,-1,15
 232 891 232 891 232 897 c 0,0,1
366 708 m 128,-1,17
 521 708 521 708 603.5 615.5 c 128,-1,18
 686 523 686 523 686 350 c 128,-1,19
 686 177 686 177 603.5 84.5 c 128,-1,20
 521 -8 521 -8 366 -8 c 128,-1,21
 211 -8 211 -8 128 84.5 c 128,-1,22
 45 177 45 177 45 350 c 128,-1,23
 45 523 45 523 128 615.5 c 128,-1,16
 211 708 211 708 366 708 c 128,-1,17
366 576 m 128,-1,25
 286 576 286 576 244.5 518.5 c 128,-1,26
 203 461 203 461 203 350 c 128,-1,27
 203 239 203 239 244.5 181 c 128,-1,28
 286 123 286 123 366 123 c 128,-1,29
 446 123 446 123 487 181 c 128,-1,30
 528 239 528 239 528 350 c 128,-1,31
 528 461 528 461 487 518.5 c 128,-1,24
 446 576 446 576 366 576 c 128,-1,25
EndSplineSet
Position2: "'cpsp' Capital Spacing lookup 0 subtable" dx=5 dy=0 dh=10 dv=0
EndChar

StartChar: Ohookabove
Encoding: 7886 7886 117
Width: 731
GlyphClass: 2
Flags: MW
HStem: -8 131<312.5 419.5 312.5 469> 576 132<312.5 419.5> 867 61<361.5 379>
VStem: 45 158<276.5 423.5 276.5 465.5> 403 87<830 852> 528 158<276.5 423.5>
AnchorPoint: "Anchor-1" 367 877 basechar 0
AnchorPoint: "Anchor-0" 367 0 basechar 0
LayerCount: 2
Fore
SplineSet
369.5 802.5 m 128,-1,1
 403 828 403 828 403 841.5 c 128,-1,2
 403 855 403 855 393.5 861 c 128,-1,3
 384 867 384 867 371 867 c 128,-1,4
 358 867 358 867 345 861 c 128,-1,5
 332 855 332 855 327.5 855 c 128,-1,6
 323 855 323 855 311 870.5 c 128,-1,7
 299 886 299 886 299 896.5 c 128,-1,8
 299 907 299 907 326 917.5 c 128,-1,9
 353 928 353 928 379 928 c 0,10,11
 432 928 432 928 461 907 c 128,-1,12
 490 886 490 886 490 850 c 128,-1,13
 490 814 490 814 449.5 780.5 c 128,-1,14
 409 747 409 747 391 747 c 128,-1,15
 373 747 373 747 354.5 755.5 c 128,-1,16
 336 764 336 764 336 770.5 c 128,-1,0
 336 777 336 777 369.5 802.5 c 128,-1,1
366 708 m 128,-1,18
 521 708 521 708 603.5 615.5 c 128,-1,19
 686 523 686 523 686 350 c 128,-1,20
 686 177 686 177 603.5 84.5 c 128,-1,21
 521 -8 521 -8 366 -8 c 128,-1,22
 211 -8 211 -8 128 84.5 c 128,-1,23
 45 177 45 177 45 350 c 128,-1,24
 45 523 45 523 128 615.5 c 128,-1,17
 211 708 211 708 366 708 c 128,-1,18
366 576 m 128,-1,26
 286 576 286 576 244.5 518.5 c 128,-1,27
 203 461 203 461 203 350 c 128,-1,28
 203 239 203 239 244.5 181 c 128,-1,29
 286 123 286 123 366 123 c 128,-1,30
 446 123 446 123 487 181 c 128,-1,31
 528 239 528 239 528 350 c 128,-1,32
 528 461 528 461 487 518.5 c 128,-1,25
 446 576 446 576 366 576 c 128,-1,26
EndSplineSet
Position2: "'cpsp' Capital Spacing lookup 0 subtable" dx=5 dy=0 dh=10 dv=0
EndChar

StartChar: Ohorn
Encoding: 416 416 118
Width: 731
GlyphClass: 2
Flags: MW
HStem: -8 131<312.5 419.5 312.5 469> 576 106<312.5 532> 576 132<312.5 393 263 419.5>
VStem: 45 158<276.5 423.5 276.5 465.5> 528 158<276.5 417 234.5 423.5> 579 80<710 729>
AnchorPoint: "Anchor-1" 385 702 basechar 0
AnchorPoint: "Anchor-0" 367 0 basechar 0
LayerCount: 2
Fore
SplineSet
575 643 m 1,0,1
 686 552 686 552 686 350 c 0,2,3
 686 177 686 177 603.5 84.5 c 128,-1,4
 521 -8 521 -8 366 -8 c 128,-1,5
 211 -8 211 -8 128 84.5 c 128,-1,6
 45 177 45 177 45 350 c 128,-1,7
 45 523 45 523 128 615.5 c 128,-1,8
 211 708 211 708 366 708 c 0,9,10
 446 708 446 708 509 682 c 1,11,-1
 532 682 l 2,12,13
 579 682 579 682 579 718 c 0,14,15
 579 730 579 730 566 747.5 c 128,-1,16
 553 765 553 765 553 773.5 c 0,17,18
 553 782 553 782 564 789 c 2,19,-1
 596 811 l 2,20,21
 602 816 602 816 612 816 c 0,22,23
 630 816 630 816 644.5 787 c 128,-1,24
 659 758 659 758 659 733 c 0,25,26
 659 659 659 659 575 643 c 1,0,1
366 123 m 128,-1,28
 446 123 446 123 487 181 c 128,-1,29
 528 239 528 239 528 350 c 128,-1,30
 528 461 528 461 487 518.5 c 128,-1,31
 446 576 446 576 366 576 c 128,-1,32
 286 576 286 576 244.5 518.5 c 128,-1,33
 203 461 203 461 203 350 c 128,-1,34
 203 239 203 239 244.5 181 c 128,-1,27
 286 123 286 123 366 123 c 128,-1,28
EndSplineSet
Position2: "'cpsp' Capital Spacing lookup 0 subtable" dx=5 dy=0 dh=10 dv=0
EndChar

StartChar: Ohornacute
Encoding: 7898 7898 119
Width: 731
GlyphClass: 2
Flags: MW
HStem: -8 131<312.5 419.5 312.5 469> 576 106<312.5 532> 576 132<312.5 393 263 419.5> 754 159<334 485>
VStem: 45 158<276.5 423.5 276.5 465.5> 528 158<276.5 417 234.5 423.5> 579 80<710 729>
AnchorPoint: "Anchor-1" 385 702 basechar 0
AnchorPoint: "Anchor-0" 367 0 basechar 0
LayerCount: 2
Fore
SplineSet
346 754 m 0,0,1
 315 754 315 754 315 769 c 0,2,3
 315 779.5 315 779.5 329.5 801.25 c 128,-1,4
 344 823 344 823 356 844 c 128,-1,5
 368 865 368 865 380 886 c 0,6,7
 395 913 395 913 460 913 c 128,-1,8
 525 913 525 913 525 899 c 0,9,10
 525 893 525 893 519 885 c 128,-1,11
 513 877 513 877 495 858.5 c 128,-1,12
 477 840 477 840 470 832.5 c 128,-1,13
 463 825 463 825 449 809.5 c 128,-1,14
 435 794 435 794 421 779 c 0,15,16
 398 754 398 754 346 754 c 0,0,1
575 643 m 1,17,18
 686 552 686 552 686 350 c 0,19,20
 686 177 686 177 603.5 84.5 c 128,-1,21
 521 -8 521 -8 366 -8 c 128,-1,22
 211 -8 211 -8 128 84.5 c 128,-1,23
 45 177 45 177 45 350 c 128,-1,24
 45 523 45 523 128 615.5 c 128,-1,25
 211 708 211 708 366 708 c 0,26,27
 446 708 446 708 509 682 c 1,28,-1
 532 682 l 2,29,30
 579 682 579 682 579 718 c 0,31,32
 579 730 579 730 566 747.5 c 128,-1,33
 553 765 553 765 553 773.5 c 128,-1,34
 553 782 553 782 564 789 c 2,35,-1
 596 811 l 2,36,37
 602 816 602 816 612 816 c 0,38,39
 630 816 630 816 644.5 787 c 128,-1,40
 659 758 659 758 659 733 c 0,41,42
 659 659 659 659 575 643 c 1,17,18
366 123 m 128,-1,44
 446 123 446 123 487 181 c 128,-1,45
 528 239 528 239 528 350 c 128,-1,46
 528 461 528 461 487 518.5 c 128,-1,47
 446 576 446 576 366 576 c 128,-1,48
 286 576 286 576 244.5 518.5 c 128,-1,49
 203 461 203 461 203 350 c 128,-1,50
 203 239 203 239 244.5 181 c 128,-1,43
 286 123 286 123 366 123 c 128,-1,44
EndSplineSet
Position2: "'cpsp' Capital Spacing lookup 0 subtable" dx=5 dy=0 dh=10 dv=0
EndChar

StartChar: Ohorndotbelow
Encoding: 7906 7906 120
Width: 731
GlyphClass: 2
Flags: MW
HStem: -204 124<348 390> -8 131<312.5 419.5 312.5 469> 576 106<312.5 532> 576 132<312.5 393 263 419.5>
VStem: 45 158<276.5 423.5 276.5 465.5> 309 120<-172 -112 -182.5 -101.5> 528 158<276.5 417 234.5 423.5> 579 80<710 729>
AnchorPoint: "Anchor-1" 385 702 basechar 0
AnchorPoint: "Anchor-0" 370 -203 basechar 0
LayerCount: 2
Fore
SplineSet
575 643 m 1,0,1
 686 552 686 552 686 350 c 0,2,3
 686 177 686 177 603.5 84.5 c 128,-1,4
 521 -8 521 -8 366 -8 c 128,-1,5
 211 -8 211 -8 128 84.5 c 128,-1,6
 45 177 45 177 45 350 c 128,-1,7
 45 523 45 523 128 615.5 c 128,-1,8
 211 708 211 708 366 708 c 0,9,10
 446 708 446 708 509 682 c 1,11,-1
 532 682 l 2,12,13
 579 682 579 682 579 718 c 0,14,15
 579 730 579 730 566 747.5 c 128,-1,16
 553 765 553 765 553 773.5 c 0,17,18
 553 782 553 782 564 789 c 2,19,-1
 596 811 l 2,20,21
 602 816 602 816 612 816 c 0,22,23
 630 816 630 816 644.5 787 c 128,-1,24
 659 758 659 758 659 733 c 0,25,26
 659 659 659 659 575 643 c 1,0,1
366 123 m 128,-1,28
 446 123 446 123 487 181 c 128,-1,29
 528 239 528 239 528 350 c 128,-1,30
 528 461 528 461 487 518.5 c 128,-1,31
 446 576 446 576 366 576 c 128,-1,32
 286 576 286 576 244.5 518.5 c 128,-1,33
 203 461 203 461 203 350 c 128,-1,34
 203 239 203 239 244.5 181 c 128,-1,27
 286 123 286 123 366 123 c 128,-1,28
369 -80 m 128,-1,36
 429 -80 429 -80 429 -112 c 2,37,-1
 429 -172 l 2,38,39
 429 -204 429 -204 369 -204 c 128,-1,40
 309 -204 309 -204 309 -172 c 2,41,-1
 309 -112 l 2,42,35
 309 -80 309 -80 369 -80 c 128,-1,36
EndSplineSet
Position2: "'cpsp' Capital Spacing lookup 0 subtable" dx=5 dy=0 dh=10 dv=0
EndChar

StartChar: Ohorngrave
Encoding: 7900 7900 121
Width: 731
GlyphClass: 2
Flags: MW
HStem: -8 131<312.5 419.5 312.5 469> 576 106<312.5 532> 576 132<312.5 393 263 419.5> 754 159<291 442>
VStem: 45 158<276.5 423.5 276.5 465.5> 528 158<276.5 417 234.5 423.5> 579 80<710 729>
AnchorPoint: "Anchor-1" 385 702 basechar 0
AnchorPoint: "Anchor-0" 367 0 basechar 0
LayerCount: 2
Fore
SplineSet
430 754 m 0,0,1
 378 754 378 754 351.5 783 c 128,-1,2
 325 812 325 812 293.5 845.5 c 128,-1,3
 262 879 262 879 256.5 886 c 128,-1,4
 251 893 251 893 251 899 c 0,5,6
 251 913 251 913 316 913 c 128,-1,7
 381 913 381 913 396 886 c 0,8,9
 408 865 408 865 420 844 c 128,-1,10
 432 823 432 823 439 812.5 c 128,-1,11
 446 802 446 802 451.5 792 c 0,12,13
 461 774.727272727 461 774.727272727 461 769 c 0,14,15
 461 754 461 754 430 754 c 0,0,1
575 643 m 1,16,17
 686 552 686 552 686 350 c 0,18,19
 686 177 686 177 603.5 84.5 c 128,-1,20
 521 -8 521 -8 366 -8 c 128,-1,21
 211 -8 211 -8 128 84.5 c 128,-1,22
 45 177 45 177 45 350 c 128,-1,23
 45 523 45 523 128 615.5 c 128,-1,24
 211 708 211 708 366 708 c 0,25,26
 446 708 446 708 509 682 c 1,27,-1
 532 682 l 2,28,29
 579 682 579 682 579 718 c 0,30,31
 579 730 579 730 566 747.5 c 128,-1,32
 553 765 553 765 553 773.5 c 128,-1,33
 553 782 553 782 564 789 c 2,34,-1
 596 811 l 2,35,36
 602 816 602 816 612 816 c 0,37,38
 630 816 630 816 644.5 787 c 128,-1,39
 659 758 659 758 659 733 c 0,40,41
 659 659 659 659 575 643 c 1,16,17
366 123 m 128,-1,43
 446 123 446 123 487 181 c 128,-1,44
 528 239 528 239 528 350 c 128,-1,45
 528 461 528 461 487 518.5 c 128,-1,46
 446 576 446 576 366 576 c 128,-1,47
 286 576 286 576 244.5 518.5 c 128,-1,48
 203 461 203 461 203 350 c 128,-1,49
 203 239 203 239 244.5 181 c 128,-1,42
 286 123 286 123 366 123 c 128,-1,43
EndSplineSet
Position2: "'cpsp' Capital Spacing lookup 0 subtable" dx=5 dy=0 dh=10 dv=0
EndChar

StartChar: Ohornhookabove
Encoding: 7902 7902 122
Width: 731
GlyphClass: 2
Flags: MW
HStem: -8 131<312.5 419.5 312.5 469> 576 106<312.5 532> 576 132<312.5 393 263 419.5> 869 61<380.5 398>
VStem: 45 158<276.5 423.5 276.5 465.5> 422 87<832 854> 528 158<276.5 417 234.5 423.5> 579 80<710 729>
AnchorPoint: "Anchor-1" 385 702 basechar 0
AnchorPoint: "Anchor-0" 367 0 basechar 0
LayerCount: 2
Fore
SplineSet
364 863 m 128,-1,1
 351 857 351 857 346.5 857 c 128,-1,2
 342 857 342 857 330 872.5 c 128,-1,3
 318 888 318 888 318 898.5 c 128,-1,4
 318 909 318 909 345 919.5 c 128,-1,5
 372 930 372 930 398 930 c 0,6,7
 451 930 451 930 480 909 c 128,-1,8
 509 888 509 888 509 852 c 128,-1,9
 509 816 509 816 468.5 782.5 c 128,-1,10
 428 749 428 749 410 749 c 128,-1,11
 392 749 392 749 373.5 757.5 c 128,-1,12
 355 766 355 766 355 772.5 c 128,-1,13
 355 779 355 779 388.5 804.5 c 128,-1,14
 422 830 422 830 422 843.5 c 128,-1,15
 422 857 422 857 412.5 863 c 128,-1,16
 403 869 403 869 390 869 c 128,-1,0
 377 869 377 869 364 863 c 128,-1,1
575 643 m 1,17,18
 686 552 686 552 686 350 c 0,19,20
 686 177 686 177 603.5 84.5 c 128,-1,21
 521 -8 521 -8 366 -8 c 128,-1,22
 211 -8 211 -8 128 84.5 c 128,-1,23
 45 177 45 177 45 350 c 128,-1,24
 45 523 45 523 128 615.5 c 128,-1,25
 211 708 211 708 366 708 c 0,26,27
 446 708 446 708 509 682 c 1,28,-1
 532 682 l 2,29,30
 579 682 579 682 579 718 c 0,31,32
 579 730 579 730 566 747.5 c 128,-1,33
 553 765 553 765 553 773.5 c 128,-1,34
 553 782 553 782 564 789 c 2,35,-1
 596 811 l 2,36,37
 602 816 602 816 612 816 c 0,38,39
 630 816 630 816 644.5 787 c 128,-1,40
 659 758 659 758 659 733 c 0,41,42
 659 659 659 659 575 643 c 1,17,18
366 123 m 128,-1,44
 446 123 446 123 487 181 c 128,-1,45
 528 239 528 239 528 350 c 128,-1,46
 528 461 528 461 487 518.5 c 128,-1,47
 446 576 446 576 366 576 c 128,-1,48
 286 576 286 576 244.5 518.5 c 128,-1,49
 203 461 203 461 203 350 c 128,-1,50
 203 239 203 239 244.5 181 c 128,-1,43
 286 123 286 123 366 123 c 128,-1,44
EndSplineSet
Position2: "'cpsp' Capital Spacing lookup 0 subtable" dx=5 dy=0 dh=10 dv=0
EndChar

StartChar: Ohorntilde
Encoding: 7904 7904 123
Width: 731
GlyphClass: 2
Flags: MW
HStem: -8 131<312.5 419.5 312.5 469> 576 106<312.5 532> 576 132<312.5 393 263 419.5> 759 86<434.5 447.5> 786 86<314 328>
VStem: 45 158<276.5 423.5 276.5 465.5> 528 158<276.5 417 234.5 423.5> 579 80<710 729>
AnchorPoint: "Anchor-1" 385 702 basechar 0
AnchorPoint: "Anchor-0" 367 0 basechar 0
LayerCount: 2
Fore
SplineSet
429 759 m 0,0,1
 398 759 398 759 369 772.5 c 128,-1,2
 340 786 340 786 319.5 786 c 128,-1,3
 299 786 299 786 276.5 773 c 128,-1,4
 254 760 254 760 236.5 784 c 128,-1,5
 219 808 219 808 240 831 c 0,6,7
 286 872 286 872 325.5 872 c 128,-1,8
 365 872 365 872 395.5 858.5 c 128,-1,9
 426 845 426 845 448 845 c 128,-1,10
 470 845 470 845 491.5 860.5 c 128,-1,11
 513 876 513 876 530.5 854 c 128,-1,12
 548 832 548 832 524 800 c 1,13,14
 486 759 486 759 429 759 c 0,0,1
575 643 m 1,15,16
 686 552 686 552 686 350 c 0,17,18
 686 177 686 177 603.5 84.5 c 128,-1,19
 521 -8 521 -8 366 -8 c 128,-1,20
 211 -8 211 -8 128 84.5 c 128,-1,21
 45 177 45 177 45 350 c 128,-1,22
 45 523 45 523 128 615.5 c 128,-1,23
 211 708 211 708 366 708 c 0,24,25
 446 708 446 708 509 682 c 1,26,-1
 532 682 l 2,27,28
 579 682 579 682 579 718 c 0,29,30
 579 730 579 730 566 747.5 c 128,-1,31
 553 765 553 765 553 773.5 c 128,-1,32
 553 782 553 782 564 789 c 2,33,-1
 596 811 l 2,34,35
 602 816 602 816 612 816 c 0,36,37
 630 816 630 816 644.5 787 c 128,-1,38
 659 758 659 758 659 733 c 0,39,40
 659 659 659 659 575 643 c 1,15,16
366 123 m 128,-1,42
 446 123 446 123 487 181 c 128,-1,43
 528 239 528 239 528 350 c 128,-1,44
 528 461 528 461 487 518.5 c 128,-1,45
 446 576 446 576 366 576 c 128,-1,46
 286 576 286 576 244.5 518.5 c 128,-1,47
 203 461 203 461 203 350 c 128,-1,48
 203 239 203 239 244.5 181 c 128,-1,41
 286 123 286 123 366 123 c 128,-1,42
EndSplineSet
Position2: "'cpsp' Capital Spacing lookup 0 subtable" dx=5 dy=0 dh=10 dv=0
EndChar

StartChar: Ohungarumlaut
Encoding: 336 336 124
Width: 731
GlyphClass: 2
Flags: MW
HStem: -8 131<312.5 419.5 312.5 469> 576 132<312.5 419.5> 752 159<231 382 342 449.5>
VStem: 45 158<276.5 423.5 276.5 465.5> 528 158<276.5 423.5>
AnchorPoint: "Anchor-1" 367 877 basechar 0
AnchorPoint: "Anchor-0" 367 0 basechar 0
LayerCount: 2
Fore
SplineSet
277 884 m 0,0,1
 292 911 292 911 357 911 c 128,-1,2
 422 911 422 911 422 897 c 0,3,4
 422 891 422 891 416 883 c 128,-1,5
 410 875 410 875 392 856.5 c 128,-1,6
 374 838 374 838 367 830.5 c 128,-1,7
 360 823 360 823 346 807.5 c 128,-1,8
 332 792 332 792 318 777 c 0,9,10
 295 752 295 752 243 752 c 0,11,12
 212 752 212 752 212 767 c 0,13,14
 212 777.5 212 777.5 226.5 799.25 c 128,-1,15
 241 821 241 821 253 842 c 128,-1,16
 265 863 265 863 277 884 c 0,0,1
460 884 m 0,17,18
 475 911 475 911 540 911 c 128,-1,19
 605 911 605 911 605 897 c 0,20,21
 605 891 605 891 599 883 c 128,-1,22
 593 875 593 875 575 856.5 c 128,-1,23
 557 838 557 838 550 830.5 c 128,-1,24
 543 823 543 823 529 807.5 c 128,-1,25
 515 792 515 792 501 777 c 0,26,27
 478 752 478 752 426 752 c 0,28,29
 395 752 395 752 395 767 c 0,30,31
 395 777.5 395 777.5 409.5 799.25 c 128,-1,32
 424 821 424 821 436 842 c 128,-1,33
 448 863 448 863 460 884 c 0,17,18
366 708 m 128,-1,35
 521 708 521 708 603.5 615.5 c 128,-1,36
 686 523 686 523 686 350 c 128,-1,37
 686 177 686 177 603.5 84.5 c 128,-1,38
 521 -8 521 -8 366 -8 c 128,-1,39
 211 -8 211 -8 128 84.5 c 128,-1,40
 45 177 45 177 45 350 c 128,-1,41
 45 523 45 523 128 615.5 c 128,-1,34
 211 708 211 708 366 708 c 128,-1,35
366 576 m 128,-1,43
 286 576 286 576 244.5 518.5 c 128,-1,44
 203 461 203 461 203 350 c 128,-1,45
 203 239 203 239 244.5 181 c 128,-1,46
 286 123 286 123 366 123 c 128,-1,47
 446 123 446 123 487 181 c 128,-1,48
 528 239 528 239 528 350 c 128,-1,49
 528 461 528 461 487 518.5 c 128,-1,42
 446 576 446 576 366 576 c 128,-1,43
EndSplineSet
Position2: "'cpsp' Capital Spacing lookup 0 subtable" dx=5 dy=0 dh=10 dv=0
EndChar

StartChar: Omacron
Encoding: 332 332 125
Width: 731
GlyphClass: 2
Flags: MW
HStem: -8 131<312.5 419.5 312.5 469> 576 132<312.5 419.5> 774 95<248.5 474 259 474>
VStem: 45 158<276.5 423.5 276.5 465.5> 528 158<276.5 423.5>
AnchorPoint: "Anchor-1" 365 877 basechar 0
AnchorPoint: "Anchor-0" 367 0 basechar 0
LayerCount: 2
Fore
SplineSet
259 869 m 2,0,-1
 474 869 l 2,1,2
 504 869 504 869 504 829 c 2,3,-1
 504 814 l 2,4,5
 504 774 504 774 474 774 c 2,6,-1
 259 774 l 2,7,8
 229 774 229 774 229 814 c 2,9,-1
 229 829 l 2,10,11
 229 869 229 869 259 869 c 2,0,-1
366 708 m 128,-1,13
 521 708 521 708 603.5 615.5 c 128,-1,14
 686 523 686 523 686 350 c 128,-1,15
 686 177 686 177 603.5 84.5 c 128,-1,16
 521 -8 521 -8 366 -8 c 128,-1,17
 211 -8 211 -8 128 84.5 c 128,-1,18
 45 177 45 177 45 350 c 128,-1,19
 45 523 45 523 128 615.5 c 128,-1,12
 211 708 211 708 366 708 c 128,-1,13
366 576 m 128,-1,21
 286 576 286 576 244.5 518.5 c 128,-1,22
 203 461 203 461 203 350 c 128,-1,23
 203 239 203 239 244.5 181 c 128,-1,24
 286 123 286 123 366 123 c 128,-1,25
 446 123 446 123 487 181 c 128,-1,26
 528 239 528 239 528 350 c 128,-1,27
 528 461 528 461 487 518.5 c 128,-1,20
 446 576 446 576 366 576 c 128,-1,21
EndSplineSet
Position2: "'cpsp' Capital Spacing lookup 0 subtable" dx=5 dy=0 dh=10 dv=0
EndChar

StartChar: Oogonek
Encoding: 490 490 126
Width: 731
GlyphClass: 2
Flags: MW
HStem: -183 70<482.5 502> -8 131<312.5 366 366 384> 576 132<312.5 419.5>
VStem: 45 158<276.5 423.5 276.5 465.5> 365 67<-86 -73.5> 528 158<276.5 423.5>
AnchorPoint: "Anchor-1" 366 700 basechar 0
AnchorPoint: "Anchor-0" 377 -203 basechar 0
LayerCount: 2
Fore
SplineSet
603.5 615.5 m 128,-1,1
 686 523 686 523 686 361.5 c 128,-1,2
 686 200 686 200 623.5 110 c 128,-1,3
 561 20 561 20 443 -1 c 1,4,-1
 443 -5 l 2,5,6
 443 -11 443 -11 437.5 -28.5 c 128,-1,7
 432 -46 432 -46 432 -62 c 0,8,9
 432 -113 432 -113 494 -113 c 0,10,11
 507 -113 507 -113 521 -109 c 128,-1,12
 535 -105 535 -105 543 -105 c 0,13,14
 565 -105 565 -105 565 -133 c 0,15,16
 565 -183 565 -183 483 -183 c 0,17,18
 446 -183 446 -183 420 -171.5 c 128,-1,19
 394 -160 394 -160 383.5 -142 c 0,20,21
 365 -110.285714286 365 -110.285714286 365 -72.6428571429 c 128,-1,22
 365 -35 365 -35 384 -8 c 1,23,-1
 366 -8 l 2,24,25
 211 -8 211 -8 128 84.5 c 128,-1,26
 45 177 45 177 45 350 c 128,-1,27
 45 523 45 523 128 615.5 c 128,-1,28
 211 708 211 708 366 708 c 128,-1,0
 521 708 521 708 603.5 615.5 c 128,-1,1
366 123 m 128,-1,30
 446 123 446 123 487 181 c 128,-1,31
 528 239 528 239 528 350 c 128,-1,32
 528 461 528 461 487 518.5 c 128,-1,33
 446 576 446 576 366 576 c 128,-1,34
 286 576 286 576 244.5 518.5 c 128,-1,35
 203 461 203 461 203 350 c 128,-1,36
 203 239 203 239 244.5 181 c 128,-1,29
 286 123 286 123 366 123 c 128,-1,30
EndSplineSet
Position2: "'cpsp' Capital Spacing lookup 0 subtable" dx=5 dy=0 dh=10 dv=0
EndChar

StartChar: Oslash
Encoding: 216 216 127
Width: 731
GlyphClass: 2
Flags: MW
HStem: -8 131<340 419.5 340 469> 576 132<312.5 385.5>
VStem: 45 158<333 423.5 333 465.5> 528 158<276.5 374.5>
AnchorPoint: "Anchor-1" 366 700 basechar 0
AnchorPoint: "Anchor-0" 0 0 basechar 0
LayerCount: 2
Fore
SplineSet
366 708 m 0,0,1
 484 708 484 708 560 653 c 1,2,-1
 612 712 l 2,3,4
 622 724 622 724 634.5 724 c 0,5,6
 647 724 647 724 664.5 707.5 c 128,-1,7
 682 691 682 691 682 679.5 c 0,8,9
 682 668 682 668 672 658 c 2,10,-1
 618 597 l 1,11,12
 686 504 686 504 686 340.5 c 0,13,14
 686 177 686 177 603.5 84.5 c 128,-1,15
 521 -8 521 -8 374 -8 c 0,16,17
 227 -8 227 -8 147 66 c 1,18,-1
 89 0 l 2,19,20
 78 -12 78 -12 66 -12 c 0,21,22
 54 -12 54 -12 36.5 4 c 128,-1,23
 19 20 19 20 19 32 c 0,24,25
 19 44 19 44 29 54 c 2,26,-1
 95 129 l 1,27,28
 45 215 45 215 45 350 c 0,29,30
 45 523 45 523 128 615.5 c 128,-1,31
 211 708 211 708 366 708 c 0,0,1
366 576 m 0,32,33
 286 576 286 576 244.5 518.5 c 128,-1,34
 203 461 203 461 203 350 c 0,35,36
 203 303 203 303 211 260 c 1,37,-1
 463 544 l 1,38,39
 425 576 425 576 366 576 c 0,32,33
509 474 m 1,40,-1
 247 178 l 1,41,42
 288 123 288 123 367 123 c 0,43,44
 446 123 446 123 487 181 c 128,-1,45
 528 239 528 239 528 350 c 0,46,47
 528 422 528 422 509 474 c 1,40,-1
EndSplineSet
Position2: "'cpsp' Capital Spacing lookup 0 subtable" dx=5 dy=0 dh=10 dv=0
EndChar

StartChar: Oslashacute
Encoding: 510 510 128
Width: 731
GlyphClass: 2
Flags: MW
HStem: -8 131<340 419.5 340 469> 576 132<312.5 385.5> 752 159<315 466>
VStem: 45 158<333 423.5 333 465.5> 528 158<276.5 374.5>
AnchorPoint: "Anchor-1" 372 877 basechar 0
AnchorPoint: "Anchor-0" 0 0 basechar 0
LayerCount: 2
Fore
SplineSet
361 884 m 0,0,1
 376 911 376 911 441 911 c 128,-1,2
 506 911 506 911 506 897 c 0,3,4
 506 891 506 891 500 883 c 128,-1,5
 494 875 494 875 476 856.5 c 128,-1,6
 458 838 458 838 451 830.5 c 128,-1,7
 444 823 444 823 430 807.5 c 128,-1,8
 416 792 416 792 402 777 c 0,9,10
 379 752 379 752 327 752 c 0,11,12
 296 752 296 752 296 767 c 0,13,14
 296 777.5 296 777.5 310.5 799.25 c 128,-1,15
 325 821 325 821 337 842 c 128,-1,16
 349 863 349 863 361 884 c 0,0,1
366 708 m 0,17,18
 484 708 484 708 560 653 c 1,19,-1
 612 712 l 2,20,21
 622 724 622 724 634.5 724 c 128,-1,22
 647 724 647 724 664.5 707.5 c 128,-1,23
 682 691 682 691 682 679.5 c 128,-1,24
 682 668 682 668 672 658 c 2,25,-1
 618 597 l 1,26,27
 686 504 686 504 686 340.5 c 128,-1,28
 686 177 686 177 603.5 84.5 c 128,-1,29
 521 -8 521 -8 374 -8 c 128,-1,30
 227 -8 227 -8 147 66 c 1,31,-1
 89 0 l 2,32,33
 78 -12 78 -12 66 -12 c 128,-1,34
 54 -12 54 -12 36.5 4 c 128,-1,35
 19 20 19 20 19 32 c 128,-1,36
 19 44 19 44 29 54 c 2,37,-1
 95 129 l 1,38,39
 45 215 45 215 45 350 c 0,40,41
 45 523 45 523 128 615.5 c 128,-1,42
 211 708 211 708 366 708 c 0,17,18
366 576 m 0,43,44
 286 576 286 576 244.5 518.5 c 128,-1,45
 203 461 203 461 203 350 c 0,46,47
 203 303 203 303 211 260 c 1,48,-1
 463 544 l 1,49,50
 425 576 425 576 366 576 c 0,43,44
509 474 m 1,51,-1
 247 178 l 1,52,53
 288 123 288 123 367 123 c 128,-1,54
 446 123 446 123 487 181 c 128,-1,55
 528 239 528 239 528 350 c 0,56,57
 528 422 528 422 509 474 c 1,51,-1
EndSplineSet
Position2: "'cpsp' Capital Spacing lookup 0 subtable" dx=5 dy=0 dh=10 dv=0
EndChar

StartChar: Otilde
Encoding: 213 213 129
Width: 731
GlyphClass: 2
Flags: MW
HStem: -8 131<312.5 419.5 312.5 469> 576 132<312.5 419.5> 757 86<421.5 435.5> 784 86<287.5 303>
VStem: 45 158<276.5 423.5 276.5 465.5> 528 158<276.5 423.5>
AnchorPoint: "Anchor-1" 365 877 basechar 0
AnchorPoint: "Anchor-0" 367 0 basechar 0
LayerCount: 2
Fore
SplineSet
205 829 m 0,0,1
 257 870 257 870 300 870 c 128,-1,2
 343 870 343 870 377.5 856.5 c 128,-1,3
 412 843 412 843 436 843 c 128,-1,4
 460 843 460 843 484.5 858 c 128,-1,5
 509 873 509 873 529 852 c 0,6,7
 548 830 548 830 521 798 c 0,8,9
 480 757 480 757 415 757 c 0,10,11
 381 757 381 757 349 770.5 c 128,-1,12
 317 784 317 784 293.5 784 c 128,-1,13
 270 784 270 784 245.5 771 c 128,-1,14
 221 758 221 758 201.5 782 c 128,-1,15
 182 806 182 806 205 829 c 0,0,1
366 708 m 128,-1,17
 521 708 521 708 603.5 615.5 c 128,-1,18
 686 523 686 523 686 350 c 128,-1,19
 686 177 686 177 603.5 84.5 c 128,-1,20
 521 -8 521 -8 366 -8 c 128,-1,21
 211 -8 211 -8 128 84.5 c 128,-1,22
 45 177 45 177 45 350 c 128,-1,23
 45 523 45 523 128 615.5 c 128,-1,16
 211 708 211 708 366 708 c 128,-1,17
366 576 m 128,-1,25
 286 576 286 576 244.5 518.5 c 128,-1,26
 203 461 203 461 203 350 c 128,-1,27
 203 239 203 239 244.5 181 c 128,-1,28
 286 123 286 123 366 123 c 128,-1,29
 446 123 446 123 487 181 c 128,-1,30
 528 239 528 239 528 350 c 128,-1,31
 528 461 528 461 487 518.5 c 128,-1,24
 446 576 446 576 366 576 c 128,-1,25
EndSplineSet
Position2: "'cpsp' Capital Spacing lookup 0 subtable" dx=5 dy=0 dh=10 dv=0
EndChar

StartChar: OE
Encoding: 338 338 130
Width: 1021
GlyphClass: 2
Flags: MW
HStem: -8 131<312.5 389.5> 0 131<556.5 937 684 937 684 937> 293 131<684 909 684 909> 569 131<684 936 684 684> 576 132<312.5 390 256 419.5>
VStem: 45 158<276.5 423.5 276.5 465.5> 528 156<276.5 293>
AnchorPoint: "Anchor-1" 511 700 basechar 0
AnchorPoint: "Anchor-0" 0 0 basechar 0
LayerCount: 2
Fore
SplineSet
684 131 m 1,0,-1
 937 131 l 2,1,2
 967 131 967 131 967 81 c 2,3,-1
 967 50 l 2,4,5
 967 0 967 0 937 0 c 2,6,-1
 570 0 l 2,7,8
 531 0 531 0 530 37 c 1,9,10
 456.5 -8 456.5 -8 356 -8 c 0,11,12
 206 -8 206 -8 125.5 84.5 c 128,-1,13
 45 177 45 177 45 350 c 128,-1,14
 45 523 45 523 125.5 615.5 c 128,-1,15
 206 708 206 708 356 708 c 0,16,17
 457 708 457 708 530 662 c 1,18,19
 530 700 530 700 570 700 c 2,20,-1
 936 700 l 2,21,22
 966 700 966 700 966 650 c 2,23,-1
 966 619 l 2,24,25
 966 569 966 569 936 569 c 2,26,-1
 684 569 l 1,27,-1
 684 424 l 1,28,-1
 909 424 l 2,29,30
 939 424 939 424 939 374 c 2,31,-1
 939 343 l 2,32,33
 939 293 939 293 909 293 c 2,34,-1
 684 293 l 1,35,-1
 684 131 l 1,0,-1
366 123 m 128,-1,37
 446 123 446 123 487 181 c 128,-1,38
 528 239 528 239 528 350 c 128,-1,39
 528 461 528 461 487 518.5 c 128,-1,40
 446 576 446 576 366 576 c 128,-1,41
 286 576 286 576 244.5 518.5 c 128,-1,42
 203 461 203 461 203 350 c 128,-1,43
 203 239 203 239 244.5 181 c 128,-1,36
 286 123 286 123 366 123 c 128,-1,37
EndSplineSet
Position2: "'cpsp' Capital Spacing lookup 0 subtable" dx=5 dy=0 dh=10 dv=0
EndChar

StartChar: P
Encoding: 80 80 131
Width: 570
GlyphClass: 2
Flags: MW
HStem: 262 132<223 312 312 329 223 312> 569 131<223 223 223 312>
VStem: 69 154<30 262 394 569> 399 158<445 517>
LayerCount: 2
Fore
SplineSet
109 700 m 2,0,-1
 319 700 l 2,1,2
 435.8 700 435.8 700 499.5 641.5 c 0,3,4
 524 619 524 619 540.5 577.5 c 128,-1,5
 557 536 557 536 557 481 c 128,-1,6
 557 426 557 426 538 384.5 c 128,-1,7
 519 343 519 343 492.5 320.5 c 128,-1,8
 466 298 466 298 432 284 c 0,9,10
 378.571428571 262 378.571428571 262 329 262 c 2,11,-1
 223 262 l 1,12,-1
 223 30 l 2,13,14
 223 -2 223 -2 163 -2 c 2,15,-1
 129 -2 l 2,16,17
 69 -2 69 -2 69 30 c 2,18,-1
 69 660 l 2,19,20
 69 700 69 700 109 700 c 2,0,-1
223 569 m 1,21,-1
 223 394 l 1,22,-1
 312 394 l 2,23,24
 348 394 348 394 373.5 413 c 128,-1,25
 399 432 399 432 399 481 c 128,-1,26
 399 530 399 530 373.5 549.5 c 128,-1,27
 348 569 348 569 312 569 c 2,28,-1
 223 569 l 1,21,-1
EndSplineSet
Position2: "'cpsp' Capital Spacing lookup 0 subtable" dx=5 dy=0 dh=10 dv=0
EndChar

StartChar: Thorn
Encoding: 222 222 132
Width: 567
GlyphClass: 2
Flags: MW
HStem: 155 132<222 318 318 335 222 318> 462 131<222 325 222 318> 682 20G<128 162 162 183>
VStem: 68 154<30 155 287 462 593 670> 405 158<338 410>
LayerCount: 2
Fore
SplineSet
128 702 m 2,0,-1
 162 702 l 2,1,2
 222 702 222 702 222 670 c 2,3,-1
 222 593 l 1,4,-1
 325 593 l 2,5,6
 441.8 593 441.8 593 505.5 534.5 c 0,7,8
 530 512 530 512 546.5 470.5 c 128,-1,9
 563 429 563 429 563 374 c 128,-1,10
 563 319 563 319 544 277.5 c 128,-1,11
 525 236 525 236 498.5 213.5 c 128,-1,12
 472 191 472 191 438 177 c 0,13,14
 384.571428571 155 384.571428571 155 335 155 c 2,15,-1
 222 155 l 1,16,-1
 222 30 l 2,17,18
 222 -2 222 -2 162 -2 c 2,19,-1
 128 -2 l 2,20,21
 68 -2 68 -2 68 30 c 2,22,-1
 68 670 l 2,23,24
 68 702 68 702 128 702 c 2,0,-1
222 462 m 1,25,-1
 222 287 l 1,26,-1
 318 287 l 2,27,28
 354 287 354 287 379.5 306 c 128,-1,29
 405 325 405 325 405 374 c 128,-1,30
 405 423 405 423 379.5 442.5 c 128,-1,31
 354 462 354 462 318 462 c 2,32,-1
 222 462 l 1,25,-1
EndSplineSet
Position2: "'cpsp' Capital Spacing lookup 0 subtable" dx=5 dy=0 dh=10 dv=0
EndChar

StartChar: Q
Encoding: 81 81 133
Width: 731
GlyphClass: 2
Flags: MW
HStem: 576 132<312.5 419.5>
VStem: 45 158<275 423.5 275 465.5> 528 158<275 423.5>
LayerCount: 2
Fore
SplineSet
366 708 m 128,-1,1
 521 708 521 708 603.5 615.5 c 128,-1,2
 686 523 686 523 686 350 c 0,3,4
 686 112 686 112 529 31 c 1,5,-1
 529 27 l 1,6,-1
 682 -28 l 2,7,8
 696 -33 696 -33 696 -48.5 c 0,9,10
 696 -64 696 -64 679 -105 c 128,-1,11
 662 -146 662 -146 641 -146 c 0,12,13
 635 -146 635 -146 503.5 -93.5 c 0,14,15
 372 -41 372 -41 227 16 c 0,16,17
 138 51 138 51 91.5 136 c 128,-1,18
 45 221 45 221 45 350 c 0,19,20
 45 523 45 523 128 615.5 c 128,-1,0
 211 708 211 708 366 708 c 128,-1,1
366 576 m 128,-1,22
 286 576 286 576 244.5 518.5 c 128,-1,23
 203 461 203 461 203 349 c 0,24,25
 203 237 203 237 244.5 178 c 128,-1,26
 286 119 286 119 366 119 c 128,-1,27
 446 119 446 119 487 178 c 128,-1,28
 528 237 528 237 528 349 c 0,29,30
 528 461 528 461 487 518.5 c 128,-1,21
 446 576 446 576 366 576 c 128,-1,22
EndSplineSet
Position2: "'cpsp' Capital Spacing lookup 0 subtable" dx=5 dy=0 dh=10 dv=0
EndChar

StartChar: R
Encoding: 82 82 134
Width: 610
GlyphClass: 2
Flags: MW
HStem: 274 133<223 262 223 318> 569 131<223 223 223 304 304 311>
VStem: 69 154<30 274 407 569> 395 158<473.5 516>
AnchorPoint: "Anchor-1" 305 700 basechar 0
AnchorPoint: "Anchor-0" 305 0 basechar 0
LayerCount: 2
Fore
SplineSet
109 700 m 2,0,-1
 304 700 l 2,1,2
 553 700 553 700 553 512 c 0,3,4
 553 456 553 456 521.5 414.5 c 128,-1,5
 490 373 490 373 436 353 c 1,6,-1
 436 349 l 1,7,8
 455 342 455 342 475 315.5 c 128,-1,9
 495 289 495 289 508 257 c 2,10,-1
 596 37 l 2,11,12
 601 24 601 24 601 18 c 0,13,14
 601 -2 601 -2 541 -2 c 2,15,-1
 500 -2 l 2,16,17
 450 -2 450 -2 442 19 c 2,18,-1
 363 214 l 1,19,20
 346 247 346 247 326.5 260.5 c 128,-1,21
 307 274 307 274 262 274 c 2,22,-1
 223 274 l 1,23,-1
 223 30 l 2,24,25
 223 -2 223 -2 163 -2 c 2,26,-1
 129 -2 l 2,27,28
 69 -2 69 -2 69 30 c 2,29,-1
 69 660 l 2,30,31
 69 700 69 700 109 700 c 2,0,-1
223 569 m 1,32,-1
 223 407 l 1,33,-1
 318 407 l 2,34,35
 349 407 349 407 372 432 c 128,-1,36
 395 457 395 457 395 492.5 c 0,37,38
 395 528 395 528 372.5 548.5 c 128,-1,39
 350 569 350 569 311 569 c 2,40,-1
 223 569 l 1,32,-1
EndSplineSet
Position2: "'cpsp' Capital Spacing lookup 0 subtable" dx=5 dy=0 dh=10 dv=0
EndChar

StartChar: Racute
Encoding: 340 340 135
Width: 610
GlyphClass: 2
Flags: MW
HStem: 274 133<223 262 223 318> 569 131<223 223 223 304 304 311> 752 159<254 405>
VStem: 69 154<30 274 407 569> 395 158<473.5 516>
AnchorPoint: "Anchor-1" 311 877 basechar 0
AnchorPoint: "Anchor-0" 305 0 basechar 0
LayerCount: 2
Fore
SplineSet
300 884 m 0,0,1
 315 911 315 911 380 911 c 128,-1,2
 445 911 445 911 445 897 c 0,3,4
 445 891 445 891 439 883 c 128,-1,5
 433 875 433 875 415 856.5 c 128,-1,6
 397 838 397 838 390 830.5 c 128,-1,7
 383 823 383 823 369 807.5 c 128,-1,8
 355 792 355 792 341 777 c 0,9,10
 318 752 318 752 266 752 c 0,11,12
 235 752 235 752 235 767 c 0,13,14
 235 777.5 235 777.5 249.5 799.25 c 128,-1,15
 264 821 264 821 276 842 c 128,-1,16
 288 863 288 863 300 884 c 0,0,1
109 700 m 2,17,-1
 304 700 l 2,18,19
 553 700 553 700 553 512 c 0,20,21
 553 456 553 456 521.5 414.5 c 128,-1,22
 490 373 490 373 436 353 c 1,23,-1
 436 349 l 1,24,25
 455 342 455 342 475 315.5 c 128,-1,26
 495 289 495 289 508 257 c 2,27,-1
 596 37 l 2,28,29
 601 24 601 24 601 18 c 0,30,31
 601 -2 601 -2 541 -2 c 2,32,-1
 500 -2 l 2,33,34
 450 -2 450 -2 442 19 c 2,35,-1
 363 214 l 1,36,37
 346 247 346 247 326.5 260.5 c 128,-1,38
 307 274 307 274 262 274 c 2,39,-1
 223 274 l 1,40,-1
 223 30 l 2,41,42
 223 -2 223 -2 163 -2 c 2,43,-1
 129 -2 l 2,44,45
 69 -2 69 -2 69 30 c 2,46,-1
 69 660 l 2,47,48
 69 700 69 700 109 700 c 2,17,-1
223 569 m 1,49,-1
 223 407 l 1,50,-1
 318 407 l 2,51,52
 349 407 349 407 372 432 c 128,-1,53
 395 457 395 457 395 492.5 c 128,-1,54
 395 528 395 528 372.5 548.5 c 128,-1,55
 350 569 350 569 311 569 c 2,56,-1
 223 569 l 1,49,-1
EndSplineSet
Position2: "'cpsp' Capital Spacing lookup 0 subtable" dx=5 dy=0 dh=10 dv=0
EndChar

StartChar: Rcaron
Encoding: 344 344 136
Width: 610
GlyphClass: 2
Flags: MW
HStem: 274 133<223 262 223 318> 569 131<223 223 223 304 304 311> 749 146<188 300 188 311>
VStem: 69 154<30 274 407 569> 395 158<473.5 516>
AnchorPoint: "Anchor-1" 306 877 basechar 0
AnchorPoint: "Anchor-0" 305 0 basechar 0
LayerCount: 2
Fore
SplineSet
401 895 m 2,0,-1
 423 895 l 2,1,2
 443 895 443 895 443 885 c 0,3,4
 443 879 443 879 437 870 c 2,5,-1
 372 768 l 2,6,7
 360 749 360 749 311 749 c 2,8,-1
 300 749 l 2,9,10
 251 749 251 749 239 768 c 2,11,-1
 174 870 l 2,12,13
 168 879 168 879 168 885 c 0,14,15
 168 895 168 895 188 895 c 2,16,-1
 210 895 l 2,17,18
 259 895 259 895 277 870 c 2,19,-1
 305 831 l 1,20,-1
 333 871 l 2,21,22
 349 895 349 895 401 895 c 2,0,-1
109 700 m 2,23,-1
 304 700 l 2,24,25
 553 700 553 700 553 512 c 0,26,27
 553 456 553 456 521.5 414.5 c 128,-1,28
 490 373 490 373 436 353 c 1,29,-1
 436 349 l 1,30,31
 455 342 455 342 475 315.5 c 128,-1,32
 495 289 495 289 508 257 c 2,33,-1
 596 37 l 2,34,35
 601 24 601 24 601 18 c 0,36,37
 601 -2 601 -2 541 -2 c 2,38,-1
 500 -2 l 2,39,40
 450 -2 450 -2 442 19 c 2,41,-1
 363 214 l 1,42,43
 346 247 346 247 326.5 260.5 c 128,-1,44
 307 274 307 274 262 274 c 2,45,-1
 223 274 l 1,46,-1
 223 30 l 2,47,48
 223 -2 223 -2 163 -2 c 2,49,-1
 129 -2 l 2,50,51
 69 -2 69 -2 69 30 c 2,52,-1
 69 660 l 2,53,54
 69 700 69 700 109 700 c 2,23,-1
223 569 m 1,55,-1
 223 407 l 1,56,-1
 318 407 l 2,57,58
 349 407 349 407 372 432 c 128,-1,59
 395 457 395 457 395 492.5 c 0,60,61
 395 528 395 528 372.5 548.5 c 128,-1,62
 350 569 350 569 311 569 c 2,63,-1
 223 569 l 1,55,-1
EndSplineSet
Position2: "'cpsp' Capital Spacing lookup 0 subtable" dx=5 dy=0 dh=10 dv=0
EndChar

StartChar: Rcommaaccent
Encoding: 342 342 137
Width: 610
GlyphClass: 2
Flags: MW
HStem: -240 189<250 317> 274 133<223 262 223 318> 569 131<223 223 223 304 304 311>
VStem: 69 154<30 274 407 569> 238 129<-128.5 -82.5 -128.5 -81.5> 395 158<473.5 516>
AnchorPoint: "Anchor-1" 305 700 basechar 0
AnchorPoint: "Anchor-0" 305 -203 basechar 0
LayerCount: 2
Fore
SplineSet
109 700 m 2,0,-1
 304 700 l 2,1,2
 553 700 553 700 553 512 c 0,3,4
 553 456 553 456 521.5 414.5 c 128,-1,5
 490 373 490 373 436 353 c 1,6,-1
 436 349 l 1,7,8
 455 342 455 342 475 315.5 c 128,-1,9
 495 289 495 289 508 257 c 2,10,-1
 596 37 l 2,11,12
 601 24 601 24 601 18 c 0,13,14
 601 -2 601 -2 541 -2 c 2,15,-1
 500 -2 l 2,16,17
 450 -2 450 -2 442 19 c 2,18,-1
 363 214 l 1,19,20
 346 247 346 247 326.5 260.5 c 128,-1,21
 307 274 307 274 262 274 c 2,22,-1
 223 274 l 1,23,-1
 223 30 l 2,24,25
 223 -2 223 -2 163 -2 c 2,26,-1
 129 -2 l 2,27,28
 69 -2 69 -2 69 30 c 2,29,-1
 69 660 l 2,30,31
 69 700 69 700 109 700 c 2,0,-1
223 569 m 1,32,-1
 223 407 l 1,33,-1
 318 407 l 2,34,35
 349 407 349 407 372 432 c 128,-1,36
 395 457 395 457 395 492.5 c 0,37,38
 395 528 395 528 372.5 548.5 c 128,-1,39
 350 569 350 569 311 569 c 2,40,-1
 223 569 l 1,32,-1
298 -51 m 2,41,-1
 317 -51 l 2,42,43
 367 -51 367 -51 367 -95 c 0,44,45
 367 -142 367 -142 327.5 -191 c 128,-1,46
 288 -240 288 -240 259 -240 c 0,47,48
 243 -240 243 -240 228.5 -234.5 c 128,-1,49
 214 -229 214 -229 214 -218 c 0,50,51
 214 -217 214 -217 226 -180 c 128,-1,52
 238 -143 238 -143 238 -95 c 0,53,54
 238 -51 238 -51 298 -51 c 2,41,-1
EndSplineSet
Position2: "'cpsp' Capital Spacing lookup 0 subtable" dx=5 dy=0 dh=10 dv=0
EndChar

StartChar: Rdotbelow
Encoding: 7770 7770 138
Width: 610
GlyphClass: 2
Flags: MW
HStem: -204 124<286 328> 274 133<223 262 223 318> 569 131<223 223 223 304 304 311>
VStem: 69 154<30 274 407 569> 247 120<-172 -112 -182.5 -101.5> 395 158<473.5 516>
AnchorPoint: "Anchor-1" 309 -82 basechar 0
AnchorPoint: "Anchor-0" 308 -203 basechar 0
LayerCount: 2
Fore
SplineSet
109 700 m 2,0,-1
 304 700 l 2,1,2
 553 700 553 700 553 512 c 0,3,4
 553 456 553 456 521.5 414.5 c 128,-1,5
 490 373 490 373 436 353 c 1,6,-1
 436 349 l 1,7,8
 455 342 455 342 475 315.5 c 128,-1,9
 495 289 495 289 508 257 c 2,10,-1
 596 37 l 2,11,12
 601 24 601 24 601 18 c 0,13,14
 601 -2 601 -2 541 -2 c 2,15,-1
 500 -2 l 2,16,17
 450 -2 450 -2 442 19 c 2,18,-1
 363 214 l 1,19,20
 346 247 346 247 326.5 260.5 c 128,-1,21
 307 274 307 274 262 274 c 2,22,-1
 223 274 l 1,23,-1
 223 30 l 2,24,25
 223 -2 223 -2 163 -2 c 2,26,-1
 129 -2 l 2,27,28
 69 -2 69 -2 69 30 c 2,29,-1
 69 660 l 2,30,31
 69 700 69 700 109 700 c 2,0,-1
223 569 m 1,32,-1
 223 407 l 1,33,-1
 318 407 l 2,34,35
 349 407 349 407 372 432 c 128,-1,36
 395 457 395 457 395 492.5 c 0,37,38
 395 528 395 528 372.5 548.5 c 128,-1,39
 350 569 350 569 311 569 c 2,40,-1
 223 569 l 1,32,-1
307 -80 m 128,-1,42
 367 -80 367 -80 367 -112 c 2,43,-1
 367 -172 l 2,44,45
 367 -204 367 -204 307 -204 c 128,-1,46
 247 -204 247 -204 247 -172 c 2,47,-1
 247 -112 l 2,48,41
 247 -80 247 -80 307 -80 c 128,-1,42
EndSplineSet
Position2: "'cpsp' Capital Spacing lookup 0 subtable" dx=5 dy=0 dh=10 dv=0
EndChar

StartChar: S
Encoding: 83 83 139
Width: 500
GlyphClass: 2
Flags: MW
HStem: -8 131<191 252.5 191 311.5> 576 132<248 320.5>
VStem: 36 158<492.5 531.5 492.5 578> 325 158<164.5 223>
AnchorPoint: "Anchor-1" 250 700 basechar 0
AnchorPoint: "Anchor-0" 250 0 basechar 0
LayerCount: 2
Fore
SplineSet
186 696.5 m 128,-1,1
 227 708 227 708 288 708 c 128,-1,2
 349 708 349 708 401 686 c 128,-1,3
 453 664 453 664 453 638 c 0,4,5
 453 616 453 616 434 583.5 c 128,-1,6
 415 551 415 551 398 551 c 0,7,8
 394 551 394 551 380 557.5 c 0,9,10
 340.153846154 576 340.153846154 576 287 576 c 0,11,12
 194 576 194 576 194 520 c 0,13,14
 194 494 194 494 210.5 474.5 c 128,-1,15
 227 455 227 455 245.5 446 c 128,-1,16
 264 437 264 437 296.5 423.5 c 128,-1,17
 329 410 329 410 343.5 403.5 c 128,-1,18
 358 397 358 397 383.5 383 c 128,-1,19
 409 369 409 369 423.5 354.5 c 128,-1,20
 438 340 438 340 453.5 319 c 0,21,22
 483 279.032258065 483 279.032258065 483 215.516129032 c 128,-1,23
 483 152 483 152 463.5 108 c 128,-1,24
 444 64 444 64 410.5 39.5 c 0,25,26
 345.551020408 -8 345.551020408 -8 248.775510204 -8 c 128,-1,27
 152 -8 152 -8 87 21 c 128,-1,28
 22 50 22 50 22 80 c 0,29,30
 22 103 22 103 45 136 c 128,-1,31
 68 169 68 169 84 169 c 0,32,33
 90 169 90 169 110.5 157.5 c 0,34,35
 172 123 172 123 231 123 c 0,36,37
 325 123 325 123 325 193 c 0,38,39
 325 226.485714286 325 226.485714286 291.5 248.5 c 0,40,41
 264.177865613 266.454545455 264.177865613 266.454545455 225.088932806 282.227272727 c 128,-1,42
 186 298 186 298 171 305 c 0,43,44
 108 335 108 335 72 379.5 c 128,-1,45
 36 424 36 424 36 506 c 0,46,47
 36 558 36 558 56.5 598 c 128,-1,48
 77 638 77 638 111 661.5 c 128,-1,0
 145 685 145 685 186 696.5 c 128,-1,1
EndSplineSet
Position2: "'cpsp' Capital Spacing lookup 0 subtable" dx=5 dy=0 dh=10 dv=0
EndChar

